/* XPM */
static char *result[] = {
/* columns rows colors chars-per-pixel */
"64 64 57 1 ",
"  c #101010",
". c gray9",
"X c #202020",
"o c gray16",
"O c gray17",
"+ c #343434",
"@ c #353535",
"# c #373737",
"$ c #3A3A3A",
"% c gray23",
"& c #3C3C3C",
"* c gray24",
"= c #3E3E3E",
"- c #3F3F3F",
"; c gray25",
": c #414141",
"> c gray26",
", c #434343",
"< c #444444",
"1 c gray27",
"2 c #464646",
"3 c #484848",
"4 c #494949",
"5 c gray29",
"6 c #4C4C4C",
"7 c gray30",
"8 c #4E4E4E",
"9 c gray31",
"0 c #505050",
"q c #535353",
"w c #565656",
"e c gray34",
"r c #585858",
"t c gray35",
"y c #5A5A5A",
"u c gray36",
"i c gray39",
"p c #646464",
"a c #6A6A6A",
"s c #07AFF8",
"d c #0BB7F8",
"f c #10C1F9",
"g c #12C4F9",
"h c #17CEF9",
"j c #18CFF9",
"k c #1FD3FA",
"l c #24D5FA",
"z c #2CD8FB",
"x c #2ED9FB",
"c c #35DCFC",
"v c #37DDFC",
"b c #3DE0FC",
"n c #44E3FD",
"m c #4EE7FD",
"M c #51E9FE",
"N c #5AECFE",
"B c #5CEDFE",
/* pixels */
"**uu00--::4466889999qqwweeeeeyyyrreeeeeewwqq9999886644::--00uu**",
"**uu00--::4466889999qqwweeeeeyyyrreeeeeewwqq9999886644::--00uu**",
"55kkkk&bbbbbbbbbbbbbb#ssssssssssssssssssss#bbbbbbbbbbbbbb&kkkk55",
"55kzzk&bmmmmmmmmmmmmb#sffffffffffffffffffs#bmmmmmmmmmmmmb&kzzk55",
"99kzlk&bmNBBBBBBBBBmb@sfjjjjjjjjjjjjjjjjfs@bmBBBBBBBBBNmb&klzk99",
"99kkk&bbnMBBBBBBBNMmb@sfhjjjjjjjjjjjjjjhfs@bmMNBBBBBBBMnbb&kkk99",
"00&&&b&&bmBBBBBBNMnbb0sdghjjjjjjjjjjjjhgds0bbnMNBBBBBBmb&&b&&&00",
"00bbbb&&bmBBBBBNMnb&00&sdghjjjjjjjjjjhgds&00&bnMNBBBBBmb&&bbbb00",
"99bmmnbbnMBBBBNMnb==kkoosdghjjjjjjjjhgdsookk==bnMNBBBBMnbbnmmb99",
"99bmNMmmMNBBBNMnb&=kllko&sdghjjjjjjhgds&okllk=&bnMNBBBNMmmMNmb99",
";;bmBBBBBBBBNMnb&&klxxlk&$sdghjjjjhgds$&klxxlk&&bnMNBBBBBBBBmb;;",
";;bmBBBBBBBNMnb&&klxccxlk$&sdghjjhgds&$klxccxlk&&bnMNBBBBBBBmb;;",
"oobmBBBBBBNMnb33klxcvvcxlkXXsdffffdsXXklxcvvcxlk33bnMNBBBBBBmboo",
"oobmBBBBBNMnb&3klxcvvvvcxlkX&ssssss&Xklxcvvvvcxlk3&bnMNBBBBBmboo",
"OObmBBBBNMnb,,klxcvvvcxzlkk&9111pp99&kklzxcvvvcxlk,,bnMNBBBBmbOO",
"OObmBBBNMnb&,klxcvvvcxlkk&&&bbbbbbbb&&&kklxcvvvcxlk,&bnMNBBBmbOO",
"++bmBBNMnb22klxcvvvcxlk&  bbnmmmmmmnbb  &klxcvvvcxlk22bnMNBBmb++",
"++bmBNMnb&&klxcvvvcxlk&&bbnmMNBBBBNMmnbb&&klxcvvvcxlk&&bnMNBmb++",
"==bmmmnb88klxcvvvcxlk&>bnmMNBBBBBBBBNMmnb>&klxcvvvcxlk88bnmmmb==",
"==bbbbb&8klxcvvvcxlk&&bnMNBBBBBBBBBBBBNMnb&&klxcvvvcxlk8&bbbbb==",
",,66..iiklxcvvvcxlk&&bnMNBBBBBBBBBBBBBBNMnb&&klxcvvvcxlkii..66,,",
",,sssssiklxcvvvxlk&&bnMNBBBBBBBBBBBBBBBBNMnb&&klxvvvcxlkisssss,,",
"22sfffs&5klxcvczk&<bnMNBBBBBBBBBBBBBBBBBBNMnb<&kzcvcxlk5&sfffs22",
"22sfjgds55klxcxlk&bnMNBBBBBBBBBBBBBBBBBBBBNMnb&klxcxlk55sdgjfs22",
"==sfjhgds&,klxzk&&bmNBBBBBBBBBBBBBBBBBBBBBBNmb&&kzxlk,&sdghjfs==",
"==sfjjhgds,,kllk&bnMBBBBBBBBBBBBBBBBBBBBBBBBMnb&kllk,,sdghjjfs==",
"##sfjjjhgds&:kk&ibmNBBBBBBBBBBBBBBBBBBBBBBBBNmbi&kk:&sdghjjjfs##",
"##sfjjjjhgds::&&bnMBBBBBBBBBBBBBBBBBBBBBBBBBBMnb&&::sdghjjjjfs##",
"##sfjjjjjhgds&abnMNBBBBBBBBBBBBBBBBBBBBBBBBBBNMnba&sdghjjjjjfs##",
"77sfjjjjjjhgdstbmNBBBBBBBBBBBBBBBBBBBBBBBBBBBBNmbtsdghjjjjjjfs77",
"<<sfjjjjjjjhfsubmBBBBBBBBBBBBBBBBBBBBBBBBBBBBBBmbusfhjjjjjjjfs<<",
"<<sfjjjjjjjjfsubmBBBBBBBBBBBBBBBBBBBBBBBBBBBBBBmbusfjjjjjjjjfs<<",
"%%sfjjjjjjjjfs,bmBBBBBBBBBBBBBBBBBBBBBBBBBBBBBBmb,sfjjjjjjjjfs%%",
"%%sfjjjjjjjhfs,bmBBBBBBBBBBBBBBBBBBBBBBBBBBBBBBmb,sfhjjjjjjjfs%%",
"##sfjjjjjjhgdsabmNBBBBBBBBBBBBBBBBBBBBBBBBBBBBNmbasdghjjjjjjfs##",
"##sfjjjjjhgds&abnMNBBBBBBBBBBBBBBBBBBBBBBBBBBNMnba&sdghjjjjjfs##",
"##sfjjjjhgds::&&bnMBBBBBBBBBBBBBBBBBBBBBBBBBBMnb&&::sdghjjjjfs##",
"##sfjjjhgds&:kk&ibmNBBBBBBBBBBBBBBBBBBBBBBBBNmbi&kk:&sdghjjjfs##",
"==sfjjhgds,,kllk&bnMBBBBBBBBBBBBBBBBBBBBBBBBMnb&kllk,,sdghjjfs==",
"==sfjhgds&,klxzk&&bmNBBBBBBBBBBBBBBBBBBBBBBNmb&&kzxlk,&sdghjfs==",
"22sfjgds55klxcxlk&bnMNBBBBBBBBBBBBBBBBBBBBNMnb&klxcxlk55sdgjfs22",
"22sfffs&5klxcvczk&<bnMNBBBBBBBBBBBBBBBBBBNMnb<&kzcvcxlk5&sfffs22",
",,sssssiklxcvvvxlk&&bnMNBBBBBBBBBBBBBBBBNMnb&&klxvvvcxlkisssss,,",
",,66..iiklxcvvvcxlk&&bnMNBBBBBBBBBBBBBBNMnb&&klxcvvvcxlkii..66,,",
"==bbbbb&8klxcvvvcxlk&&bnMNBBBBBBBBBBBBNMnb&&klxcvvvcxlk8&bbbbb==",
"==bmmmnb88klxcvvvcxlk&>bnmMNBBBBBBBBNMmnb>&klxcvvvcxlk88bnmmmb==",
"++bmBNMnb&&klxcvvvcxlk&&bbnmMNBBBBNMmnbb&&klxcvvvcxlk&&bnMNBmb++",
"++bmBBNMnb22klxcvvvcxlk&  bbnmmmmmmnbb  &klxcvvvcxlk22bnMNBBmb++",
"OObmBBBNMnb&,klxcvvvcxlkk&&&bbbbbbbb&&&kklxcvvvcxlk,&bnMNBBBmbOO",
"OObmBBBBNMnb,,klxcvvvcxzlkk&9111pp99&kklzxcvvvcxlk,,bnMNBBBBmbOO",
"oobmBBBBBNMnb&3klxcvvvvcxlkX&ssssss&Xklxcvvvvcxlk3&bnMNBBBBBmboo",
"oobmBBBBBBNMnb33klxcvvcxlkXXsdffffdsXXklxcvvcxlk33bnMNBBBBBBmboo",
";;bmBBBBBBBNMnb&&klxccxlk$&sdghjjhgds&$klxccxlk&&bnMNBBBBBBBmb;;",
";;bmBBBBBBBBNMnb&&klxxlk&$sdghjjjjhgds$&klxxlk&&bnMNBBBBBBBBmb;;",
"99bmNMmmMNBBBNMnb&=kllko&sdghjjjjjjhgds&okllk=&bnMNBBBNMmmMNmb99",
"99bmmnbbnMBBBBNMnb==kkoosdghjjjjjjjjhgdsookk==bnMNBBBBMnbbnmmb99",
"00bbbb&&bmBBBBBNMnb&00&sdghjjjjjjjjjjhgds&00&bnMNBBBBBmb&&bbbb00",
"00&&&b&&bmBBBBBBNMnbb0sdghjjjjjjjjjjjjhgds0bbnMNBBBBBBmb&&b&&&00",
"99kkk&bbnMBBBBBBBNMmb@sfhjjjjjjjjjjjjjjhfs@bmMNBBBBBBBMnbb&kkk99",
"99kzlk&bmNBBBBBBBBBmb@sfjjjjjjjjjjjjjjjjfs@bmBBBBBBBBBNmb&klzk99",
"55kzzk&bmmmmmmmmmmmmb#sffffffffffffffffffs#bmmmmmmmmmmmmb&kzzk55",
"55kkkk&bbbbbbbbbbbbbb#ssssssssssssssssssss#bbbbbbbbbbbbbb&kkkk55",
"**uu00--::4466889999qqwweeeeeyyyrreeeeeewwqq9999886644::--00uu**",
"**uu00--::4466889999qqwweeeeeyyyrreeeeeewwqq9999886644::--00uu**"
};
