/* XPM */
static char *result[] = {
/* columns rows colors chars-per-pixel */
"64 64 225 2 ",
"   c #005C55",
".  c #005F58",
"X  c #00635C",
"o  c #1D5669",
"O  c #045474",
"+  c #065A79",
"@  c #0E5872",
"#  c #215B6A",
"$  c #006760",
"%  c #006B63",
"&  c #0B6F68",
"*  c #017067",
"=  c #00746C",
"-  c #0B736B",
";  c #00786F",
":  c #15756E",
">  c #19687B",
",  c #017C73",
"<  c #0A7971",
"1  c #156F73",
"2  c #30696F",
"3  c #226C7C",
"4  c #276D76",
"5  c #297476",
"6  c #34757A",
"7  c #387776",
"8  c #306870",
"9  c #467E77",
"0  c #018077",
"q  c #02837A",
"w  c #0A827A",
"e  c #01887F",
"r  c #09897F",
"t  c #1C867E",
"y  c #13887E",
"u  c #29837C",
"i  c #48867B",
"p  c #568B7B",
"a  c #5E907D",
"s  c #65977E",
"d  c #76A07E",
"f  c #096C8A",
"g  c #0C6883",
"h  c #156C83",
"j  c #19788C",
"k  c #107690",
"l  c #0C708D",
"z  c #2C7B84",
"x  c #217C8C",
"c  c #267583",
"v  c #317C82",
"b  c #058C82",
"n  c #0C8A81",
"m  c #188D84",
"M  c #06958B",
"N  c #09958B",
"B  c #1E9289",
"V  c #18968D",
"C  c #1D9E95",
"Z  c #169C92",
"A  c #0D9F95",
"S  c #2C848D",
"D  c #2A8C85",
"F  c #318087",
"G  c #3C8283",
"H  c #3A8D8E",
"J  c #33898A",
"K  c #23938B",
"L  c #2B948C",
"P  c #36958E",
"I  c #239C93",
"U  c #2A9B93",
"Y  c #339B93",
"T  c #3C9B94",
"R  c #3C8D95",
"E  c #1EA59B",
"W  c #1EA49A",
"Q  c #0AA195",
"!  c #22A197",
"~  c #2CA49B",
"^  c #28A39A",
"/  c #34A39B",
"(  c #3CA59D",
")  c #28ACA2",
"_  c #3CACA3",
"`  c #32ABA3",
"'  c #38B2A9",
"]  c #438986",
"[  c #4D8E85",
"{  c #438987",
"}  c #43928D",
"|  c #4C958D",
" . c #539A8D",
".. c #5B9B8B",
"X. c #569486",
"o. c #479B95",
"O. c #589B92",
"+. c #6C9D83",
"@. c #6C9C8C",
"#. c #639784",
"$. c #729E80",
"%. c #5CA08E",
"&. c #47A49D",
"*. c #5BA49E",
"=. c #54A09A",
"-. c #6CA48A",
";. c #66A088",
":. c #74A584",
">. c #7CAA86",
",. c #74AA8C",
"<. c #7CAC8B",
"1. c #77A587",
"2. c #7EB18D",
"3. c #68A691",
"4. c #76AC96",
"5. c #77B196",
"6. c #44AAA2",
"7. c #4BACA5",
"8. c #45A7A0",
"9. c #57AAA4",
"0. c #49B5AD",
"q. c #54B2AB",
"w. c #4FB7B1",
"e. c #4BB9B1",
"r. c #46BAB1",
"t. c #59BAB3",
"y. c #56BBB3",
"u. c #67B2AD",
"i. c #65BBB6",
"p. c #68BAB5",
"a. c #77BCB7",
"s. c #65AAA5",
"d. c #5CC4BD",
"f. c #68C2BC",
"g. c #76C3BD",
"h. c #6EC8C2",
"j. c #7BC9C3",
"k. c #76C8C2",
"l. c #84AE84",
"z. c #84B28C",
"x. c #8CB58A",
"c. c #95B987",
"v. c #84AE94",
"b. c #8AB592",
"n. c #84B59B",
"m. c #8BBC9B",
"M. c #8AB896",
"N. c #93BB94",
"B. c #9ABD94",
"V. c #93BB98",
"C. c #95B793",
"Z. c #87BCB8",
"A. c #9BC395",
"S. c #94C29B",
"D. c #9CC59B",
"F. c #9BC598",
"G. c #9CC18E",
"H. c #A2C494",
"J. c #A6C996",
"K. c #A3C59B",
"L. c #A3CB9B",
"P. c #ABCD9B",
"I. c #AACA97",
"U. c #B1CD9D",
"Y. c #ADD29C",
"T. c #B2D29B",
"R. c #BAD49C",
"E. c #B8D69A",
"W. c #A8C68C",
"Q. c #9BC7A1",
"!. c #87C2BD",
"~. c #AACCA1",
"^. c #A8C9A6",
"/. c #B3CDA7",
"(. c #AED2A4",
"). c #B4D4A3",
"_. c #B9D6A4",
"`. c #BEDAA4",
"'. c #BDD6AB",
"]. c #B7D7AA",
"[. c #BAD1B0",
"{. c #C4DE9E",
"}. c #C7E19E",
"|. c #C3DCA5",
" X c #C4DBAB",
".X c #C8DFAD",
"XX c #C4DBB2",
"oX c #C3DCB9",
"OX c #C0D3B6",
"+X c #CBE2A6",
"@X c #CBE2AB",
"#X c #C7E1A1",
"$X c #D2E6AD",
"%X c #D5E8AF",
"&X c #CEE1B4",
"*X c #CCE1BA",
"=X c #D3E5B4",
"-X c #D6E8B3",
";X c #D9EAB6",
":X c #DBEBBC",
">X c #D6E5BB",
",X c #E1EEBE",
"<X c #82CCC6",
"1X c #8CC6C1",
"2X c #98CBC7",
"3X c #96D3CF",
"4X c #8FD4CF",
"5X c #A3D2CE",
"6X c #AAD5D2",
"7X c #ABD5D1",
"8X c #CCDAC4",
"9X c #D5E4C3",
"0X c #DDEBC3",
"qX c #DDECCA",
"wX c #E2EEC4",
"eX c #E3EECD",
"rX c #E6F1CB",
"tX c #EAF2CA",
"yX c #E5F0D0",
"uX c #E9F2D3",
"iX c #EEF4DB",
"pX c #F2F7DC",
"aX c #F5F9DA",
"sX c #E4EFD3",
"dX c #F8FBEB",
/* pixels */
"        X . X X X X X $ % % % % X X X X X $ X % % % % & - : : : : & < & & % % % % % % % X X $ X % % % $ $ X X X X . . X     .   ",
"$ u - = = = = = ; = ; , , q q w w , = , 0 q e n I 7.a.1X5X6X5XZ.Z.s.a.a.1Xp.7.I n b q , ; ; , < w q q , , = , = = = = = = - 5 $ ",
"X u *.L m K Y D D L Y T ( / / Y Y / ~ C ~ w.i.3X2Xa.*.L : g + + @ @ @ : J 9.a.2X3Xi.w.` I / / / Y / ( ( T Y L D L Y K m L *.D X ",
"$ : P &.L B L K t K B n w n n b N ^ 0.f.4Xi.~ w % X X   + + g f g f f j   X X % < U i.4Xf.' ^ N b b w n y V K t K L B L =.T - X ",
"X % - 7.p.B V V L / / ~ V e V w.f.f.d.^ q = X .   + > J | 3.4.*.*.R j > h h k     . = , ~ d.f.f.w.Z e V U / Y U V V B p.&.< X % ",
"X % = U q.1X0.9.( ~ / / q.j.4Xj.t.I , * X     c [ ;.;.2.2.m.S.D.L.L.L.N.b.3.[ F h     $ % , C t.j.3Xj.q./ / / ( 9.7.<Xq.U ; % X ",
"X % , I ( u.5Xg.f.g.h.t.j.<Xy.V , % .   S | X.+.:.2.v.D.Y.T.T.|. X|..X=X;X@XI.G.z.4.| >   . % , C t.<Xj.t.h.h.f.g.5Xu.( I , % X ",
"X % w ~ / C _ i.^ ) ' <X<X~ w % X   { +.:.-.:.z.L.U.@X{.+X}.E.@X&X XXX@X-XwX;X+X{.C.H.N...>   X % q ~ <X<X' ) ^ p._ C / / q % X ",
"X % n / _ ! Z N h.r.w./ r = X   F X.:.>.x.A.H.J.T.I.=X+X$X+X'.0XwX%X X_. X,X;X+XK.{.{.R.W.d i >   X = r / w.r.h.N Z ^ _ / r * X ",
"% * r / _ ^ w.) h.Q e , % h z G ;.1.$.K.H.P.B.K.T.U.$X+X+X$X&XrXyX:X).P.U.+X XC.U.|.$X$X{.G.d [ | H k % , b A h.^ y.! _ ~ r = X ",
"X = b ~ 6.W ' d.r.b = * > 3 | { -.m.^.XXU.).K.'.|.R.|.$X+X%X>XrXuXwX_.I.T.I.V.~..X-X,X-X+X|.Y.+.s X.S S * = b e.d.) W 6.^ r = X ",
"X = b ! _ ` e.4X! ; % % *.O z v O.n.D..X[././.&X9X@X|.@X@X;XrXuXiX&XP.U.T.T.K.@X;XuXwX$X).`.T.Y...> x *.% % = ! 4Xd.~ ' ! b = X ",
"X = b ! ~ _ e.k.q % S . D !.> z v v.N.'.9XoX^.XXrXeX X|.@X:XyXuXuX_.L.J.P.I._.>XiXuX;X.XU.).).2.H x !.D   > X q g.e.' ~ ! b ; X ",
"  ; M W C 0.k.I % k S c X &.Z.> v X.S.^.8X9XOX^.wXiX&XT.'.9XrXuX0XT.L.A.L.A.*XpXaXwX;XU.~.).F.} j !.&.% O 3 h = U k.0.C W b ; X ",
"X , M W W k.p.w X H  .3 x = 7.Z.3 7 >.(.[.qXrX9XOXeX9XU.b.*X0XrX>X_.F.m.L.'.uXpXwX;X XF.).D.%.x Z.7.= > z | z X w p.k.W W M ; X ",
"  = M E ^ j.8.%   | #...H j , q.7X3 i b.~.XXsXyX0X8X0X.Xv.Q.+XwX>X).V.S.R.0XaXtX:X|.V.P.K.,.S 7X9., > z v { G   % 8.j.E E M =   ",
"  = M Q e.i.m . h i $.P.2.} S , a.2X6 i b./.oXsXrXsXuX;X^.D.`.;X>X).n.K.@X0XtX9X'.m.Q.L.b.} 2Xa., c v v O.-.@.v X m i.w.Q M =   ",
"  = M ^ k.U &   i d T.Y.).F.O.S q 9.Z.4 #.C.(.oX0XwXtXwXXXM.L.+X&X_.D.L.=X@X@X~.Q.m.n.3.O.Z.9., 3 6 X.v.5.m.>. .  & U k.E M =   ",
"  % M ' p.<   3 d W.{.|.).].F.,.} q 8.!.4 X.V.K.]. XwX/. XC.b.Y.|.(.D.P.#XY.^.Q.n.4.O.| 1X7.q 6 9 1.N.N.D.^.$.$.{   - p.' N %   ",
"  = Z w.U %   ..W.{..X).).L.).K.b.O.e &.2X] p z.S.L. X).H.K.b.V.Y.D.D.N.@.m.B.4.O.O.} 2X&.q 4 i x.).^.'..XXX^.l.+.  % U w.Z =   ",
"  , I t.y X > b.R.$X-X$X@XP.D.~.K.3.| q Y 5Xv 2 l.D.B.R.C.H.B.<.L.D.S.#.@.b.5.| o.} 2XU , 3 #.b.^.].8X9X[.).H.x.1.F . n t.C , . ",
". , ~ t.- . [ H.{.$X,XwX:X-X|.V.Q.n.O.} , n Z.c 7 x.<.V.x.c.l.a ,.,.<...@.4.{ | R Z.m , ] s C.).oXqX9XoX/.U.P.B.-.|   < t./ , . ",
". , q.q.&   4.B.`.{.-XuXuXwX;X`.m.m.4.O.} = , *.{ s 1.2 o o # # 7 ] ] 6 | { | H 9., * v [ B.).oXeXyX'.^./.I.B.F.:...  % q.q., X ",
"X n u.D $ h b.R.K.U.+X;XiXpXrX:X].Q.n.O. .H % = o.-.[ z j x $ - & X f O g H | T = % c 8 z.^.[.uXyX9X^.oX*X'.K.J.x.#.z % D u.w X ",
"X m 1X- % F G.+X+XC./. X>XiXpXtX>X(.S.4.| | H . % o.| } : 3.o.} } } s.< 5 ] o.% . { 7 l.S.].0XrX0XOX0XsX0X|.T.E.H.-.[ % - !.B X ",
"$ Y 1X& h | I.;X;X XV.K.R.&XiXpXrX&XQ.D.5.]  .|   X ] a.3X1 5 5 4 u i 5Xa.} X   -.s x.D.L. XwXsX8XeXpXwX.XR.U.I.).2.+.+ - !.Y X ",
"% 7.u.X h 3.@XwX:X+XI.T.L.H.`.0X:X@X(.m.M.5.H H { % o.2X5 i a d d s s :.2Xo.X | [ 1.1.B.@X0XrXuX0X0X=X X|.|.$X=X@X2.+.h X u.8.% ",
"* p.O.  h b.;X-X XU.T.E.P.L.L._.@X=X|.@.@.@.| g 3 D a.6 p s I.E.E.J.l.a > a.L } 6 7 V.R.)./.wX>X XP.U.|..X$X+X#X}.L.<.F . =.p.% ",
"= a.D k > N.=X@X_.P.P.P.I.F.m.N.K.K.Y.N.@.X.6 O - u.5 p l.E.%X;X$X}.Y.W.p 4 u.= j o x.C.B. XXX^.v.M.'..X+X+X$X$X+XY.2.o.+ J a.* ",
"& a.> f x D..XXX X_.).P.L.L.D.S.n.D.D.L.S.<.] g m 5 i >.I.%XtXwX,X-X%XR.c.i p t x # c.H.J.V.M.S.K.*X9X>X:X=X$X+X#XY.S.%.+ g a.- ",
"1 4X@ l R K.`.|.=X:XwX&X_.U.R._._._.~.D.S.,.] = P > s B.}.,XtXaXdXtXwX`.E.s 6 P = # l.B.x.N.~.`.+X0XtXuXeX;X&X XT.T.S.5.> + p.: ",
"5 6XO l *.P. X&XwXyXuXiXuX:X>X>X>X=X`.Y.D.>.7 * t 4 d J.;XtXwXaXdXaX;X%XE.l.7 y % # a 4.S.Y.#X;X0XrXuXuXuXeXwX0X@X|.S.*.f + 2X5 ",
"J 6X+ f *.D. X@X0XrXrXuXuXuXrX0X;X+XY.V.<.a 8 = P 4 i J.}.%X%XaXaXiX%X{.E.c.i L = 6 1.D.Y.|.=X&X>X>X0XuXiXsXrXwX.X.XL.*.l O 5Xu ",
": 6X+ g 5.S.T.T.'.&X;XrXyXrX:X+X'.L.b.b.V.l.o = P 1 i z.{.}.$X,XtX,X+XE.F.c.i P * { <.S.D.(._._._._.U._.=X0X:X;X X|.K.R f @ 3X: ",
"- 1Xg + %.m.T.#X@X$X%X;X:X9XoX^.F.M.C.H.H.c.o j t 4 u d W.{.}.$X;X%X}.W.c.l.7 y f { <.m.D.D.S.n.S.D.L.L.P._._. XXX XK.x f > a.- ",
"= a.D + | z.Y.+X$X+X+X@X@X].C.v.^.oX|.H.C.x.o j = u.5 s l.G.E.E.$X#XE.l.c.i u.- O 6 #.@.S.Y.L.L.S.M.A.I.P.P.P._..X$XV.> l D p.- ",
"% p.*.  F z.K.#X+X+X$X@X`.).U. X;XwX/./.R.N.7 6 } D g.i +.x.A.G.J.J.l.l.u a.D c g | @.@.@.#X&X+XE.P.D.Y.E.T.U. X;X-XM.h   O.a.* ",
"% 8.u.X h +.2.@X%X@X|.|..X&X9XwXuXtXwX XF.<.1.[ | X o.2Xp p >.x.l.l.#.9 ^.7.X { H { 5.b.m.Y.@X:X0X_.H.L.Y.I.+X,XwX&X3.h X u.7.% ",
"X Y !.: + #.z.U.I.U.T.@XwXiXeX8XsXwX XP.D.x.s -.  $ } a.5X4 1 5 6 4 7 5Xa.} $   | | { 5.D.Q.&XrXaXiX&X_.K.V.|.;X;XI.| h & 1XP $ ",
"X m !.: % [ :.J.T.T.|.0XsXeX[.0XrX0X].S.l.7 ] X % | ] 3 - s.| } } } s.- } | o.% X R | } 4.D.).9XrXpXpX>X.XU.C..X+XG.z $ - 1Xm X ",
"X w u.D % z #.z.J.K.'.&XXX^.9XrXsX[.^.z.8 c % = } | H g O f X - - X B j z [ -.T * $ H | O.5.Q.[.:XtXiXaX;X.XU.H.R.b.h $ D u.q X ",
"X 0 q.u.%   ..:.A.B.K.).^.OXeXsX*X].B.p z * ; 9.H | H | 7 ] ] 6 # # o o 7 1.s { 9.< * | O.4.m.m.`.;XwXuXtX-X|.|.B.4.  * u.q., . ",
"  , ~ q.-   | -.A.P.)./.oX8XeXoX(.C.a { , r Z.H | ] 5.@.#.<.,.>.a l.c.x.A.1.x.7 c Z.m , | O.n.Q.V. X=X;XeX,X$X{.H.| . - t.~ , X ",
"  , W t.y X S :.x.B.).[.9X>X[.^.b.X.4 0 U 5X}  .| 5.b.@.@.m.D.D.<.C.H.C.R.A.D.<.2 v 2XU q | 3.^.P.A.U..X$X=X$X{.x.> X y t.C , . ",
"  = W w.U %   ;.1.K. X&X'.^./.x.i 4 e 8.2X}  .O.4.V.m.@.S.D.D.Y.V.b.J.H.).|.L.S.z.[ H 2X&.e O.b.K.).~.T.U.+X{.W...  % U w.C =   ",
"  % M ' i.<   ] d 1.^.D.N.S.1.9 6 q 8.!. .O.4.n.Q.Q.(.|.P.D.(.'.Y.C.C. X/.0X X].^.B.s 8 !.8., } ,.D.].).{.|.G.d > . < i.' N %   ",
"  = M E k.U &   X.,.m.5.5.X.6 3 , 9.Z.O.4.n.m.Q.).@X@X=XL.F._.=X|.L.M.oXwXtXeX0XoX).C.X.4 Z.9., S %.S.T.T.Y.d ]   & U k.E M =   ",
"  = M Q w.p.t   F @.-.O.G 6 c , Z.2X} b.Q.Q.m.].:XtX:X.XL.n._.>X;X`.D.^.>XuXrXtXsXoX(.b.p 6 2Xa., S } 2.P.$.i h X u i.w.Q M *   ",
"  = M E W j.&.%   G { v z h , s.5XS 4.K.L.V.`.:XtXpX0X_.S.S._.>X0X+X^.v. XeX8X0XyXqX*X^.x.9 4 7Xq., j R ..a X.  % 8.j.E E M ; . ",
"  , M E W k.p.w X z [ z @ = 7.Z.S %.S.).D.|.;XtXpXiX`.L.M.F.T.>XrX:X*Xb.U.>XeXOX9XyXqX[.).1.6 c Z.7.= x 3  .J X w p.k.C E M , . ",
"X ; M W ! 0.k.U = h 3 O % &.!.j } F._.~.P.;XwXiXiX&XH.D.A.L.T.9XuXrX9X'.U.=XpX0X^.oX9XoX^.N.X.v > Z.&.% x J k = U k.w.C C M ; . ",
"X = b W ~ ' e.k.0 $ > X D 1Xx H 2.)._.U.@X:XuXiX;X_.I.Y.I.L.`.uXuXyX;X.X`. XeXyXXX^.oX9X'.V.2.v c > !.D X S X , k.e.' ~ I b ; . ",
"  = b ! _ ` e.4X! = % % *.x 3 ..I.T.|.U.$XwXtX;X.XK.T.T.U.I.&XiXyXyX:X@X+X X@X0XoX/./.[.oXK.n.O.F z O *.$ $ = W 4Xr.` ' ^ b = X ",
"X = n ! 6.! ) d.r.b = % S S X.s d U.|.+X%XwX-X.X~.V.I.T.P.E.wXuXrX;X-X+X+X XR.|.XXK.U.U. X^.m.-.{ | 3 > % = b e.d.` ! 6.^ b = X ",
"X = r / ' ! w.) h.A e , % k H | i d c.{.=X$X{.U.C. X+XU.P._.,XyXrX&X$X+X+X$XU.Y.K.B.U.H.K.1.1.;.v z h % , b Q h.) w.! _ / b = X ",
"X * r / ( ^ Z Z f.r.y.` w = X   h [ $.W.{.{._.K..X;X,X X_.'.=XwX0X`.+X$X+X=XI.E.H.H.A.x.>.d  .F   X = r / y.r.h.Z Z ^ ( / n % $ ",
"X % q Y / C _ p.) ) ' <X<X~ q % X   > ..c.H.B.{.+X-XwX-X.X X X&X@XR.#X+X#X@X).L.z.:.-.:.;.]   X * q ~ <X<X) ) ~ i._ I / U w % X ",
"X % , I _ u.5Xg.f.k.f.t.j.<Xt.I 0 % X   > { 4.b.G.I.&X-X=X X|. X XT.T.Y.D.2.2.-.+.X.| S     % , I y.<Xj.t.k.h.p.g.5Xt.( I , % X ",
"X % ; U q.<X7.7.&.~ / / q.j.4Xj.y.I , * X     h F X.3.b.N.K.K.~.F.S.m.z.2.+.+.[ 5     X * q I y.j.4Xj.9./ ` ~ ( 9.7.<Xq.U ; % X ",
"X % - &.p.K V V L ~ / ~ V e V w.i.f.d.! e = X     l h > h x } *.*.5.%.| F > +   X X = q ~ t.f.f.w.V e V ~ / / L V V B p.&.< X % ",
"% : P =.L B K D t L B r r r r r N ~ 0.f.4Xf.~ y % X X X j f f l f g + O X X X % w Y f.4Xd.0.~ N b b r r n B K t K K B L =.H : X ",
"X u *.L B K Y L D L P ( ( / / Y / / ~ I ~ w.p.3X2Xa.*.J : > @ O O + g : D 9.a.2X3Xi.w.~ I Y / / Y / / &.T Y L D D P K K L 9.u X ",
"$ u ; = = = = = = ; , , 0 0 q w w ; ; , 0 0 e b I 7.f.1X7X7X5XZ.Z.s.p.a.1Xa.7.I b e q 0 ; ; , w w q q 0 , , = = ; ; = = = = u % ",
"        X   X X X X X X % % % % X X X X X X X % X * X - X : : : : & : & * % % % % % X X X X X X % % % X X X X X X X X X         "
};
