/* XPM */
static char *result[] = {
/* columns rows colors chars-per-pixel */
"64 64 98 2 ",
"   c #0D1736",
".  c #0D1837",
"X  c #0E1A3C",
"o  c #0F1C42",
"O  c #101E45",
"+  c #101F49",
"@  c #122044",
"#  c #11214D",
"$  c #122353",
"%  c #14265B",
"&  c #14285F",
"*  c #1D2D5C",
"=  c #142760",
"-  c #152963",
";  c #182D67",
":  c #162D6B",
">  c #182E6D",
",  c #1E336C",
"<  c #172F70",
"1  c #182F71",
"2  c #173072",
"3  c #193175",
"4  c #1A337B",
"5  c #233974",
"6  c #20377E",
"7  c #293F7A",
"8  c #1B3683",
"9  c #1C3886",
"0  c #1D3A8B",
"q  c #1F3D94",
"w  c #1F3F98",
"e  c #243D84",
"r  c #213D8D",
"t  c #213E94",
"y  c #203F99",
"u  c #1F4099",
"i  c #2B4180",
"p  c #25408F",
"a  c #2B4489",
"s  c #364B86",
"d  c #234095",
"f  c #2A4693",
"g  c #21409B",
"h  c #29469D",
"j  c #2C4899",
"k  c #324D98",
"l  c #3B5190",
"z  c #365099",
"x  c #3B559F",
"c  c #2445A3",
"v  c #2847A3",
"b  c #2A4AA4",
"n  c #2647A8",
"m  c #2748AA",
"M  c #294BAD",
"N  c #324EA2",
"B  c #2E50AF",
"V  c #3452A4",
"C  c #3A55A1",
"Z  c #3453AC",
"A  c #3857AE",
"S  c #3B58AE",
"D  c #2B4DB2",
"F  c #2F51B5",
"G  c #2F52B8",
"H  c #3354B5",
"J  c #3857B6",
"K  c #3758B5",
"L  c #3B5AB3",
"P  c #3355B9",
"I  c #3758B9",
"U  c #3B5BBA",
"Y  c #425BA6",
"T  c #445FAC",
"R  c #425EB2",
"E  c #405FBA",
"W  c #4860A3",
"Q  c #4660AB",
"!  c #4D67AB",
"~  c #4662B3",
"^  c #4A66B7",
"/  c #4362BD",
"(  c #4966BB",
")  c #4C69BE",
"_  c #536CB1",
"`  c #506CBC",
"'  c #4564C1",
"]  c #4867C1",
"[  c #4C6AC3",
"{  c #516EC5",
"}  c #5471C7",
"|  c #5975C7",
" . c #5673C8",
".. c #5976C9",
"X. c #5D79CB",
"o. c #627DCD",
"O. c #6681D0",
"+. c #718AD4",
/* pixels */
"n w y g w q q 0 < 1 8 q 0 8 q 3 1 & # # # $ # $ q d g n c w g g w g g g q : : - : < $ = > 9 ; : 3 4 4 4 1 4 1 < : % $ q y n D I ",
"o.L g u w w q : : 3 w q 8 0 = $ # & : : : : : = = y w c g y g g g g w w w 4 4 : 4 3 = $ & O $ : 3 8 0 w w y w D c 0 $ : y y n } ",
"[ D g g w w 3 : : 9 q 4 3 # - 0 q 0 3 ; = $ < : & : w w w w y y q 4 1 : < - < : 3 2 4 $ O # ; 0 w q 9 4 4 4 8 d M M y + 4 y y ' ",
"| c g y w 8 - : : 0 8 < $ : 4 : o X X o & 4 : > = $ q 0 9 w 0 = $ % = = = % $ % $ ; 8 % X % 9 = $ # % % + & - - v n n - % w w D ",
"| g q q 0 : < : 1 8 4 = : : - X X o # - 4 y q < : + 4 9 0 ; $ - 3 9 q 4 1 = # # # o 9 3 X = 4 $ % = : > , 3 r R ] D c 4 + 3 q D ",
"[ g q 0 : : 3 < 8 ; = 3 c 4 - & ; 4 y Z H n v < < + < 4 & $ e m n q 0 4 : : 0 9 = $ ; 3 X $ d d V m U [ o. .{ U D t q 9 + < y D ",
"H 0 9 : - 9 1 8 0 + # ; n v n ] [ [ | ] P d w : 1 + ; % # 8 N e + O + + + o = 0 4 $ # 3 o o y g F H P / ' D D M v w g 4 + 9 g D ",
"d 4 : - 0 8 3 q q % X ; 4 0 g H E L U X.M g w : < O $ $ e _ C ; - - : : : 1 3 1 4 % O 0 # X q g c c D [ ' g g g g y y $ + y c M ",
"0 < - 0 0 9 8 9 q < O $ - > 8 y m m D | c u q : : o + & x ( v q w M M D M c c g 9 = X t $ X 8 y w n m F P n w g u g w o % n g m ",
"4 = + + O O + $ : 4 O O - > < q c D D ] c u q < : o $ , ! O.| { ] ] } ] H Z g d 4 - . 9 : o : w w g m D D n g g g y - o 3 m y w ",
"- O O + % $ $ + O X O X + - 4 8 w m M m c g 0 < < X $ - 1 g v b J U [ D c w w q 4 = . 0 4 O : w g g c g n y g g u 9 $ + w M g 3 ",
"# X < + + .   o & 4 = O O % : 4 q g m g w w 0 1 < o $ ; > g u g g E ( M n g w 0 < $ X t < : - 3 8 q w g g y y y q : % < c n w 3 ",
"X O ; 7 + + + O X > m - # X - 3 q y g y g g 9 3 4 + % $ & 4 q u c ( P Z c d g 4 : o + q : 3 $ # + # $ = 1 9 y y : - - 0 M c 0 3 ",
"X # t ` N ; + ; - % M 3 : O $ : 8 y g 8 : - : & - # & $ X $ 2 8 w c D K c g w : : # : 0 : - - 0 0 4 : % % = - : - 8 8 q w y 8 3 ",
"X % y y L } ( T ~ h M 3 - 4 $ & - + O # = 3 3 - r y 0 3 $ $ % : 9 y c w y y 3 : < : 9 8 - = - 3 : - = $ - 8 1 = % O 1 w w w 8 : ",
"O : y g m c  .E D D t : - 0 9 o . O > y g g t 8 9 t h g 4 + $ - 4 y 0 4 3 : = - - O + & - - 4 ; 3 : # + X o $ 8 0 % o : w 0 8 : ",
"X 8 y c D D D c d 4 - ; < 0 - . $ : 0 q 8 ; # o X X % 9 b $ - : - : - > 1 : > 1 : % + X O $ 3 8 t 8 + O + O X & 4 t # O r 0 8 ; ",
"O 3 y y n n t 9 4 - - 4 4 8 + ; 0 : 2 o X .   X o $ = 9 M 4 - - = 4 8 $ % > 8 t w q q 4 $ + : m g c t = + O + O + r 4 O 1 4 4 : ",
"+ - 8 9 0 9 4 1 - = : 8 0 $ $ 4 < : - % # # % - 8 d m D n q - - - 9 9 % $ o O # - 1 t y c = O 4 m D L v 4 1 : 4 t g d O - 9 4 - ",
"+ # # + # $ & = % : 4 0 4 X - q c m n F P I P D P P D n g 4 ; - > m c 3 - O O X X $ = - m 8 + + y D P ] / B y D U M g O = + . O ",
"q q q 0 3 - = % + + ; w 8 X - g D G E ' ' ' ' [ { G c u u < - = > g m D y r < $ o o $ 1 m < + O y c D P X.' U I F m 8 . % X ; y ",
"% + o o X X X O : : o - 9 + + 9 w g w y c D D { I D n w u : - & > y w n P E P M y 9 y m c < O & y m D P n n n c r 9 O O $ ; y r ",
"+ O . X . X X O & = = X 4 4 O - q w w g g c D { D D c u q : & - 1 g y M D P  .' D D D D 0 : o < D c n M w w w 0 1 = O + O r v - ",
"0 - & % $ $ % - 3 4 4 O < t < + % < 3 4 q d g g g D n w 8 - - - 1 w g m c D { M m m c w 1 $ + y m y y y 0 q 3 1 9 3 + $ O y E L ",
"E r 4 8 9 0 q w w q $ $ q 0 : O o $ & & $ 9 q w y c y g 3 - - = : w g M w D | g g g g 4 < X : w w w 0 0 3 < - % < : + $ = y D ' ",
"( ' D M y q 9 9 q 3 o & % + + % - 4 4 3 & & : 0 y w 0 < # + + % : w g D c K b d g u q : $ o q q : = : : ; : : - % + $ $ - y M M ",
"H [ L b y 8 0 0 1 o + = - 9 4 % % - = 8 4 $ = < 4 - O O $ & & = - 8 y c y g g g w u ; $ + : 0 % : 9 y g y g y q 9 + + $ : 0 c D ",
"E H y y q 8 8 = $ + 1 q q + X X # = $ y 0 $ = 4 $ $ 3 - : > : < < + - q g g y g 0 : % : + : # < q w w w q 9 4 8 0 $ % $ : 1 w D ",
"' D w w 8 4 - = % q q - X X o $ & - g c 0 # & = O 3 1 = $ X $ = 4 : + o 9 y y 9 : - ; & % # : q w w 9 : & & = - 0 + : $ : 1 q M ",
"P g w 8 < & & 9 q 1 - $ X O $ = 3 n D c 4 $ % % $ 3 q < % X X + % 1 3 $ O 3 9 9 8 $ $ + o = w w 9 % o + % & = 3 w + : = < q w H ",
"D c w : % = 4 3 < > & = + O - q P P n y 4 $ $ : $ : y d y & o + + & - 9 $ O t 9 & # O # 4 y w - o o + & e a q y q + - 3 4 y w c ",
"c w q = + = : < : - = ; e V [ ' I c g 0 4 % & 4 % < 4 g D D q - = = - 4 0 + = $ # $ X % c g = X . + = t X.E g w 0 + < 9 w u g y ",
"w q 9 - + : < 8 M / ) ) } ' D D w w 0 8 : & & 9 # 0 : q m D F H w 9 8 0 w - $ % - # + 0 M 9 + X & 4 m ' ..E d g 4 $ 8 w w u n c ",
"q 0 4 : % - 8 9 d H F D G [ D n q w 0 < : % - q # 9 8 < q c D P I D D M w 3 + : 3 $ O y m M c c c m G [ [ v u u - - 9 u w g c w ",
"0 9 4 1 = $ 4 8 8 d c n n P D n w q 0 : 4 = < w : 8 w 1 3 g y g n m D D w - $ w 9 % X 4 g n n m n n D [ H b c q - : 4 q w c g g ",
"0 8 0 3 - % & 4 9 0 w c m D D n w q 0 - 8 : 9 w < : 4 - & % & r g y w w 4 o - w q $ O % 0 q 0 q w u g c n b g 3 : : 8 q w c n w ",
"0 8 0 : 3 - - 8 8 8 q w D n D M w q 0 9 < : q 0 < - - & $ # # 4 y w q < o O - 0 4 % $ O = < 0 0 q w g c g c q : 1 < 0 8 g g c w ",
"< $ % # $ % & 9 8 8 9 q m m D D n w 0 0 - < 4 - - = < y m d 3 # y q : : + $ - 0 0 = % $ $ & = - q q u g u 0 0 4 3 9 0 4 w w w q ",
"- : < + O o o o - 3 4 8 w y m m m q 0 9 = : - ; 0 3 q 0 c g y + 8 8 1 % $ $ 8 y 0 - % : & + + $ < 0 3 : - - ; < < 4 q 8 0 w w q ",
": w w w 0 < & + X o : : 0 w c m n w 9 # & - 9 q 9 $ o % > d c $ - : = $ $ % w y q 8 & 2 4 $ + + # # : u g q 8 < : = < 8 8 q q - ",
"0 g 4 4 0 q u 4 : o o 9 8 q w c w 8 + + % 4 < # X X O % - m m : $ : $ $ $ ; > & % = - > 0 - # $ O # t m y w y y w 8 = : < 9 < - ",
"d ; X @ # # $ 9 w 4 + o < 0 w 0 8 $ . % : - + X O % l r M M c 0 + + $ $ + O + + + + $ $ $ = - % # + y d & + > r w w q - - : % % ",
"d s @ O + - & % : q q : o 4 8 4 1 + X : ; = = - z ` P M c u u w % + $ o # d m y y y y y 0 4 < > # + 8 D : . X + = q w y > - + > ",
"t N Y 4 ; - & - & & : 0 - + 0 q : % o 0 d g M Z K J U m d u c w < + + X d t d > = - $ & < 9 0 9 & + - D h O . O # # 3 B N : + + ",
"3 M ~ ` Z j 9 , - = = 9 w % 3 8 4 = o 3 c c u u M D M g g y y g 0 + + $ 0 m t % $ $ $ X X O + = = + = g H r X O & % $ & Y e = # ",
"% q ~ Z ) ^ b v S b g d 0 - : 0 0 : + $ 8 w u u g g r < 1 1 4 4 0 % + + : D B ` 5 $ $ + X X o $ , + : & c J p O X # % - , 7 - $ ",
"@ 4 c F ] U v h Z S h : < < q 4 8 1 & o 1 0 w u 0 = O $ < 4 9 4 : : - + = y m I o.E d 4 < : : : 4 O 8 = < M b a - + # $ : ; > % ",
"X 3 c D ] P c u w w - & # % # % - - - % + 0 9 4 % X < n v t < & - < : + o 0 w c b [ ] J M n y y : # < > d g D { { d ; = 4 e : $ ",
"@ 4 c I [ b w y g : O X O X O o o       X o 4 % o - n c & O X $ : < - - o : 3 3 8 K I y y y y 0 # $ & = y t c ( +.( ( L ~ d 0 + ",
"# 8 M X.D q w w : % + + % = = - : : : - $ o X & X 3 v n = % O X o + - 3 % $ 8 q 9 k I c g y w : % & % = e d v P H M m n d q 4 o ",
"$ g H M q 0 q & o o & ; < 4 4 1 : < 1 < 8 0 + : X % d D m 0 < - o X o % - = $ % t r m c g g 0 : r : # & & 3 4 9 c c m g w 0 % o ",
"2 n c d y 4 $ O & q y - $ O . . X o # & - - # ; # - w c D U P d - X X % : : = $ $ 0 w w g 3 $ $ O X X X o + = - : n m c y : + o ",
"q n c w w - O $ y e ; X . X o $ % & = & = 9 : - < : w w w F } ] H v t t w 0 0 $ + q w 9 % + $ % & - : < 3 - % - w M c w 9 $ $ % ",
"d n u u 8 = # # S b > $ + + $ = - < 4 0 q 0 X < 4 : 0 w u u c F I { { F M y 8 $ % 9 1 3 1 - : 4 8 : = = : : : % n g w w $ = ; : ",
"q u d w : = $ + f ( X.E Z b Z Z y y g w q $ $ : ; : - 0 w w u n c Z J y g w = + 4 < 0 y 8 8 8 % & = & % 3 4 < & q w w 4 : 1 < 3 ",
"2 q u w : : $ + & t / ] U P ~ R v w 9 ; O o = < 3 : = - - < 9 w y B I c g - $ + : 4 y w - O X O + + $ < q 0 = ; 0 g q : 1 4 4 4 ",
"+ o o - > > $ O = = v D M } H w 4 $ + o o 1 y y y y q t 4 : : : t c U c 4 & + $ & y r $   X O O $ e t n c 0 % : 0 w 4 = + + + $ ",
"- - & # # & $ # & = r D H ( V q $ + o o q w w q q 0 0 g c y 3 < q y P n g & + # - M e % $ + ; f ~ H D c w 1 $ - w 9 $ + - % $ % ",
"n 0 8 2 $ O # : : - r c D U g : X $ o = $ + X . X + + $ 8 c 1 < < y D n t = O + - D M R T H I ] L D c g w < $ < q # + 0 m n m M ",
"4 3 0 u q ; o & 3 > 4 v M g q + o % + o o o + $ & : : - > v q 3 : y m n t & # O = y F G D M m U { b g w w - # 9 8 + 0 D D c r 9 ",
"O # $ $ - 9 3 X : 3 3 t y 1 0 O o 4 1 - $ % = : ; 1 4 y m m q 1 < q m n 9 & $ % $ 1 g g c g n G ] D m y w - $ 0 1 + n F c $ X X ",
"o $ $ & = = : : # > 3 y r 0 9 O + 8 w c n m m P [ [ [ U c y 4 8 < q g g 8 & $ $ + = 3 y w g w n M n m y w - % 9 3 + c } D = # o ",
"< : ; - = - = : % - 8 9 y w 9 $ $ < w D m m M D D P U m g q 4 w 0 q y y 8 - - - % $ = : q w g y g g g y w 1 < 9 0 $ q ] P g 1 : ",
"8 1 : - : : ; = e - : 4 y q 9 1 8 - 0 g y w c c g y n M c w w y w w y y 8 - ; ; : = $ : : w g g g g g g y 3 8 8 0 % 4 c / P c q "
};
