/* XPM */
static char *result[] = {
/* columns rows colors chars-per-pixel */
"64 64 102 2 ",
"   c #06302D",
".  c #06332E",
"X  c #063431",
"o  c #073633",
"O  c #063733",
"+  c #073733",
"@  c #073736",
"#  c #063936",
"$  c #073936",
"%  c #073A37",
"&  c #073B39",
"*  c #073D3B",
"=  c #07403D",
"-  c #07413E",
";  c #074440",
":  c #074441",
">  c #074641",
",  c #074643",
"<  c #094440",
"1  c #094441",
"2  c #094641",
"3  c #094643",
"4  c #094944",
"5  c #094A46",
"6  c #094B47",
"7  c #094E4A",
"8  c #09504B",
"9  c #0A504B",
"0  c #09534D",
"q  c #0A534D",
"w  c #095450",
"e  c #0A5450",
"r  c #0A5751",
"t  c #0A5754",
"y  c #0A5954",
"u  c #0A5A56",
"i  c #0A5B56",
"p  c #0A5B57",
"a  c #0A5D56",
"s  c #0A5D57",
"d  c #0A5D59",
"f  c #0A5E59",
"g  c #0A5D5A",
"h  c #0A605A",
"j  c #0A615B",
"k  c #0C605A",
"l  c #0C605B",
"z  c #0C615B",
"x  c #0A645E",
"c  c #0C645E",
"v  c #0C6660",
"b  c #0C6863",
"n  c #0A6A64",
"m  c #0C6B66",
"M  c #0D6B66",
"N  c #0D6D67",
"B  c #0F6D67",
"V  c #0F6E68",
"C  c #106E68",
"Z  c #10706A",
"A  c #11706A",
"S  c #11716B",
"D  c #13716A",
"F  c #13716B",
"G  c #14736B",
"H  c #14736D",
"J  c #16746D",
"K  c #16746E",
"L  c #17766E",
"P  c #177670",
"I  c #197770",
"U  c #197771",
"Y  c #1A7871",
"T  c #1A7873",
"R  c #1C7A73",
"E  c #1D7B74",
"W  c #1E7D76",
"Q  c #207E77",
"!  c #218078",
"~  c #238078",
"^  c #23817A",
"/  c #24837B",
"(  c #26837B",
")  c #26847D",
"_  c #27847D",
"`  c #27857E",
"'  c #29857E",
"]  c #2A8780",
"[  c #2C8881",
"{  c #2D8881",
"}  c #2D8883",
"|  c #2D8A83",
" . c #2E8A83",
".. c #2E8B83",
"X. c #2E8A84",
"o. c #2E8B84",
"O. c #308B84",
"+. c #308D84",
"@. c #318D85",
"#. c #338E87",
"$. c #349088",
"%. c #36918A",
/* pixels */
"* % $ $ $ $ $ O $ % & + O O O O O # $ . # % % % * & & % % % $ $ O O $ % & % % $ $ $ $ $ $ $ + o O X X O O - 2 1 2 2 2 2 2 - = * ",
"u y y w 7 8 6 3 2 : 6 d r 5 5 e 5 8 d : = 6 8 0 y g z c c v c x h i e w q 8 8 8 7 8 8 7 6 5 4 5 4 5 6 8 8 q r y u d p p p p d p ",
"p y u c m Z H Z b b m m N C c s d e d 8 % - 3 5 e d n V L I P H K P P P R Q ! E Y I F N m m n b c d u r r r u d h z v c c v c j ",
"z b V F K I E ) [ [ ] ] ' ^ H H n n y r * 4 d Z Z F H P _ | O.O.O.O. .O.| } | | } [ ] ( ! R L H C m b v c v c z z d p r e e e p ",
"4 4 4 4 5 4 6 e d v b v v b c m h b w p $ 3 8 p p k v n Z F L I Y R E W ) ] ' ) ) ] [ [ ] ] ] [ | O.@.O.] _ ^ W Y F F c y 0 6 5 ",
"P Z N b m z u 9 5 5 5 5 4 6 6 0 7 0 y r % 4 6 0 i p u 0 0 q e y p z v b b b N C F H H L I Y U Y I Y R E ! ! ^ _ ' ] [ ] W R T U ",
"W E R E ! ^ Q ! Q Q R Q ^ W F Z m c n 7 $ - : w y r u h b n c d e 7 e u h c l k v c z d h z v b v v b b N A I W ^ / ] } [ _ ^ ! ",
"W ^ _ [ _ ^ W R I Y L H m n V A Z p j 6 # > 7 r - r e b P H F A n y 8 0 e d N A Z N b b b n n b b z d u y y y u p h b C K I I R ",
"h c h z v m J J c c v b c v b n v e d d $ 4 e h 6 e 6 c Q X.| ' E I c c h v v V K L H A m m A F H K V n h z d h z u r e 0 r p z ",
"y c v m m n N Z V v v v N m Z V b p d 8 O : 6 h d p 6 0 j I ) [ [ m 5 u n C P Y Y E E R Y E ! ! ^ ' ' ] ` Q W ! ^ W E E Y F V c ",
") ! L C v z b n N b b n N V N N n u i 4 $ * 5 y h g p y y p h v d e e z m C A H J I I I I E W ^ ] [ [  .@.O.O.} | | X.O.| [ ' ` ",
"z z z c v d d y r e y h m n v b u u y r $ - = 5 y c u y d b N F K K Y Y Y R _ ' _ ^ Q R Y J J R R J F B n c p u u y y p d h h d ",
"N Z K P K H V N S K K V H V b y p g r d * 4 5 - 2 e v n n N A A H J H F F H A F L I J L L L L Y E W Q Q E Y L J I E Y L N n v m ",
"H A P P K V b b z g h z e 6 8 r r u r w % 3 0 r r y d z Z R Q ! ^ / / ^ Q Q W W W Q Q Q W E R I L J J I I P R R E R I I L P Y I ",
"p i i e q 0 8 7 4 0 w 3 3 3 5 3 - : = $ @ = : , , 4 5 6 6 6 7 8 q e r r y u p p d h d f z k p d h v n N N N N N N N n v h p p h ",
"O $ $ % $ $ * = : * + O % O O O # O X . X O # O X . X X $ % % @ $ % % & = * & & * = = - : - - - - - : 3 = * * % & = - : - & % O ",
": 3 4 6 7 r p u p p p p d d d h h z z c c v b b b b b n b n n n n m n n v c h p y e 0 8 7 5 5 6 5 4 5 7 0 e r r y u u r 0 5 : X ",
"8 5 0 d h n C H L Y Y R R Y Y I Y Y Y R E W ! Q ! ! Q W R R R Y Y I L L L L L J H K P I I P H A N b c v N Z S Z F H K F m u 6 O ",
"6 0 u c c z j h h p p i p d v B B A F F F F H H K L I L H H Q ^ ^ ^ ! ! ! Q W W W Y W W E W R E Q W Y P K F A H Y Y I K K V i $ ",
"8 0 5 4 5 4 3 3 2 3 4 6 6 7 8 y z N G H F C m b z p e 0 7 7 6 6 6 5 4 4 6 7 8 8 0 e y i u h u d z b m H I R Q ^ ! Y J I E m i * ",
"5 0 5 4 6 7 0 e u d c n V Z H H H H H K K K Y Y R I I L F n n n n b b v c z g p u r r 0 0 7 6 5 4 3 > : : 4 6 e d v c v v m u & ",
"4 r u d c b V P Y R W ) ) ^ ) / / / / / ^ ^ [  .] / ! W Y L L J F Z N V V Z Z A F Y L I Y L J F V b d i w 8 7 5 6 6 5 8 r c 5 + ",
"7 u d j z z c v c c n A A F J L Y Y Y R E E ( [ {  .@.$.$.$.$.O.| ) Q E I H A F I W R I L H G J I W Q ^ R v z h h h h V V H u % ",
"* 8 u r r r y p p h c b b b b b b n n m N N V Z Z A F F K K Y R W ) | [ [ ^ Q E E E W Y K K H A m c h u p h c v b v u p b V e % ",
"8 y d p p y r e e e r y y y y u p p d d h z c c v v b b n N V F H K R Q ) ] ) ^ Q R R R Y I P P I R E E R L K H Z V V n v v 7 & ",
"O - 4 5 4 4 4 4 4 4 6 7 7 7 7 0 e r r y y i i p d h j c c c b n m N V S F P R E ! ^ ) ] [ ` ) ^ ! Q W E R R R E E E E W K m h - ",
"- 5 7 r y u y y y r y y y y y r r r r r r r r y y y u p p d h c c b n m m n n n n m V V K H K I R Q ^ _ ] [ ] ] ] ] ` E K e : $ ",
"8 r y p p d d p p d h h h d d p u y e e 0 8 8 6 6 5 4 4 4 3 3 3 3 3 4 5 5 7 7 0 r u d d d d s i a p p p p h z v c c d u e 4 - & ",
"0 y y 0 6 6 6 7 6 6 6 6 6 6 5 6 7 6 7 8 0 q e y u p d d p p y r e 0 7 6 4 4 4 5 5 7 8 w e y i d h j c h d i y y r r y y y i y 8 ",
"8 y r e 0 0 0 0 0 0 w e r r r r y y y y i i p s g g h h z c b b n n m N V V V V N N m m n n n n n n n m n b b n b b b v v v v p ",
"6 e r y 0 0 e w e e r r r r r r r y y y y y r r r e e 0 8 8 7 8 7 7 7 7 7 7 8 8 8 8 8 8 8 6 5 6 6 7 5 5 5 4 4 4 4 4 4 5 5 6 6 : ",
"$ = = - * & & & % % & & & & & % * * * & & & % % $ O X X O O O O + O # # O O O O $ % % % # O O + + O X X X X X O $ $ $ $ $ $ $ X ",
"i p r 0 u r 0 6 4 = * = r c v b b V N b v z c b b v v v c v c c z h d p r 7 4 & % - 6 8 0 8 7 7 5 - * * 4 y y e 5 2 : 4 3 : , 5 ",
"0 i h b F F S Z b h u 0 8 8 0 0 r d N H K | ] _ / W R I I P H K H K L R W K b e $ - 5 8 u g p h v d 0 2 - 6 v V m h r 0 r y 8 6 ",
"d i e 8 u z n K ! ! R P V b p 7 3 : 4 6 r N L ^ [ o.O.@.@.X.| [ ' ^ W L m h p 2 4 2 5 6 0 e h n n K E F c q 8 p m S H V c u r p ",
"h p j v c d r p h m L ` o.^ Y I H v r 4 - - : 5 8 i c n F I E Q Q E R V z h g 8 r z z r 0 8 e p v N K Y ! E F m d p v Z P R Y V ",
"^ ! I m v m V m c h d z m F !  .[ ) ! I Z c r 5 - * = - : 4 7 e u h b V m b h r 5 y v N b c j p u i j m Z L Y ^ E V v v b V H R ",
"H L E / / E P F F H Z m c z c b Z I ' @.@.] ^ R H N d q 4 - * * * * = - 4 4 : $ 5 e s m F H F V v c c h h b V H R ! / I b c N F ",
"c m F K Y E ! ^ Q R I P I P F N v c v N K R / |  .O.[ ) Q L V b h u e q 7 7 6 & - 5 0 y z n L E I P N b b n b b N H I E / ^ H b ",
"Q F v z b Z H Y W ) [ / E E Y R R Y P S m v c b N S F L E Q ^ / E R K V b v c u ; e e 6 6 7 e d c m V H K Z m n n n Z K Y ! _ ..",
"] | ) I A N c v m H E [ #.$.] ! E E W E R Y P H Z n b b m N V V F F F N z d y 4 % r d j h y 0 7 8 0 r u z n Z S V N m n N K E ) ",
"H E [ o.[ E I H V b v b Z Y W ` o.@.X.) ! Q Q W R Y U P H V n b n N V V m d y 7 O 5 0 y c Z L F v u e w r y p h n V V n c c v m ",
"v b V L ) +.o.^ Q Y K Z N b b n V H Y ! ] [ ] ^ ! Q E W E E E R Y P K K S n g 4 O : 8 6 6 6 u v H Y L N n c h h h h j v m N N n ",
"F K H S Z H R ) | ` ! W E I H Z V n v n N Z H Y W Q R E W Q Q Q E R P F N v h 5 O * 4 0 z m r 4 : 6 p n H A Z b v v n n b c n Z ",
"m m m V Z F K K Y E ) @.| ) W E I P K V v z z v v n V F H A A V V Z S V V n c 5 % 3 d h h v F F c r : - 1 7 u c b n b b v v b n ",
"j h d h v n b c z b m Z I ! o.%.| ^ W E K S m c v v n b n N Z Z S S S m b v h 6 & : w r h c n H E ^ L b 8 6 5 5 5 7 r d d h h h ",
"7 5 6 8 8 0 w e y p i y e 8 e h b H R I V Z Z F A m n m N m m m N N N N b d e - & 7 y d d j c v n F R ! ! I V b h y 0 8 8 7 6 7 ",
"* = = * % O O O % * = = & % $ & & * = * : 2 2 2 2 2 2 2 2 2 2 2 2 2 : : 2 : - $ X & * * = * & & * * : 5 0 i h v v z p r 6 : & & ",
"u d h w p r 8 8 7 5 * % 3 0 0 q d z v b z y y u y r e 0 8 7 6 6 6 6 0 r r r d h h d p u r r e e r i y e 7 q 0 8 8 8 7 7 6 6 8 e ",
"n m n c z n c v V v 1 + e p N R Q ^ / ' ' _ ' _ _ ' ' ] ` ) / ! W E I Y R R W P L I R Y E R R Y Y U Y I I I P K H A N N n m m m ",
"8 u k v m F ~ @. .E r X e d n H R E E Q ! Q E Y I K F V V A W ( _ ' ] ] ' / ! L L L L F B c h p p y q 8 8 7 7 6 7 7 7 6 6 6 6 7 ",
"y p d p u p u h m m v X 0 y b N F F N n v v b n V Z A F F F A C N n n n v z h h u u r q 8 8 8 q e q q e r u y u p u p p i i u r ",
"I L L G n z b k u z y X * - 6 7 8 e r y y y y q q 8 7 6 5 4 4 5 6 7 6 8 q u y u t i h z c m F H Y R ! ! Q R Y I I Y Q Q Q W W R ",
"n n N Z V b n h e j y . e r p i e p p p p d z d z h z c h p d d d h z z v n n m M n z z d p u e e e r e e e e q q e d k c v m N ",
"6 6 8 e r u p p d p p . 4 0 v n n n m N m c z v v c d v z j g p u r r r y r r r q 8 7 7 7 8 8 8 7 6 6 6 6 6 5 6 7 8 8 8 7 6 4 6 ",
"4 4 2 4 4 6 q r u u p . 5 w v V Z A H F F F A F J J L I Y Q ! ( R E L K F A C B m b v z z z h d h d h z z c c z d i u y e 8 6 5 ",
"6 6 6 6 6 5 4 2 4 7 7 . 4 p V E W Q ( / ) _ ( ` ..@.#.$.@.] ! Y F M b b z h z v v c z k u r 9 7 8 e 8 8 7 6 6 6 6 5 5 4 5 5 4 5 ",
"& & & % @ % * = < 5 4 . & 5 z v v A J Y E ! _ / ! E J m z y e 0 8 7 7 6 6 6 7 5 4 3 < - ; - - - 2 4 4 2 2 2 ; = * * & & & * & & ",
"d d f h g u u q 7 5 - . 7 p v m L R R L F m c d d r 0 8 0 8 8 8 6 5 5 < 2 4 2 2 2 6 7 e e e q e t p k z v b v z h u e r r p u d ",
"h k v b b v c c c b e . 5 r c v N N b c p r e 8 8 8 7 7 7 8 q r r y d h z v v n m N m A C A A H H H C V N m n n n N n m D B v d ",
"F F F C M m v m N c 5   5 y v n v u r r 0 e e r y u u d c c h z z d p p p p d j h h p p u y y y r r y y y u p d h c z z c c b V ",
"y u y r y p u p p r :   e r d z v h c b b v v v v v c c z z j d d u y u r q 0 0 e r s h h h z h h g p p p p u y y y y p p h d u ",
"6 5 5 5 6 6 7 6 5 3 %   0 0 e w e e 0 q w 6 4 2 2 - * * * = = * % @ % % % @ % % & * = - 1 2 3 4 3 3 3 4 5 6 6 6 6 6 7 6 6 6 6 6 ",
"X + X o + + O X X X .   % $ O O O $ $ $ $ $ $ $ $ X                                 . . .   . . . . . . . . X + @ @ + + O + + O "
};
