/* XPM */
static char *result[] = {
/* columns rows colors chars-per-pixel */
"64 64 18 1 ",
"  c #3E150C",
". c #42160D",
"X c #46180E",
"o c #4D1A0F",
"O c #521B0F",
"+ c #581D0F",
"@ c #561D10",
"# c #5B1E11",
"$ c #611F11",
"% c #5F2011",
"& c #632011",
"* c #6B2213",
"= c #732513",
"- c #7B2614",
"; c #7F2815",
": c #812715",
"> c #832915",
", c #8A2A15",
/* pixels */
"X... .....X. . .  .  X..XX.X....  ............... . .XoooooXoXXX",
"##@@@@ooooo%@oo@o@%XX@@@@#%#%&&%%#@@@@@@O@OOOooooOOO@@@@@@######",
"####&***&&&&**%%#@%o Xoo@%&*===***=*=--===**$$$&&%@@@@@#$$$$$$$#",
"#$***==:>>>>;-**&&@@Xo#*****:>,,,,,,,,>>>,>---==*&&&$&&#$##@@@##",
"ooooooo@#&&&&&&&%&@%.oO##%&&***====-;::::>>:>>>,:,,,>:;-=**&#@oO",
"=**$*$@@ooooooo@Oo@@.ooO@#@@@@@##%&&&&****=========---;::>>>====",
"-===----------**&%*o ooO@@##&*%#@@@@%%%%$$$$#$$$$&$&**=-;;:>>;;-",
"--:,;;-====*&&***#%o oO@o@@&****$@O@@#****$$$$$$&$##@#@@%%&*====",
"#%$#&**=&#&&$&&&%@## oO%o@o%->>>-=$$#$$*=***$$==***$####%@@@@#$$",
"#&&&&&*&*&&$*&&*&%#@ oO#%#oO%=>>>$O#*====-=-==:->>>:>--;--=-=$$$",
";-=*&#%&&&&&*&**&@%X Xo@%##+@##&#@@#$$**======-->>>,,,,>>,,,>>>>",
"$#$&&#%%@###&&&&@@@%XXXo@%###&**=====-:>::-=======***$###@@##$#$",
"&**=*********&&@%@@%.oo.o@%&&****==**=$===$======--=-=**====$$$$",
"=*=***&&%%%%@@@@@%@o oO%@##%*=----------=------======*-========-",
"###@%oO@o@@oooooooX..Xooooooooo@@@@@@@#@###$#$###$$*****$*$$###$",
" ......XX.. ..  .    .      .......XXXXX.XXXXXXooXooX..XXooXo.X.",
"XooOO@@#%##%#####&#$&$$$&&&$&&&*&*&*&%%%@#@@o@oooooo@O@@@##@@oX ",
"@o@#%&***==========-=;----;--=====**=*******=****$&&******=*&#o.",
"OO@%%%%%%@@%##&*****=**=*==***--;;;;;----=-----=-==*=***===***% ",
"OOoooooooooo@O@@#**=**&&##@@@o@ooooooooo@@@@###%&&**==-;-=*==&%X",
"o@oooo@@##%&******=*========**&&&&&%%%%%#@@@@ooooooXooo@%&%%&*@.",
"o@##&&**==-;;;;;;;;:-->>>:;-=*==*********=====***&##@oOoooo@@%o.",
"@@#%%%%&&%&****======-:,,,,,,,,,>>===***=-===*=*==;;=&&#%#%***%.",
".@#@#@@###%&&&%&&&&&*&******====->>>>;--==-==***&%####&%&%@#%*@.",
"@@##%@@@@@@@%@@@####%#%%&%&%&&***==;;>;;===-=**====-==*****&%%oX",
" XoooooooooOoo@@@@@@@%###%%%%%&&&&****==--;>>;;-;;====-=====**%o",
"oo@@@@@@@@%@o@@@@@#@@@#@@#@#%#%%&&&&**&&****=*===--;>>>>>>;-*@XX",
"O@@#O%%%%@%%%%%%#@@@@o@ooooooooXooooooOO@@@@%###@###%&%&%%##@oXX",
"O@@@oOoOooooo@oo@o@o@@@@######%@@oooooooo@@@@@##%%%%#@@@@@@#@#@@",
"@@@@@@@@O@@oo%@@#@@#@@#%###%%%&&&*****&***%**&&&&&&&*&&&&&&#&$%#",
"o@@@O@@@@@%%%%@%@@#@##@@@@@@o@oooo@o@oo@oo@ooooooo@ooooooooooooo",
" XXo.... . . . .X.XX......   . . X      .X...........    X XX X ",
"##@@@@@ooXXX@#&&&***&%%%&%&&%&%%%%##@@oX.ooO@@oooXXXoO@OoooooXoo",
"@@#%****&%@@@@@@O@***>>>;-====***====*%@.XoO#@#%&%Oooo&**%@OO%Oo",
"#@@@%%&*;--*&&%ooooo@*=->>>,,>,>;;-=&%%oooooO@%&**-*%@o%&***%%%@",
"##%%%%@#%&*;,;=**%@oXooo@%%**==-;==*%%%o@%%O@O@@%***;=*&%@&**=**",
";;=*%&**%%%%**;,>;-=*%@oX.XXooo@#%%**%%@o#&*&%%#%%%***=;=*%%&**=",
"**=;;-******%%#&*=>,,;;=**%@oo.X..Xoooo o@#*****%%%%%%**=;;=&&**",
"#***==;;;=**=***%%&**-:>>,>;-*&&%#@OOoo.Xo@@&&*=***%%&*&**=-;;*%",
"-**%&***-;,;-==*==***%&&***==;;;==**&%%%X@@o@@@%%*****&&&&***;;,",
";>;=**%%**=>,,>;=-===*=**&&&**&****&@#@oX@#%##@@OO@#%&*****&**-;",
"*=;,>-***&%&*--;,,>;;;--=**=***&*****@@@.o@@#***%#@@@###%**&%%%&",
"*%*=;,,;-*****%&**=;>,>;----=*====****#@.Xo@@o#%*-**&&##%%%%&**&",
"******-;,;;=*=***&&&****--==--;====**%#o.Xo@#*#oXo#&****%&&&%%&*",
"%*******=-;,>;-==***%%%%&&***********%%oXX@%%%**%OoXoo##%&&&&%&&",
"%#@#%*#*%%**=;,,>;-=***%%&&$*$*****%%%%oXX@@#%**--=&@oooo@@%%%%#",
"@oo@@o@@@##@@o@#**==*****&&&&*$******#@XX@@@#%%%&*=;-**&%@OOOooo",
"XXXX....XXXXXX.X.XX....XXXXXXX.X..XXXXXX..XXXXXXX.oo@@#&&%%@ooXX",
"@@%o#@OoOo..oOO@##$$$**&$####O@@+++#@##$$+$+@@++@#@@O@O@@@@@O@@@",
"***%&&%&*&o.@#*=-::::::;;:>>>>;--=====-*===-===========$=$$$$$$$",
"@#%%**;,>=@.O#&*------====***$-:::,,::-====$$$$+#@@@@OOO@OOOOo@@",
"@###@##%*&&.O@&*$=$$&$*&****=$**$$$$$$$$@@+@@+O+@@@@@#@@#######@",
"=*==&%&%@%@.XXOo@@@####@OOOoOooO+OOO@#+$+$$$$$=*==----====-----=",
"&&&**&&%O%@ @@##@$$####$###&####$#$$$$$$$$$$$+++@@@@@@@OO++$$$$$",
"@@o@@@#@%##.o@&&$$$$$$$$$##$&####@@@@@++@OOOOOOO@OOOooOOOOOOOOOO",
"ooooo@@@@#@.o@%*$====$=$=====-;;======$*$$$$$$+$###$$$$$$+#+OOOO",
"OOOOOooooOO o#*=:::;;:::,,,,,::=$=$$$$$$$$$$##OOO+OOooO@ooOooOoO",
"...XXXXoooo .O$$$$===;:::-=$$++OOOOOOOOoOOoXoXooooooooooXoXXXX..",
"######@@Ooo O#$&====$$$##+OOOOOOOooooOoo+O+#++++++$$$$$$$$+$+$$$",
"#$&&$$$$&&O o@%&=$$$$##@OOOOOOO+@+$+$$$$$$$$$****==$=$$$$$$$*$$+",
"*****&&&*$o o@$&$@@#@@@@++@#$$$#$+$+++$$$###++++++++@###$$#$$$$$",
"####@###@@X @##%$#$$$$$$$$$$$$#$++++@@OOO+####$#$##@#@@#@@@#$#$$",
"ooooooOooo. @@@@O@@O@OoXoXo..............XXXoooooXoooooOOooOoooo",
".. .......  .... ......... .......  . ..  .      .... .........."
};
