/* XPM */
static char *result[] = {
/* columns rows colors chars-per-pixel */
"64 64 63 1 ",
"  c gray14",
". c #252525",
"X c gray15",
"o c #272727",
"O c #282828",
"+ c gray16",
"@ c #2A2A2A",
"# c gray17",
"$ c #2C2C2C",
"% c #2D2D2D",
"& c gray18",
"* c #2F2F2F",
"= c gray19",
"- c #313131",
"; c #323232",
": c gray20",
"> c #343434",
", c #353535",
"< c gray21",
"1 c #373737",
"2 c gray22",
"3 c #393939",
"4 c #3A3A3A",
"5 c gray23",
"6 c #3C3C3C",
"7 c gray24",
"8 c #3E3E3E",
"9 c #3F3F3F",
"0 c gray25",
"q c #414141",
"w c gray26",
"e c #434343",
"r c #444444",
"t c gray27",
"y c #464646",
"u c gray28",
"i c #484848",
"p c #494949",
"a c gray29",
"s c #4B4B4B",
"d c #4C4C4C",
"f c gray30",
"g c #4E4E4E",
"h c gray31",
"j c #505050",
"k c #515151",
"l c gray32",
"z c #535353",
"x c gray33",
"c c #555555",
"v c #565656",
"b c gray34",
"n c #585858",
"m c gray35",
"M c #5A5A5A",
"N c #5B5B5B",
"B c gray36",
"V c #5D5D5D",
"C c gray37",
"Z c #606060",
"A c gray40",
"S c #6A6A6A",
"D c #6C6C6C",
/* pixels */
"799tuyeeq67>,21wfyyyufduye443<9trqeqfeuadljke5>-40dkxxmbfteq5*%-",
"99ffiteee673:3,qkyyypfiyt932;=17qw0quryaskkke5<&10iljNfase95=$:4",
"7skpytyegw54-1>qzuyudfau72>-:65117q0ieetskhle52%,9tsgpiw94>%$;58",
"acauytpfkp73:,,5zpycBlu7,:*;9ttw7357ukheissjw61#:9tyyr8,=%@$:587",
"kguyytabzs94,::3fbBjt8<-:,<8uyyytq2579fNlfsa95-+>9ee9<*$@#%>47we",
"spuyyyybni051-&19ere5;-1170tuyyyyt93455wspye3-OO-33:&%&$@&:55q0z",
"suyyyyikCy875;%-6q91*-552t0ayyyyyytq62,17we8=++%;%OXO#=$+$:55qet",
"pyyyyuffVt996:---,<;;771eqpuyyyyyyysfe5*153,=*178;+o+#%+XO-369uy",
"tyyyufsuNe971-,>-$=,1415rpsyyyyyyyyahe9=-1:>13qeq51:1$#O..*158ae",
"tyyigfhxh71-%%,*;:;;=15uehayyyyyyyyuv96=-,357qtttetq87=#Oo#;18sp",
"yyphxbky5-%$*,1:*<>$#:urkdpyyyyyyyyyfe2$*3899tyyyyyyewe1*@O#&3fg",
"uyhjft9,%#*:1563;*>%+*uuafpyyyyyyyusae1$-399wtyyyyyyyruu7:@O#-ql",
"gpgeq3*##-,17q783-*,;*rddhpyyyyyyupffq,=;17qrtyyyyyyyypeu3:#O%1g",
"ssq7>$+*12>5qre873;*;*0zshpyyyyyyupzhq,&-,7wttyyyyyyyyiuy92:++-7",
"595,&@*2979ttyt0874-*%2zhhutyyyyyisjpw<$-:7wtpuyyyyyyyuis084%@*,",
"<2>&#&199puiiuytq796;#*ipgutyyyyupvs07=%-,5etapiuyyyyypdje77;#*>",
";-*@#39thsttyyytyae96*#19uittytttffe81-*,,19tudsiyyyuifjke02-%*,",
";%OO>ukspyyyyyyytahq03%&>7ttqreruyt03,,*,1>4eyassiyuahhlseq<%=*>",
"*@o*7lxypuyyyyyytpcgq01*>17q9tpuyu91>54--::<8rufssuajlhkie0:=-*-",
" X@2eNduiyyyyyyyushbuq91=:77etiu95,,5qq5<;->19fffhgfghhhuw5-:;&+",
" o&4gzssiyyuuuyypgkzu0951-;875531:<7eytq55,-,28slzjdjhpauq1&>-+ ",
"$%*3fxhfiyyipuyushjdk9954>*,::>>-19espyt977<-,39dzsffhjpw5:*>#X.",
"7-%<qchspuupuyyiflhfmq8421=-:=*;49eaduuur877:-137dahcdtq73***XX#",
"e,#-3kjauipiuuishlgnz976,-%-1::49eajpuipue675->24qhdyr953-$=$O&<",
"t7%@=0spuiaapaisgkZf073:#@*162<7rfxsuuppuue091:,25ete72,*%==&-4q",
"kr2#+=yuypaspuutdxw62;&%o#<53119hkhpyyiuuiueu55:,5673,-%**-><9hk",
"agw,@O,rtyutwdjd93;*&%-<*#>5333wzffpyyyyuagujq63-13,;*$%-:>3ehgp",
"psi0,++1qtw711,-%+OO@:7q3%*5234qjfhsuyyyupdpja973;1,$*&:513wfpsa",
"yaay9:O@>3,-*$+XXO%:39ew9:#:3217hdhauyyyupsflku971-**-2735wtpguy",
"yyuae6-+O@OoXO@$=17sstttq7*$,1<5uissuyyyypagllsiq4$#=1736eupsuyy",
"yyyur93&oXO$&=:27ukiyuusre1%*,>39sipuyyyyuifkhdhp5#@,428ryppyyyy",
"yyyte81-%$->:>5wfbpuuiuiar9,%*;,4ypttyyyyyisdsgfa7%@,39tyyyyyyyy",
"yyytw5:;*=,::1wiVpyupaaupdq5-#*-19fttyyyyuudupcu5>##,qtyyyyyyyyy",
"yyytq731*&=:,3eagyyyupspdkt91%%*:3wpytyyyuuytew05*O$19etyyyyyyyy",
"tre0777,=%:<25wafyyyyupskhzu7>*&=<4ttttyyytw9753;$O;238etyyyyytt",
"9999541,,-*-36wpgyyyyyifkgkst51&%=29sttyyq741>;::,%&3129rtttteeq",
"0962:-$%-1&&159uziyyyyudlhzj076;%%-5qfpu8<>-->2559<$:4316qq00qqq",
"5<-%+O#*,52*=,7whdyyyyyfkzNt797>=-*>563:*->1359e077**<31,379qq99",
"=#@%%-579q9,=*27yftyyyijlMhe998;-=&%&$%&-27589etr881&:353<397765",
"#&:-2qte0095,%-5qqetyypzMzsq75,%*-*=%o+;3579apstte76;*1634114433",
":3<3qtytqq953*@:8qqttyhzjr0631&&;;=*-$#:357pzptyyt073**3963,2451",
"319ttyyyte948,@%5qqquhpr05331*$-;-=&;:#*37eczuyyyyy95,#*503;1213",
"10uyyyyyipq578*O>6qup9741,>*$@*;-;,,,<&=49dSzsuyyict74:%:4,:>:<1",
"qipyyupipdgr091#&12752:***%%&&&=,47535=*<wzAkhpyyydkw75=$-:>:,,6",
"tipyyupspafhsq5-**&-*%$#%=-:-*:39uiq72=&,tfAkzpyyyibi07:@%:::10r",
"yuuyyyufdpugjt9,*@oo%&&-:,,,150wisyt03-#,7uDcbpyyyyxfe6,%*>23qty",
"yyyyyyudhiufkuq6*oXo#,1>,,,3wyuasyyue5:@-4qzVcsuyyyjjr76:*>79wty",
"uuuyyyisgpphfpq0-+#+@;:;;,7sppksyyijdw1$*38qVkpyyyyssw681%,970wt",
"ppiyyypppsghsp85#@@o.X&*,7iiufauyyyjdd7>%189fZayyyur0954,&*<68qr",
"upsyyupppflfpu4:O@XXXX+*5qprefpyyyyazsr2&,889sVuiuq764>-:,-%:290",
"eshuyyppuflasq1-#$@#%%#-39qupkayyyyaams5-:556rfhy753>=-,47<#$*>5",
"8uffyypppjkiq51###=-,1*%:58sshpuyyipyff5,&-,499721>=-:570q7=#%&*",
"79dkpypaaklt85>+#-,145,&*15psdpuyysutst31*$#%-,:-*-,378ettq4%%*-",
"350xayifhzsq62%O%:198882**,qusiyyppyge7,=%&$Oo+%*>4670ryyuy91&%-",
"*,5thjfjcdw64-+O*19ydshq4*&:9tyyyspgp1;%%->1:%#*3668wttyyypt9,*%",
"+#;3qkgfaw852%@&19eujdfuq5-%4tetastq:-&=269875>&369etyyyyyiut8,-",
"$@+&8qejq951=#*<7ercppgkw91=-7afp8;=--;5qqq9792%17eyyyyyyyupat9,",
",:%O=29971>*%-13weigipsxje5,:*275**;129psitq781#,9yyyyyyyyypfyt9",
"731,-=-;-=--1219etyusggsxy933,-*%%,60asyustq871#<0huyyyyyyyajuyt",
"q5673:->152>5<4ettyusklpldw75,%#%:79ryyyyhaw85,#10xuyyyyuuspkiyt",
"03>1557775>-,,8riyyypllfsf06:%*--38rtyyyysku95:$10xpyyusfhfulpte",
"2-:89qeq73*$$,8tsyyyizzhua81&-2:19ruyyyyuazp95=%4qxduufkhgpslyew",
"%-79qrrw77;$+=5tsyyyugxjyu7,*:;:9ttptyyyifkf92%%6qzddshhdsgkuwq8",
"*780ttee973%%#-wdyyyuazsyt52-%-7eerputyuphhh0;O&59dgjdhlksptq73:"
};
