/* XPM */
static char *result[] = {
/* columns rows colors chars-per-pixel */
"64 64 188 2 ",
"   c #2E160C",
".  c #2F190F",
"X  c #31170D",
"o  c #35190E",
"O  c #3A1B0F",
"+  c #351B11",
"@  c #3C1D11",
"#  c #362017",
"$  c #3C2115",
"%  c #372119",
"&  c #3B2319",
"*  c #411F12",
"=  c #41200F",
"-  c #442113",
";  c #4C2415",
":  c #4E2815",
">  c #43261B",
",  c #4C2718",
"<  c #44291E",
"1  c #4D291B",
"2  c #522616",
"3  c #592716",
"4  c #532917",
"5  c #5A2917",
"6  c #522718",
"7  c #542A1A",
"8  c #5C2C1B",
"9  c #5E301E",
"0  c #632E1B",
"q  c #6B2F1A",
"w  c #64321E",
"e  c #6B321E",
"r  c #73321D",
"t  c #7B341D",
"y  c #452C21",
"u  c #4B2E23",
"i  c #512E20",
"p  c #592F20",
"a  c #4E3125",
"s  c #533225",
"d  c #5B3323",
"f  c #54362A",
"g  c #593729",
"h  c #57382C",
"j  c #5A3A2C",
"k  c #5F3E30",
"l  c #653421",
"z  c #6C3621",
"x  c #643B24",
"c  c #6D3923",
"v  c #633C2C",
"b  c #6A3C2B",
"n  c #733721",
"m  c #7A3621",
"M  c #743B24",
"N  c #7C3C25",
"B  c #763E29",
"V  c #793F29",
"C  c #603F31",
"Z  c #73442A",
"A  c #7C432B",
"S  c #7E4A2E",
"D  c #654233",
"F  c #6B4535",
"G  c #6B4738",
"H  c #6D493A",
"J  c #744831",
"K  c #7B4D32",
"L  c #734C3D",
"P  c #7F5135",
"I  c #77503F",
"U  c #78503F",
"Y  c #744F40",
"T  c #765041",
"R  c #7A5343",
"E  c #7F5847",
"W  c #7F5848",
"Q  c #82361F",
"!  c #84381F",
"~  c #823720",
"^  c #843B23",
"/  c #8C3B23",
"(  c #803F29",
")  c #8A3E29",
"_  c #943D25",
"`  c #993F26",
"'  c #923F28",
"]  c #983F28",
"[  c #864126",
"{  c #8A4327",
"}  c #83432A",
"|  c #8C462A",
" . c #834B2E",
".. c #8C492D",
"X. c #9B4027",
"o. c #92442A",
"O. c #9C4229",
"+. c #944A2C",
"@. c #9B4D2E",
"#. c #844C32",
"$. c #8C4B31",
"%. c #934D31",
"&. c #9A4E31",
"*. c #855134",
"=. c #8B5336",
"-. c #855639",
";. c #8C5739",
":. c #8D5A3D",
">. c #945237",
",. c #9D5234",
"<. c #96543A",
"1. c #9C5539",
"2. c #935B3C",
"3. c #9C5C3D",
"4. c #A3452B",
"5. c #A9472D",
"6. c #A6482E",
"7. c #AC482E",
"8. c #B04A2F",
"9. c #A04D31",
"0. c #AC4A30",
"q. c #B34C31",
"w. c #B94E33",
"e. c #A35434",
"r. c #A95736",
"t. c #AB5837",
"y. c #A35739",
"u. c #AA5738",
"i. c #A5593B",
"p. c #AD5B3A",
"a. c #BD5035",
"s. c #B15D3C",
"d. c #B4613F",
"f. c #C25237",
"g. c #C45438",
"h. c #CA563A",
"j. c #CD583D",
"k. c #805747",
"l. c #835847",
"z. c #845A4A",
"x. c #8B5E4D",
"c. c #915F41",
"v. c #AC5F40",
"b. c #8E604F",
"n. c #956344",
"m. c #9A6645",
"M. c #9E6947",
"N. c #986648",
"B. c #9C6B4B",
"V. c #8E6150",
"C. c #926352",
"Z. c #986756",
"A. c #9C6A59",
"S. c #A36443",
"D. c #AE6143",
"F. c #A46947",
"G. c #A16D4D",
"H. c #B56241",
"J. c #BA6644",
"K. c #BE6846",
"L. c #BD6A49",
"P. c #A3704F",
"I. c #A06C5A",
"U. c #A47352",
"Y. c #AA7654",
"T. c #A77857",
"R. c #AA7957",
"E. c #AC7C5A",
"W. c #B37A57",
"Q. c #C06A47",
"!. c #C36D4A",
"~. c #C6714F",
"^. c #C9714E",
"/. c #CD7552",
"(. c #D27956",
"). c #AF805D",
"_. c #B1815E",
"`. c #B48562",
"'. c #BC8761",
"]. c #B68965",
"[. c #B98B66",
"{. c #BB8E6A",
"}. c #BE926E",
"|. c #C3946E",
" X c #C19570",
".X c #C59A75",
"XX c #C79D79",
"oX c #CBA27D",
/* pixels */
"8 8 8 7 8 8 7 6 * * 7 4 2 : , 6 , , 6 6 6 6 4 8 7 4 8 7 7 7 1 1 i i i i i 7 i 1 7 i 7 p 8 p 8 4 6 4 8 l 9 l 9 0 p 0 p 9 9 0 p 9 ",
"M n z z n z p 7 * ; z B M V B A A V V A } } B n l 4 u s h g h h h h h h g h h h g g g C v v p 3 ; 2 q N N M B z z z z z M B B B ",
"4.O.' O.4.' r 0 6 5 N +.1.H.L.H.J.J.J.J.H.D.&...z 2 i C H Y Y L Y Y R R Y L L L L L L L T H p 3 * 8 ~ O.0.6.5.5.8.8.0.0.7.7.7.7.",
"a.q.5.q.f.5.t 0 6 8 N @.p./.(./.^.!.!.Q.L.L.H.1.n 2 i F x.I.I.Z.C.Z.A.A.Z.V.V.V.C.x.x.x.x.T s 4 2 9 o.q.g.g.f.f.g.g.g.g.f.f.g.g.",
"6.4.` 7.f.8.^ 0 4 0 N 9.p.J.!.K.s.s.s.t.s.J.J.i.n 2 s H x.Z.A.Z.x.x.b.b.x.x.V.V.b.b.x.z.V.W a 6 * 0 ^ 4.g.j.f.w.w.q.q.8.5.5.5.5.",
"` ` ` 5.w.w.O.z 4 8 ( &.r.s.Q.H.t.t.t.t.r.v.J.p.n ; i D L x.z.x.x.R k.R k.l.l.l.l.k.k.k.x.V.f ; * 3 ~ 4.f.h.w.8.5.4.4.` 4.4.O.] ",
"/ _ ` 5.w.w.5.n 4 8 N @.e.s.Q.H.e.e.e.e.e.e.H.y.e ; i D H R L R R L U k.l.k.k.R R T Y Y k.C.f > * 3 r _ w.w.q.4.` _ _ _ _ _ _ _ ",
"Q _ O.6.7.4.O.n ; 8 N +.+.e.H.r.@.@.@.+.+.@.p.,.e ; 7 D H L H Y L F F H L H H H H H H Y z.V.f > * 3 r / 6.4.] ) Q Q Q Q t t Q t ",
"~ ] 4.4.] ^ ) c ; 8 M | +.%.i.,.+.+.| } N } >.%.w : 1 k D D G I F C b D D D H H Y Y T z.x.W a p 2 2 0 t _ / ~ t Q r r r r r r r ",
"8 0 z w 8 3 8 8 - 2 8 z n n A M z n c w 8 8 M c 8 - : f h f h h g f f h h G H Y T Y R R Y Y p * * * 6 3 0 8 3 0 0 0 3 0 0 0 0 0 ",
"+ O @ O * @ * * O o * * @ = * * * * = = - - 6 ; ; O @ $ & # % % % # + % + % % % & & % % @ y * o O o O @ * @ @ * * * * * * * * * ",
"@ * ; * ; * ; * - O @ @ O * * ; ; - - - @ * - - = O O @ @ # O O + @ + + . + .   . . . + + * @ o X X o o o + o @ O O * * * O * X ",
"n A #.2.3.3.3.3.=.#. .A A A S S S S Z 9 ; 4 7 7 4 2 4 8 9 8 8 9 9 8 7 4 ; ; ; ; 7 8 8 3 8 8 8 8 0 3 0 0 q q e q w e e r 0 3 3 2 ",
"=.;.m.E.'.].{. X{.`.`.`.`.`.`.E.T.T.P.Z 4 0 M [  .} ..+.%.@.%.&.,.,.| n 0 8 5 r ~ ) ] _ ] ] ^ _ ` _ _ _ _ ` ] ] 4.6.0.] / q 0 * ",
"=.:.n.R.{.{..X.X.XXX X X}.{.{.E.E.E.P.S 4 e 1.K.!.!.L.Q.Q.Q.Q.d.H.d.,.B 8 5 5 t _ 4.8.8.8.8.8.8.7.8.5.` ` ` O.5.q.a.a.5./ 0 3 * ",
"=.;.m.U.E.E.`.].{.{.{.{.].].].E.R.E.U.*.4 e y.Q.!.~.!.!.!.^.^.Q.!.!.p.} w 2 5 ! _ 0.8.0.0.4.4.] O.O.` ` ` ` ` O.O.4.q.w.] q 2 2 ",
"-.;.n.M.U.T.R.R.)._.`.`.`._.).).T.T.P.*.4 w @.p.s.s.s.s.t.s.t.d.Q.^.r.N 0 4 3 t _ ] 6.4.4.O.O.O.4.` 4.4.4.4.4.O.O.5.0.q.] 0 4 ; ",
"#.;.n.B.B.U.P.G.P.).E.T.P.P.P.B.B.B.m.K 5 w +.r.r.r.e.e.e.9.e.r.K.!.,.N q 4 3 Q _ ] 4.q.w.f.w.w.a.a.f.f.a.a.q.0.5.6.0.0./ 0 4 ; ",
"K -.n.n.n.n.n.n.n.B.B.B.n.n.n.n.n.n.n.Z : 8 +.@.@.+.+.+.@.@.@.,.p.J.@.( n 4 3 t _ _ ] 5.7.5.5.0.5.5.O.4.O.O.] _ / / / ' m 3 2 * ",
"Z K -.-.-.;.-.-.-.-.-.*.P P K K K K H w : 4 { { { { { { o.+.@.%.,.1.} n 0 2 2 0 r r r r r r q r q q q q q q 0 0 5 0 8 8 4 ; 4 ; ",
"9 x Z w x w 9 8 8 4 7 8 4 4 4 : : 4 : , @ - 4 4 2 2 ; 2 ; ; ; , , ; ; - * O O O @ O O O + @ @ O + o O O O O O * * * * * * * * @ ",
": : ; = = O = = * - = - - * - @ O = O O O @ O O O O O O O O O O O O O = @ @ O O o o X X     X X o o + + O O + + O o O + + @ O O ",
"8 9 4 ; ; - - - ; - - ; 1 , ; * - , 2 4 : 4 - - ; ; ; = ; 2 : 4 4 4 9 w l w l z 0 ; * * - ; 6 4 3 p 0 8 5 0 l 0 0 0 2 4 0 0 8 0 ",
"r r r r q w 0 8 8 4 - : u a a s f v F F H J F F F x d 7 M =.;.2.M.P.U.U.R.R.Y.Y.F.%.e w M } &.e.y.9.9.9.9.9.&.+.) 2 ; 0 n r t m ",
"/ X.X.X.O.4.4.O.` l , u h T z.x.b.C.C.b.x.z.I U L v f 1 *.n.n.Y.].{.}.}..X.XXXXX.XW.} x #.v.!.~.!.Q.!.J.H.p.e.@.{ - - 5 r r t Q ",
"q.g.g.f.f.g.f.f.q.n ; u D x.C.C.C.b.x.z.z.k.I U L j f < K n.n.E.}.}.{.'.|.XXXXXX.X_.A c Z <.L.Q.L.H.H.H.J.H.p.+.[ ; O 5 q q t _ ",
"7.f.g.a.q.8.8.8.0.n ; 1 C U R T R T U U U U U U L k a $ *.n.n.`..X X{.'.|..X|.|.}.Y.S 9 c %.H.J.J.J.J.H.J.H.r.&.{ ; O 5 r q Q ` ",
"O.8.7.4.5.5.8.7.8.N 7 i C U U T I I I U U U U U L D f $ *.n.N.`..X{.{.`.`._.E.).).F.Z 9 l %.p.v.s.p.p.r.v.p.e.e.+.2 O 5 q q Q _ ",
"_ X._ _ X.X.` ` ] e , , h L L L L L L L L L I L L D f > *.n.n.U.`.).R.Y.P.U.P.U.P.3.w 4 8 [ @.,.@.+.@.+.+.+.@.+.+.8 O 3 q q Q ! ",
"t t Q Q ! Q Q t t 8 , * u C D F D D D D D F F H H D f : *.c.n.M.B.B.B.B.B.B.B.B.m.*.7 4 7 N | +.+.+.+.+.+.| +.| | e = 3 q r t Q ",
"8 5 5 5 0 0 0 q 5 3 2 @ y f h h g j j j f f f a u < a > w Z Z A S K S Z Z Z Z Z e 7 ; - ; 8 e e z e n M B N M n z 5 O * - 3 3 0 ",
"4 : : : ; ; ; ; * * * * + > > > < < < > > $ $ > $ $ $ o = ; ; = ; ; = O o O O O o X o X X o O @ * * ; 2 5 7 5 7 8 ; O ; ; ; ; 3 ",
"@ + + + X       X               + @ * $ - $ @ $ * @ @ @ + * * * O O + o o + X X X X X   X o o O + o @ @ # $ $ = - $ + + @ + + @ ",
"1 1 4 , 1 - - @ - @ O @ @ > - , 1 7 7 8 d 8 8 8 p , 1 6 , 7 8 7 : ; , ; 6 4 ; ; , O - ; 4 8 9 w l 9 1 7 7 9 7 1 : - - $ $ - > - ",
"%.$.$.$.<.A e 2 w z l M  .<.1.3.3.1.y.i.i.i.1.$.B 7 7 l l n N n M M m N N m 0 0 8 2 4 e A ..+.1.1.y.y.e.p.H.H.1.<.$.#.$.$.$.%.$.",
"D.p.p.d.~.y.A ; M | { e.H.!.!.!.J.H.d.H.H.H.s.$.l @ * c n ' O.O.o.` ` _ _ ~ t r 0 2 2 N +.@.e.p.p.r.r.p.p.H.J.K.J.J.J.J.J.K.J.L.",
"s.p.s.H.~.1.N ; n | | e.s.J.d.J.s.t.p.t.p.p.r.[ c @ - n t ] 4.] ` ` ` ` _ Q r t 0 2 ; N | @.e.s.p.p.t.t.p.p.p.d.Q.Q.K.K.Q.Q.Q.Q.",
"s.s.s.J.L.&.N 4 w | { @.r.d.s.d.s.r.p.t.u.p.r.[ l - @ n N ] ` _ _ _ ` ` _ Q t t 0 ; 2 N | @.e.u.t.t.t.p.t.r.r.s.J.Q.H.H.s.s.s.s.",
"H.H.s.Q.H...} 4 w | { @.e.e.s.d.t.t.t.t.r.p.y.} c * @ l n _ / _ _ / _ ! Q t t t 0 2 ; N { @.e.r.r.r.r.r.r.r.r.p.s.s.p.s.s.H.d.d.",
"y.1.&.e.,.B n 4 , M N | | ..+.%.%.%.%.&.&.&.&.} 9 * + 5 8 m ~ ~ Q Q Q t t r t r 0 4 ; N } @.&.&.@.e.1.,.e.e.,.1.1.e.y.i.v.v.v.y.",
"M b c M M l 8 , - w w c n b M b n n n M A A } l , + o 5 4 0 q q 0 0 0 0 0 0 q 8 7 ; ; c M A } A } A } A } A M B N B B B A B M b ",
"p 0 p l d 8 8 , $ 7 9 9 d 8 8 8 8 d w d d 8 8 > @ X + ; - ; * ; ; 2 2 2 4 7 2 ; ; * * 8 7 p 8 p d 9 7 7 7 1 - 8 8 8 8 8 8 9 9 w ",
"- - - - - * * @ X - - - - * * * - - - @ @ @ + O o X + @ + o o O + O O o + + o X O + @ * * * * * * @ - - - @ @ ; , , ; , - , - - ",
"* @ @ @ + o o +   X o + o o o @ @ @ @ $ $ @ @ @ @ + + @ @ o + + * @ O * , 4 4 ; 6 4 4 7 7 3 p 7 8 8 8 9 8 8 ; ; 7 8 6 , @ @ @ @ ",
"b v v v g g g g f d d p , ; ; 4 8 p 8 0 8 8 w l l 0 0 8 9 7 5 0 n B N } $...%.%.%.%.%.%.%.%.%.&.%.%.%...} A w 4 d x g g j j j j ",
"l.R E E E E W l.E L G F l z l q o.w.0.7.0.0.4.O.4.4.] ^ ) c z } 1.Q.~./././././././.^.!.!.!.!.!.L.K.K.H.p.y.} 9 j G z.R R R R E ",
"z.R R U U R T T R H G D u 6 0 n ] w.6.5.4.4.O.O.` ` / m r , z +.e.!./.^.!.!.!.Q.L.L.J.J.H.J.J.H.H.d.d.p.r.+.N d j L C.z.x.x.x.x.",
"x.k.U T L T L U T H G k > , 0 q ' 0.O.4.` ` _ ` _ _ / t 0 * B &.p.Q.!.Q.J.J.K.K.J.L.J.Q.Q.Q.H.H.d.s.e.&.e.| n d j L Z.Z.b.x.x.x.",
"U L L H Y H H H Y H Y k & ; 9 q / 4.` ] / / / Q Q t r q 5 * q &.i.J.J.d.p.p.i.r.r.r.p.d.d.d.t.t.s.p.e.@.,.+.r 9 j H V.V.V.W R T ",
"R R R R R Y H H D C G k < ; 0 0 m / ~ t r q e q q q q 3 2 X 8 { >.%.,.| { { { { { { { { { | | +.+.@.@.@.,.{ M 9 j H V.V.W T R R ",
"H H H G D k k h h s f y * * 2 2 3 8 8 8 3 8 0 q q q 0 3 4 + 3 ) { { { { [ [ [ [ N [ N ! N N N N N N N N N e 8 4 a j T Y Y H H H ",
"u y y y y y y y y > < > * * 7 * * * * * * * * 2 2 * 6 * , - ; p 9 9 w w e w w w w w w w w q w w w w 9 8 8 4 2 4 : 1 a a u u a a ",
"& & @ & + % @ & @ @ @ @ @ * @ @ O X X   X X X + X X + + o X . + o - - - ; > ; ; = : : : 4 8 7 7 4 4 4 4 1 : ; ; 4 7 8 7 1 4 1 6 ",
", > > ; > - * * > * > * ; * @ + + O @ O + + O + @ @ @ @ + + @ * - 4 7 7 9 w 9 8 5 7 7 1 9 9 9 w w e c c c c l c c M M M c c 8 7 ",
"9 5 0 q w m m n N ) ' o.' ] ' ' ) N N n w 6 l N ) $.$.$.) } $.$. ...........} w 5 A *.=.n.3.3.m.G.B.G.P.P.P.P.U.U.U.U.P.F.i...M ",
"0 4 0 t t ] 8.8.q.a.g.j.h.g.g.g.f.9.' ( 8 * v $.v.H.L.D.v.L.~.L.K.J.J.H.p.r.+.r 8  .B.Y._.[.[.{.|..X|.}.}.}.}.}.|. X.X}.`.`.S.[ ",
"3 2 0 r Q 5.w.w.w.w.w.w.8.8.8.8.7.5.O.N 6 ; l } <.p.p.s.d.!.^.^./././.(.!.d.@.r 9  .G.).{.}.oXoXoXoX.X.X}.}.}.}. X.X.X}.].}.E.| ",
"2 ; 0 t ^ 8.f.q.q.q.5.] ` ` ] ` ` ` ` ) ; ; l } 1.H.J.Q.Q.Q.Q.Q.K.Q.!.^.K.r.%.M w  .M.U._.}.oXoX}.{.{.{.{.{.}.{.{.`._.E.E..X_.| ",
"3 2 0 t / w.g.q.q.q.8.] ` _ _ ` ` _ O.' ; ; l } 1.d.d.d.d.d.d.d.d.d.K.Q.d.,.+.M 0  .B.U.[. XoX X}.}.}.}.}.[.{.[.].]._.E._..X_...",
"0 2 0 r _ 0.q.6.4.] _ _ _ / / _ / / / t ; ; 0 N +.e.r.r.t.r.r.r.r.p.K.!.J.r...r 9 P B.P._.}.[._._._._._._._._.).).E.R.U.).}.R...",
"0 - q q / O.@.] / ! ~ ~ Q Q Q Q ~ ~ / e , - 8 A ..@.@.@.@.@.@.@.@.,.d.J.d.e.{ c 9  .M.M.)._.Y.U.P.G.P.).).P.G.B.G.B.P.U.E.{.Y...",
"0 = 3 q m ~ ~ _ ~ ^ ~ / / Q t r r r q 0 , @ 4 n [ +.+.+.+.+.+.+.+.@.p.r.i.@. .r w [ n.M.G.G.B.m.m.M.m.B.G.M.M.m.m.B.P.B.P.).M. .",
"3 = - ; 6 6 3 5 5 8 5 7 5 2 ; ; ; ; ; ; , @ , 9 w e e e e n M B N N } } A n e w 8 e S ;.c.c.2.;.;.2.c.:.c.:.c.c.:.:.c.:.:.:.A e ",
"3 ; 2 ; ; ; ; * * * * - - * - - - - - - - @ - : ; ; - - - ; ; ; ; 4 4 4 - - - * = : 5 9 w 9 8 8 5 9 w w x w w w e w w w w w 8 7 "
};
