/* XPM */
static char *result[] = {
/* columns rows colors chars-per-pixel */
"64 64 77 1 ",
"  c #8E764D",
". c #90774E",
"X c #91784F",
"o c #957C52",
"O c #987F54",
"+ c #9B8156",
"@ c #9E8459",
"# c #A1865A",
"$ c #A58A5D",
"% c #A98E5F",
"& c #A68C61",
"* c #A98E61",
"= c #AD9264",
"- c #AC9369",
"; c #B19566",
": c #B49866",
"> c #B29668",
", c #B59A6B",
"< c #BB9D6C",
"1 c #B59C71",
"2 c #BB9F70",
"3 c #BEA16E",
"4 c #BDA173",
"5 c #BEA47B",
"6 c #C2A574",
"7 c #C6A876",
"8 c #C9AB77",
"9 c #C2A77B",
"0 c #C5A979",
"q c #CAAD7C",
"w c #CEB07E",
"e c #D1B37E",
"r c #C7AE82",
"t c #CDB283",
"y c #CFB68A",
"u c #D2B583",
"i c #D6B986",
"p c #D9BA85",
"a c #D2B789",
"s c #D5B98B",
"d c #DABD8A",
"f c #D5BC93",
"g c #D9BF92",
"h c #D7BF98",
"j c #DEC18D",
"k c #DCC194",
"l c #D7C19A",
"z c #DEC499",
"x c #E0C18E",
"c c #E3C592",
"v c #E5C895",
"b c #E8CA96",
"n c #E0C69A",
"m c #E5CA9C",
"M c #ECCE9A",
"N c #EED19C",
"B c #F1D39E",
"V c #DEC7A0",
"C c #DFC9A4",
"Z c #E3CCA4",
"A c #E9CEA2",
"S c #E3CDA9",
"D c #ECD2A5",
"F c #E5D0AB",
"G c #ECD5AB",
"H c #F3D6A1",
"J c #F4D8A5",
"K c #F1D7AA",
"L c #F4DAAD",
"P c #EDD7B3",
"I c #F3DCB2",
"U c #F3DFBA",
"Y c #F7E0B7",
"T c #F6E1BC",
"R c #F8E3BF",
"E c #F7E3C0",
"W c #F8E5C3",
/* pixels */
"HHBBBNNNNBNBNBNMMMbMNNNNNNMbmMbNBJBHHBBHJHHHHHHHHHHHHHHJHBHBNMBH",
"Hbdpidpiiuuwquputq05udittwtqqwwwjjjjxjdjppppiipppgxdsspiiuqeupbH",
"Mi<,,>-$@+Oo. XX+++O++o+@@@@@&+@$%&==%@+++#+O@+O@#..XX+OOOOO*<dB",
"Bu*><=#+&#&%X.$,33344340yqqttutaiiisdddjddddsdpsi6+O&#&$@@$*>,pB",
"Nw+*tqyfZ<:#+:6icNDDIGGFPGPFGGGPNDLJDJJLIPLLLHKKMv8$=,uz6rPt2,iB",
"Bw+$PzsVf:$X<exHLLGNziaeuysyfflluipeppjkcdpdcbNUIvj6%$,sshVq*>uM",
"Be+@tllS:#+:pDYLBj87<-:=$,&$@+@@<=:6668w88877wpcIUMd6$*<Slay#;uM",
"Bi++9aS0#X;dLYTBd:+@@%@@+@$$@$++@@%@##++@$>$*,7wnUUIv:O%0SVf@$eM",
"Js+$zi<$O6cYWJMe=7$@+><>=0q->6+-%@3==96*>,>@##8>3wGRJc,o#>fZ$#qN",
"Bi+$y,=O,mRRLv8@Xi$4=*vnAjp#it#sw@4t#iugit$*4$t+$<eBLWm3o#:3#OqM",
"JiX$,$$,xWRIx7#o$7$yD#qTTk-#Az&DD*nK#,nET0#zr#9#+$<eNRWc;O$:$O8M",
"HpX$=$6vJLBe3$X$-a$7Z,=tUTAjIc4TY4vYdDWUt=>Zq&t,#+$3iIRYd,X#%o8b",
"Hd +$6xIRNe<$o$%4D0$-#t,,AEWUDsREfDUTRA,,w#-#0D4=$+$6pJRLi<Oo.4M",
"JjX+8dNYGe<%+#+:qDHbq,HHd,5TEWWWWWWET5,dJD>wbJDw3%#+$6bHUHe>. 6b",
"Bj#4bvIUe<$O%%$$-vGLm0GA%$9#4CTUTTC4#0#*AKqbLLcpe$+$o$8MRYc6$X<b",
"Bd@iMPIm<%O#;<e%OqIYK$>*$=BDw$-=&-&tHH=$--$GYDx6$$=%$X@eBLHp:o:x",
"Hi+iKUvw:O#,6qp6*$DUUG25,#iLma>#$-anId$,54DYLIA*+>q3-$X%dBLv3+-j",
"Bi+pKAp70t6aDDccA,*UIUUEm&$=,06##67,=$&nTTTIKG>#8bDDa0i7:jLm3+=d",
"Bi+dHbe,#&$$0JKAPD,-5IIUYGFlfij==jislFGYUKNMd,*DLGH0$$$$+wHD3o%d",
"Hp+dLc6*#2r8#MLULKdOO*0JKYh-Szb->vzS-hTLD4-+o-UIYLM#7y4@@7DD6+$d",
"Hi+dId7$@*hZ*rbDYIM+O=kJRz#=5UM>=vY5*@nRNi>++4UTGbw-ZD=+@<kI4+=s",
"Hp@dLi8:;$#,$>q&GTM->$AJRu4N#TB*$bT#N4uRLj$=&ITF$q>#,@=>%-sG3+$i",
"Hp@dId8$,u0*tHL;4UJ4ijaHYukN$cN@@vc#NjuYJsmk9IY5-DJu=0v,@:iG4+#u",
"Hp+dKc8@,sUt,JS*5TUHMIJHYt7MdHj##dHjN7tYJJJJLYT4=SJ,tTm>@%uF0+@t",
"Jp+dLc8O*hUU,p*&,mULUWUITn*004%##*370&yYYYTWKYm,#=d,UEA=+$tPt@@t",
"Hp@gKx8O6ivWZ1$*$&KTnuuuuIAsawd00jwaaaYzuuuzRG&#=#,ZEjj7@,uPq@@w",
"Jp*dJp7$9u,DE50Hp$Sh#4c0$fETYBBHNBBYYWA*0k4@lF$iB05WA-d0#&sPr@@0",
"Hp-dHe6#=#$dEU&HI*l-*NMM9iTIIYUutKIYITa0NNN*-l*LH#TWj##-$&yGw@@q",
"Hp*pDp3#;tGIIW2tm,fS5#$d8uYYWTT,4RRWYYa7d$#9Sf,mq2WIYms>+@fGt$@q",
"Hi*iIp:*26nvDWC*i0ikUUcH4qHITttUN#rRYHw4BcUUzi9u&SWDkkt7$+fGa$$w",
"Hp*iAp%#@@*6gWE*>6kbMBBd*dHHT$=v4=yTIBd&jNBMbj0>-TWf4=@@+@lFy+&u",
"Hu%uDu<#*qDURWU*##=>>&###9Bt1B6*&vY,uB0###&,>=##&UWTYDs=@@lPu@;p",
"Bi&iHp:#*qDUEWU*$@%%$$#@@7Bt1B6&=vT,uB0@###=*$@#-UWTUDp*##hPa+-d",
"Hi*iAe=#@@*6fEE-:6dxvBBj=jBKR#-v4=rRYNj=dNHbMx6>-TWf4%#@++hPt+$u",
"Bp*iLp:%26nvDWC&u0azTUcH3wNLRttYN#tRRNq4HcUTzi0u&CWDkzu6$OfDu&$w",
"Hi*pDp6#=tKIIW2tm,fS5@#d0uYYWRR,4TREYTu7j#@5Ss1mw4WIUAi>##fGt#@q",
"Hp=dDp6#=##dWT#HI=l-=NNN0yTIITIutJLYLTs7NNN=-l=ID#TWj@@-@&aGt#@q",
"Hp=dHp6$0u,GE50Hs$Fh@4j0#fRTYHHBNJNTTRA&0j4#gS$iH75WD-iq&-aGq@+q",
"Jp@dGx8O6imWZ,#=#&GYzuawyYDsuqd07jqussTztauzTG&$=#,AEkj7@1aGr@@q",
"Jp@dLcqO%lTI,d=#,mYLRRYYYz&704*#@&400$uTYYRRLYn,#*d,UEA*+#uPt@@t",
"HpOdIc8@,iTt,JA-5RYDNIJHYt0NdBj##jJdM7tYHJJJLYT5-SH3tTm:@&uF0+@w",
"Hs@dId0$,w0=tDK>4YJ4ijaHYukN$cN##Nc#BkuYJamk5LY4=GHt=qv,@:uP4+@u",
"Hp#dLp8>>$#,#>q$GTN-,$AJRu6N#UB&%BT@N4uTLj$-&UED$0>@>#=-==iG3+&i",
"BpOdId8$@%lZ=wvGUIMO+=kJTz#*9TM,>mT5*#nRNi,+O4UIGmw=ZD=@@,vP4o-j",
"HsOdKx7%@3rq#MLYLKdoo&9LLYh-Szb,-vzC-lYID4-+o-TUYLb#7y4@@7AD4+#s",
"Bp@dKve,$$#$0HGDIG,-4IIYTGSlfix*$duflFGYYJNNd,&DLLJ0$$$$+wHD3+%j",
"HsOdKMp80t6yDDvjA>$TYRYRm$$*,09##67,*$$mTYTIKG>$0vDDa7u7>jLN3@=j",
"BiOpKUce>@#,4wi7&$AUYF45,$iImu>#$:umId$,54FYLIA$+=w4-$o=sNLj3+=j",
"HpOpMIIn<*O#;3w%+7GTG$:-#=BDr%-&***tJH*$=-&DUDk6%$-=$++eBHJi:X:c",
"Hj#6bvIUe<$O$%$$-vLLbqGZ=#7#4ZTUUUZ2#0$*SKqMLKcpw$+$X#8MTYc4$X3b",
"HxXO8dAUDe<%O#O;qGHNw>HJs,5TWWWWWWWWU9,dJH,qMHDt3%@+$6vJYBe;  3M",
"HgXO$7xLWAe3%O$=4A0@=#t,,ARWIDfTEgDIWWA>,t#*$8D4;$+$3jLRIp3+XX3M",
"HpX&*&6vJLNp3#o#:u&7Z,=tYWAjUj4UU5vIdDWUt*,Sq$y,#+$3eIRTp3X+=.7M",
"HsX&,$%>xWRLx6#o$0$yD#0RTk>#Dz*DD*nK$,mTU0#kt#6@+#3eBRRk;+@:$+8M",
"HpO&u,*O<MWRJb8#Xu$4=&vbAji#at@iq#9t#uiliu$*2$t+$<eNLRm3X@:3@@8M",
"HpO&hs2%O2xRRHMe=0$@+>,:*0q-:6@=*+2==64*>,>+##8>3eDRJc3o$:kC&@wM",
"HuO#6sSr#o;dLUUBd:+@@%#@O@&#@$+@##*###+O+$,%%,6ezUYLv:+$0SVf+$tN",
"BuO@rhhS:#O,pHUJBjw63===#1&&#+@@,*>3678888866epvIUNx7$%4Zlsy#>eN",
"BqO$Pzfzf;$X<evHLLGNksuiussaffllpeppppxccdpdcbMUIvj6$$:sslz0%-tN",
"Bw+-tqtfZ<;#O:6uzMDDIGGFPPPFGDGPAHIDHHKLLPIILHKKMv8$=,yl7rPy3,iB",
"Bu%:2*#@&#$%o.#><3344449tqrwuuuaiippsdddddddddiii4@+#$$$@@$%>>iN",
"Mu<,,=>$@++XX Xo+@+oO+OO@@@@#$O+$**===@@+@@+++@++#.XXo@+++++=3dJ",
"Hbdiuuuewq8q878643<,4,,,46qtttquvbbdddddppiiiiipdjjspappuwwwiebB",
"HHBHBBMMMBBBHBHBHBHHBJBHHBHBBHHBHHHHHHHHHHHHHHBBBBJJJBJJBBBNBNJB"
};
