/* XPM */
static char *result[] = {
/* columns rows colors chars-per-pixel */
"64 64 220 2 ",
"   c #2C1402",
".  c #331502",
"X  c #361A02",
"o  c #461702",
"O  c #471A02",
"+  c #4D1B03",
"@  c #531C03",
"#  c #5B1D04",
"$  c #631F04",
"%  c #4F2002",
"&  c #502102",
"*  c #5E2102",
"=  c #5C2904",
"-  c #632202",
";  c #6D2504",
":  c #652E04",
">  c #752604",
",  c #732B05",
"<  c #7C2A05",
"1  c #7A2705",
"2  c #6D3004",
"3  c #7C3B05",
"4  c #753804",
"5  c #842E05",
"6  c #8C2608",
"7  c #8C2E08",
"8  c #932B08",
"9  c #9E2F07",
"0  c #833504",
"q  c #833E05",
"w  c #883804",
"e  c #873908",
"r  c #8D3507",
"t  c #943904",
"y  c #9B3C05",
"u  c #93330A",
"i  c #9B390B",
"p  c #963605",
"a  c #8E3910",
"s  c #983F12",
"d  c #963D12",
"f  c #A13E05",
"g  c #A93508",
"h  c #AB3908",
"j  c #A63709",
"k  c #854005",
"l  c #864408",
"z  c #8D4907",
"x  c #924B06",
"c  c #9D4708",
"v  c #904305",
"b  c #9C5307",
"n  c #98500B",
"m  c #9A4614",
"M  c #9C4916",
"N  c #964A16",
"B  c #96521A",
"V  c #9B5119",
"C  c #9C581B",
"Z  c #A54206",
"A  c #A94206",
"S  c #A94906",
"D  c #A74208",
"F  c #AD4408",
"G  c #A54909",
"H  c #A94B0A",
"J  c #A74B07",
"K  c #B14506",
"L  c #B44806",
"P  c #BC4B06",
"I  c #B64A09",
"U  c #A15407",
"Y  c #A95607",
"T  c #AD5B07",
"R  c #A55B0B",
"E  c #AD5A08",
"W  c #B15407",
"Q  c #B55807",
"!  c #BB5D07",
"~  c #B5530A",
"^  c #BE5409",
"/  c #B65D08",
"(  c #BB5C0A",
")  c #BE5307",
"_  c #AB5519",
"`  c #A75A1D",
"'  c #B15011",
"]  c #B0591A",
"[  c #B25918",
"{  c #A94E16",
"}  c #96611F",
"|  c #AC620B",
" . c #B46008",
".. c #BD6109",
"X. c #B66A0F",
"o. c #AD631E",
"O. c #B96F10",
"+. c #BB621E",
"@. c #B3621F",
"#. c #BD7310",
"$. c #BE710F",
"%. c #986724",
"&. c #9F752F",
"*. c #AF7421",
"=. c #A0752F",
"-. c #A17425",
";. c #B87424",
":. c #B26B21",
">. c #C14F08",
",. c #C14E07",
"<. c #C55408",
"1. c #CA560A",
"2. c #CD5C0C",
"3. c #C05707",
"4. c #C65D14",
"5. c #D05D0B",
"6. c #C26508",
"7. c #C66908",
"8. c #CA6B0A",
"9. c #CA640A",
"0. c #D2620C",
"q. c #D36C0D",
"w. c #DF6F0E",
"e. c #CD720A",
"r. c #D3750D",
"t. c #D57A0E",
"y. c #D97C0E",
"u. c #DF720F",
"i. c #CA641A",
"p. c #C07510",
"a. c #CA7215",
"s. c #C57810",
"d. c #CA7A11",
"f. c #D47C13",
"g. c #DB7A18",
"h. c #D47910",
"j. c #E0750F",
"k. c #E57613",
"l. c #E27A12",
"z. c #E87F18",
"x. c #E87F11",
"c. c #C66B22",
"v. c #C07528",
"b. c #CD7B23",
"n. c #D17D23",
"m. c #DE7D21",
"M. c #B1842B",
"N. c #B1892F",
"B. c #B99838",
"V. c #B79436",
"C. c #DC8411",
"Z. c #DF8A14",
"A. c #D48313",
"S. c #DA800F",
"D. c #E78112",
"F. c #E98513",
"G. c #E28913",
"H. c #E98A1A",
"J. c #F68F15",
"K. c #E79216",
"L. c #EC9617",
"P. c #EF9C1B",
"I. c #E6941C",
"U. c #F79014",
"Y. c #F6921A",
"T. c #F89719",
"R. c #F69A1A",
"E. c #F7A81D",
"W. c #F6A31D",
"Q. c #DB8929",
"!. c #D9862C",
"~. c #C39939",
"^. c #D09135",
"/. c #E79B20",
"(. c #E2932A",
"). c #E59A31",
"_. c #DEA43D",
"`. c #FAA323",
"'. c #F9AD22",
"]. c #F9A62A",
"[. c #F5A723",
"{. c #EAA532",
"}. c #E6A63A",
"|. c #F3AF34",
" X c #FBB333",
".X c #FAB831",
"XX c #FBBD3C",
"oX c #F5B336",
"OX c #FDC03F",
"+X c #D6A940",
"@X c #EAB141",
"#X c #E9B64B",
"$X c #F8BC42",
"%X c #F6BA41",
"&X c #F2BB53",
"*X c #FCC244",
"=X c #FCC84F",
"-X c #FCC64C",
";X c #ECC658",
":X c #EBC456",
">X c #FCC951",
",X c #F5C259",
"<X c #F5C85A",
"1X c #FED555",
"2X c #FFD659",
"3X c #F1CF69",
"4X c #FED565",
"5X c #FFDA67",
"6X c #FFDC6D",
"7X c #F9D76B",
"8X c #FEDD75",
"9X c #FCDD7B",
"0X c #F4D678",
"qX c #E8CA6F",
"wX c #F8DB80",
"eX c #F6DF95",
"rX c #FEE182",
"tX c #FEE18C",
"yX c #FEE694",
"uX c #F6E195",
/* pixels */
"> 9 o.*.h , 1 ; $ M C @ X + O $ m V @ . o + + u %.6   O $ # m B @ . o # + u =.8   O @ @ s V   O # - @ a m + X # > 9 o.*.h ; < - ",
"> +X4 q I [ - * < c.^.= 0 i y t !.}.: r F I D Q.}.G 0 I 1.F ).@X2 t F h D (.z.H w y f i.k.k.4.y h K +.H.F {.c Z > +X4 k H @.- $ ",
":.x 7.7.XX~ P I m.Y.Y.g.K ,.L m.J.Y.g.L P <.n.`.^ XXI P P g.U.Y.g.L ,.,.n.`.1.$X~ P `.3 P 5.j. Xx.T.8.H 1.9.5.2X].q ^ 0.D ].{ s ",
"V.U e.y.1.1.1X`.3 ^ 2.u..XF.].q 3.q.y.XXH.E.t.L 9.q.r.5X Xv 9.t.G.*XL.>XA.! h.y.y.6XR 7.y.C.y.P.yX9XE 8.C.C.e.-Xb 7.y.C.,.^ +.-.",
"7 I.r.C.C.8.-Xb 7.y.C.S.P.yXT 7.y.C.C.P.yX9XT e.C.Z.r.>XU 7.S.Z.C.P.yXp.T 8.G.C.e.>Xs...e.t.y.tXXX4Xb 7.e.e.K.4XU ..e.r.1.XX- 8 ",
"+ %XK.8.r.K.4XU 6.e.r.y.tXXXs.6.e.t.t.tXXX5Xb 8.e.r.K.4XU 6.e.r.y.tXXX.Xb 8.e.r.K.4X'. ...6.rX'.#.E.8Xb | /.-X| XX .6.7.5.~ % . ",
", R 4X-XI.%XR oXY ! 6.0XW.O.[.E ..7.9XE.#.W.8Xx Y I.%XR |.Y Y Q 3XL.R {.:X3 k a.).l ( f.<X9Xd.! ..r.8.<XuXZ.Y 8.e.C.,XwX1XI < * ",
"5 oXb b `.P i ; u @.N., - - < i v.~.e > , r 5 ;.B.p % , < u ] N.2 * - > , o.N.r o > 5 , ] h & * ; < - g *.X & 1 < oXU n `.^ p ; ",
"p Y ..7.3 m.< - $ N C @ X O O $ m C @ . o + + 8 %.6   @ - # m B @ . o # @ u &.8   o @ @ m M   o # # @ a M + . # u Y 6.7.3 g.< - ",
"@.! e.t.) U.c.m ~.6.t.C.q.Y._.V Q._.: r F I D Q.}.G 0 I 1.F (.@X2 t F h D (.z.H w f f i.k.l.4.y ~.6.h.C.q.Y._.V @.( e.t.P U.c.M ",
"M...t.C.0.Y.^.C w 9XS.C.K ,.L m.U.Y.g.L P <.n.`.^ XX~ I ^ m.U.Y.g.L P ,.n.`.1.XXQ L `.3 P 0.u. XD.Y.8.C.l.g.: @ N.6.r.C.0.Y.^.C ",
", 9Xy.f.u.g.= # , E.tXP. XF.`.q ) q.l.XXF.E.r.W 9.q.q.5X Xv 9.h.G.*XL.>XA.( h.t.h.6XE 9.r.C.S.P.yX9XE P.XXL t . , 8Xy.f.l.g.= & ",
"- W.eXR..XL 0 . , #.OXyXP.yX| 7.y.C.C.P.yX9XR e.C.Z.e.=XU 7.y.C.C.P.yXp.T e.Z.Z.r.>Xs.6.e.h.y.tXXX5Xb yXF.,.K o - W.tXL. XI 0 X ",
": X.XXtXF.P f + r W.5X9XtXXXs.6.e.h.t.tXXX4Xb 8.8.r.K.4XU 6.e.y.y.tXXX.Xb 8.e.e.G.4X'. .6.7.rX'.#.E.8X9XW.<.I + : X.XXyXF.P f + ",
"< E.s.| ].L y o 5 8Xb T W.X.[.E 6.7.9XE.O.W.8Xx Y I.$XR |.Y W Q 3XL.R {.;X3 l a.).l ( f.,XwXs.( ..r.8./ r.b.D + < [.s.| ].I p o ",
"i Y 6.7.q m.t $ ;.x 7.8.W `.!.u ;.~.e , > t 5 ;.B.t & < < 7 o.M.2 * - > > o.N.7 O , < < ] h % - ;.x 7.e.W `.!.u i Y 6.7.k m.p $ ",
"v...e.y.) U.!.m B.Y e.Z.9.^ }.%.m B @   o + + u %.6   @ $ # m V @ . o # @ u =.8 . O @ @ d V   o B.Y e.C.9.^ }.%.;.( e.y.) U.!.m ",
"~.6.r.C.q.Y._.C t I.e.Z.q.XXG 6 !._.: t F I D !.}.G 3 I 1.h ).@X2 p F D D (.D.H w f f i.k.l.i.t p /.e.Z.q.XXG 6 ~.7.t.C.q.Y._.V ",
"q 9XC.C.l.g.: @ & $XK.e.r.I 0   - R XXyXL.<.n.`.^ XXI P P z.J.Y.g.K P ,.n.`.1.XX~ P E.3 P 0.F o & $XI.e.q.~ 0   e 9Xf.C.l.g.: @ ",
", E.tXP.XXL r . < R 4X=X5XP I + > {..X#.>XR.h.W 9.q.r.5X Xx 6.h.G.*XP.>XA.( t.t.t.6XR 9.t.S.h # < R 4X>X5XP I @ , E.tXP.XXL t . ",
", O.XXyXF.,.F o < |.U U  XP 1.$ > :Xb T A.9XT e.Z.Z.e.>XU 8.f.C.C.P.yXp.| e.G.Z.8.>Xs.6.e.t.D @ < |.U U .XP 1.$ , O.XXyXF.P K o ",
"u W.5X9XE.<.L @ u Y 6.8.v m.F # o.3 8.e./ 5Xb 7.e.e.K.4XU 6.e.h.y.tXXX.Xb 7.8.r.K.4X'./ 6.7.(.u r Y ..8.x m.A # t W.4X9XE.<.I + ",
"5 8XU T d.n.D + ` W e.y.9.J.).m N.k 8.G.y.W.8Xx Y I.$XR |.Y E Q 3XL.R {.;X3 k a.).l ( f.,XwXz.=.` W e.y.9.J.).m 5 8Xb T h.n.A + ",
";.x 7.8.W `.Q.8 M.Q y.C.h.Y.@XB r a.e.G.t.OXH 8 B.p & < < r o.;., * - , , o.N.7 7 a.e.G.h.XXH 8 M.! t.C.t.J.@XV ;.x 8.e.H `.!.u ",
"B.Y e.C.9.^ }.%.; 3Xy.C.G.g.2 @ O ).K.e.y.~ w   %.6   @ $ # m V @ . o # @ u =.8 O ).I.e.y.W w   2 3Xy.C.G.g.2 @ B.Y e.Z.9.) }.} ",
"p I.e.Z.q.XXG 6 * L.tXP.$XL y . > l 4X>X6XP f o < |.U U  X^ ).@X2 |.b R  XP 1.$ > l 4X>X8XP f o * L.tXP.*XL p . p I.e.Z.q.XXG 6 ",
"& $XK.r.q.~ 0   - R XXyXL.P F o < ( '.s.R W.f @ u Y 6.8.v g.U.Y.g.Y ..7.x m.F # < ( '.s.R R.f @ - R XXyXK.,.F o & $XK.e.q.W 0   ",
"< R 4X=X5XI I @ , {..X#.>X^ h # < A. ...9.3 i.@ ] W e.t.7.U.6.y.G.W e.S.9.J.).m < A. ...7.3 i.# > {..Xp.>X,.D # < R 4X>X5XP I + ",
"< |.b U  XP 1.$ 1 ;Xb T A.n.D @ ] ,X..e.t.) k.s M.Q t.C.y.Y.S.C.C.Q h.Z.t.J.@XB ] ,X..e.y.P k.s > ;Xb T A.n.h + < |.U U  XP 1.$ ",
"r Y 6.7.z z.A # o.3 7.e./ `.(.u h wX6.t.S.0.k.V 2 3Xt.C.G.g.e.t.A.3Xt.C.G.g.2 @ h 9X7.t.C.0.k.V o.3 8.e./ `.(.u u Y 6.7.x m.F # ",
"o.W e.y.7.J.).m N.k e.Z.y.1.z.=.+ d.rXy.y.j.4.  * L.eXP.*XL W Q 3XK.tXP.$XL p . + d.rXy.y.u.4.  N.k e.Z.y.1.z.=.o.W e.y.9.J.).m ",
"M.Q r.Z.h.Y.@XV 7 a.e.Z.t.XXH 8 - ! '.tXP..Xy o - R XXyXL.,.] M.; R XXyXY.P F o * ! '.tXP. Xy O 7 a.e.Z.t.XXH 8 M.Q h.C.h.J.@XB ",
"; 3Xy.C.G.g.2 + O ).K.e.t.~ w . ; ..#.XXyXD.D # > {..Xp.>X,.$ m B {..Xp.>X<.h # ; ..#.XXyXD.D # + ).I.e.t.~ w   , 3XA.C.G.g.2 @ ",
"* L.tXP.*XL p . , k 4X>X6XP f O < r.E.5X9XT.K $ 1 :Xb T A.n.D (.}.;Xb T A.n.D + < r.E.5X8XY.F $ > l 4X>X6XP f o # L.tXP.*XL p . ",
"- R XXyXL.,.F o < ( '.s.R `.f @ - 8.8Xb Y 8.+.@ o.4 9.e./ ].m.J.R.3 7.e./ ].(.u - 8.9Xb E 8.+.@ < ( '.p.R `.f @ - R XXyXL.,.F O ",
", {..Xp.>X,.D # < f./ 6.9.3 i.@ g <Xb 8.8.F H.a N.k e.G.t.1.x 7.y.l e.G.y.1.D.&.h <Xb 7.8.J H.a < A. ...7.0 i.@ 1 {..X#.>X,.f # ",
"< ;Xb T A.n.h @ ] ,X..e.t.P k.s *.uXT e.S.3.J M r a.e.Z.t.XX7.y.C.a.e.Z.r.XXH 8 *.uX/ e.C.1.G M ] ,X6.e.t.P k.s < ;Xb T A.n.h + ",
"o.4 8.e./ `.(.u h wX7.t.C.5.k.V X Z./.h.C.9.{.@ O ).K.e.y.Q 6.e.t.).K.e.h.~ w . X Z./.e.C.2.{.+ h wX6.t.S.0.l.V o.4 8.e.! `.(.u ",
"N.k e.Z.t.1.D.=.& s.rXy.y.l.4.  & Y -XK.e.2.c . > l 4X=X8XI G W W l 4X=X8XP f o @ Y *XK.e.0.c . + d.rXy.S.j.4.  N.k 8.G.y.1.D.=.",
"7 a.e.Z.t.*XH 8 * ! '.tXP.oXy O > 7.| 4X=X2XZ # ;.B.t & < < 7 o.M.2 * - > , o.N., 8.| 4X>X1Xf # - ! '.tXP..Xy o 7 a.r.C.t.*XH 8 ",
"+ ).K.e.h.Q w   ; ( #.XXyXD.h # 5 8.XXU U ].D > %.6   o + + d N   o @ # @ a M + 5 8.XXU U ].D > ; ..#.XXyXD.D # O ).K.e.y.Q w   ",
", l 4X>X6XP f O 1 h.E.5X8XY.K $ 1 C. ...7.q i.@ l.G e y y i.k.k.4.r 9 f ] H.G }.> g. .6.7.q i.@ < r.E.5X9XT.K # , l 4X>X6XI f O ",
"< ( '.s.R `.f @ * e.8Xb Y 8.+.@ _ ,X6.e.y.^ b.`.1.XX~ L `.4 P 5.w. Xx.T.9.D <.1.5.1X].3 P ) j.m - 8.8Xb Y 8.+.# < ( '.s.E `.f @ ",
"< f./ ..9.3 i.@ g <Xb 7.e.J H.a h wX7.h.C.0.h.W q.q.r.5XY 6.q.y.y.L.tX8XY 7.C.C.8.-Xb 9.t.0.l.` g <Xb 7.8.H H.a < f. ...9.3 i.@ ",
"` ,X..e.t.P k.m *.uXT e.C.<.G m % A.9XS.C.y.T 8.G.Z.e.=Xs.6.e.t.t.tXXX5Xb 7.e.e.K.4XU 6.e.y.i.  *.uXT e.S.3.J M ] ,X6.e.r.P k.m ",
"h 9X7.t.y.0.k.M . Z./.t.C.9.{.% * ..'.tXL.XXU 7.e.e.K.4X'. ...7.rXE.#.E.8Xb E /.*X| XX .6..XZ # X Z./.r.Z.2.{.+ j 9X7.t.C.5.l.M ",
"& d.rXS.y.u.i.  # Y *XK.e.0.c . ; J n (.qX0.8Xx Y (.$XR r.Z.&X0Xp.W Q 7.6.#X0Xa.v Q ( g.,X9.u ; & Y -XK.e.2.c . % d.9XS.y.k.4.  ",
"- ! E.tXP. Xy o , 8.| 4X=X2XZ * > < [ ' * _ @ - V.u & , 5 < _ h + - ; 1 # g *.. 1 < [ ' - _ @ - > 8.| 4X=X2XZ * * ( E.eXP..Xy o ",
"; ..#.XXyXF.A # < 8.XXb U ].D > # m V +   o + + 8 %.8   @ $ $ m B @ . O # @ i =.8 . O @ + d B   5 q.XXb U ].D ; ; ..#.XXyXD.A # ",
"1 r.E.5X9XY.K $ 1 C. .6.7.q i.@ y Q.}.: t F I D Q.}.G 0 I 2.h (.@X: p A F F (.z.H w f y 4.k.l.4.> C. ...7.q i.# < r.E.5X8XY.F * ",
"* e.8Xb E 8.+.# _ ,X6.e.y.K P L m.J.Y.g.L P <.n.].^ XX~ I P g.U.Y.g.L P >.n.].1.XXQ P `.e ^ 0.u. Xx.R.8.f.^ k.m - e.9Xb E 8.+.@ ",
"g <Xb 7.8.G H.a h wX7.h.C..XF.].l 3.q.y.XXH.W.h.W 9.q.r.5X Xx 7.y.G.*XL.>XA.Q y.t.h.6XR 9.t.C.C.P.yX9XE C.0.k.` g ,Xb 7.8.H H.a ",
"*.uXT e.C.<.G M % A.rXS.C.P.yX| 7.y.Z.C.P.yX9XE e.C.Z.e.>Xb 8.y.C.C.P.yX#.T e.G.G.r.>Xs.6.e.h.f.tXXX5Xb C.u.9.. *.uXT e.C.1.G M ",
"X Z./.r.G.9.{.+ * ..E.tXP.tXXXs...e.h.y.tXXX4Xb 8.e.e.K.4Xb 6.e.y.y.tXXX.Xb 7.e.r.G.4X'. .6.7.rX'.#.E.8XL.XXZ @ X Z./.r.C.2.{.+ ",
"& Y -XK.8.5.c . ; J n (.qXW.X.[./ ..6.wX'.O.W.6Xx Y I.XXR |.U Q E 3XI.R {.:X4 l a.).z 6.G.,X0Xd.( ( r.r.qX2.r ; & Y *XK.e.2.c . ",
"> 8.| 4X=X1XZ # , < [ ' * _ @ - f v.~.0 , , r 5 ;.B.u & < < 7 ` M.; * - > , o.N.7 O > < < _ h + > 5 [ ' = _ @ - > 8.| 4X>X2XZ * ",
"5 8.XXU b ].f > @ i o.7   @ $ # m C +   o @ O u %.6   o + + a N   o @ # @ a M + . # > @ s M   o # # @ a 8 + . O 5 q.XXb R ].D > ",
"> C. ...7.q i.@ 0 c.^.e 2 c I p Q._.: t F F D Q.g.G 0 y f i.k.k.4.r 9 y [ H.G {.G f f i.k.k.4.y h D +.H.K {.G y > A. ...7.k i.+ ",
"_ ,X6.e.y.L P <.b.`.^ XX~ P P m.U.Y.g.L P <.n.`.1.XXI L `.< P 2.w. Xx.T.9.F >.2.5.1X].3 ) 0.j..XF.*X8.H 0.2.0.2XF.*Xq.H y.^ k.m ",
"h wX7.h.C..XD.Y.9.H 1.2.0.2X].k ) q.l.XXH.*Xh.W q.r.r.5XR 9.t.y.y.L.tX8XR 7.C.l.8.-Xb 7.y.y.y.P.yX$.E 7.G.C.e.>XyX#.T 8.C.0.l.` ",
"& d.rXy.A.P.tX8XE 8.C.Z.e.=Xb 8.y.C.S.P.yXp.T e.Z.G.e.>Xs.6.e.h.f.tXXX5Xb 7.e.r.I.4XU ..e.t.y.tXXX.Xb 8.e.e.I.4XXX.Xb 7.y.j.i.. ",
"- 6.'.tXP.tXXX5Xb 7.e.e.K.4Xb 6.e.t.y.tXXX.Xb 7.8.r.K.4X'. .6.7.rX'.#.W.8Xb T /.*X|  X ...7.rX'.O.*X8Xb E /.*X| #.*X8Xb P.XXZ @ ",
"; J n (.qXW.X.P.7Xx Y Z.XXR oXT ..6.9X'.#.XX8Xx b /.$XR r.C.&X0Xp.W / 9.( #X0Xa.v ~ ( f.<X9Xs.! ..8.e.<XeXZ.Y 8...e.r.<XqX2.r ; ",
"> 5 ] ' = _ # - < :.V.u + > 5 i v.~.e , , 5 5 ;.V.p & < 5 < _ h + * ; < * g *.  @ > 5 , ] h & - ; 1 * g h X @ > , < [ I = _ @ - "
};
