/* XPM */
static char *result[] = {
/* columns rows colors chars-per-pixel */
"64 64 243 2 ",
"   c #2C1402",
".  c #331502",
"X  c #361A02",
"o  c #3A1A02",
"O  c #451702",
"+  c #4D1B02",
"@  c #471C02",
"#  c #541C03",
"$  c #5B1D04",
"%  c #621F04",
"&  c #4D2103",
"*  c #5E2103",
"=  c #562403",
"-  c #632203",
";  c #6C2504",
":  c #662D04",
">  c #752604",
",  c #7B2A05",
"<  c #752905",
"1  c #7A3904",
"2  c #872C06",
"3  c #952C09",
"4  c #853205",
"5  c #853A06",
"6  c #9D3D05",
"7  c #923309",
"8  c #9A390C",
"9  c #943804",
"0  c #8D3910",
"q  c #963D12",
"w  c #AC3908",
"e  c #A53908",
"r  c #894406",
"t  c #964706",
"y  c #9C5306",
"u  c #995D02",
"i  c #9B4915",
"p  c #9A541A",
"a  c #8D5101",
"s  c #A54306",
"d  c #AD4408",
"f  c #A84707",
"g  c #B44906",
"h  c #BB4B06",
"j  c #B44A09",
"k  c #B24706",
"l  c #A15407",
"z  c #A95607",
"x  c #AC5B07",
"c  c #A55B0A",
"v  c #A75C05",
"b  c #B75708",
"n  c #A64915",
"m  c #AC581B",
"M  c #B25818",
"N  c #996D02",
"B  c #A46201",
"V  c #AB6402",
"C  c #AA6606",
"Z  c #B46008",
"A  c #BD6108",
"S  c #B76905",
"D  c #AB7804",
"F  c #BC7B03",
"G  c #B77704",
"H  c #AC641E",
"J  c #B7651B",
"K  c #A97D19",
"L  c #BD7310",
"P  c #B67E14",
"I  c #9C6F28",
"U  c #B36921",
"Y  c #A87624",
"T  c #B67423",
"R  c #AD6A20",
"E  c #C45208",
"W  c #CE5C0B",
"Q  c #C75709",
"!  c #D05D0B",
"~  c #C65D16",
"^  c #C14E07",
"/  c #C26D03",
"(  c #C26508",
")  c #C66909",
"_  c #CA6B0A",
"`  c #C96708",
"'  c #D2630C",
"]  c #D56D0C",
"[  c #C67204",
"{  c #CC7304",
"}  c #CD720A",
"|  c #C67A07",
" . c #D2740C",
".. c #D57A0E",
"X. c #D97D0E",
"o. c #D67806",
"O. c #CA6518",
"+. c #C57810",
"@. c #C87612",
"#. c #DA7919",
"$. c #D57A12",
"%. c #E37412",
"&. c #E27A13",
"*. c #E87F11",
"=. c #E0740F",
"-. c #C87826",
";. c #D97D22",
":. c #C46921",
">. c #BB8306",
",. c #B48318",
"<. c #9E8135",
"1. c #B6852A",
"2. c #AA8435",
"3. c #B78836",
"4. c #B79336",
"5. c #AD842B",
"6. c #C88507",
"7. c #D48204",
"8. c #DB8405",
"9. c #D48B04",
"0. c #D98809",
"q. c #CE910A",
"w. c #D39204",
"e. c #DC9405",
"r. c #D4930C",
"t. c #DB940C",
"y. c #DA9A0A",
"u. c #C88816",
"i. c #DC8411",
"p. c #DE8A14",
"a. c #D48A16",
"s. c #D99717",
"d. c #CF991B",
"f. c #E48A08",
"g. c #E39306",
"h. c #E49B05",
"j. c #E4940B",
"k. c #E49C0A",
"l. c #EA980A",
"z. c #E68716",
"x. c #E59315",
"c. c #EF9C1A",
"v. c #E59818",
"b. c #F69419",
"n. c #F59212",
"m. c #DAA617",
"M. c #DFA009",
"N. c #EBA306",
"B. c #E5A10A",
"V. c #EBA40B",
"C. c #EEA90C",
"Z. c #E7A106",
"A. c #F2A70C",
"S. c #F6B30E",
"D. c #EAA514",
"F. c #E9A616",
"G. c #F5A918",
"H. c #F7B718",
"J. c #ECB41C",
"K. c #C68A28",
"L. c #D8892B",
"P. c #CC962C",
"I. c #D89828",
"U. c #C48B35",
"Y. c #C79438",
"T. c #D89A37",
"R. c #E69A22",
"E. c #E3962A",
"W. c #E29C33",
"Q. c #DBA539",
"!. c #D9A92F",
"~. c #EBAC2B",
"^. c #E8A626",
"/. c #F9AD22",
"(. c #F8A526",
"). c #EBB329",
"_. c #F6B827",
"`. c #EAAD34",
"'. c #E6A839",
"]. c #F2AE35",
"[. c #EDB334",
"{. c #EDB43A",
"}. c #FAB932",
"|. c #FBBD3C",
" X c #F5B535",
".X c #FCC11C",
"XX c #FBC628",
"oX c #FBC738",
"OX c #FDD23B",
"+X c #9E8959",
"@X c #A98747",
"#X c #B68A48",
"$X c #AA8B57",
"%X c #B48D57",
"&X c #BC9456",
"*X c #B2926B",
"=X c #D69B47",
"-X c #CA9658",
";X c #D79D59",
":X c #C7914C",
">X c #E29D41",
",X c #D9A548",
"<X c #D8A558",
"1X c #DCB947",
"2X c #E6AA47",
"3X c #ECB243",
"4X c #EAB449",
"5X c #F5BA42",
"6X c #F5B845",
"7X c #E4AA5A",
"8X c #E9B657",
"9X c #F3BB55",
"0X c #D09D64",
"qX c #D7A768",
"wX c #D7AF72",
"eX c #EAB864",
"rX c #EBB46C",
"tX c #FBC244",
"yX c #FCC54B",
"uX c #F9CA47",
"iX c #FDD347",
"pX c #FCC951",
"aX c #F5C35A",
"sX c #F7C85A",
"dX c #FDD353",
"fX c #FDD55A",
"gX c #FCD858",
"hX c #ECC557",
"jX c #FED565",
"kX c #FEDB6B",
"lX c #FCD966",
"zX c #FEDD74",
"xX c #FAD979",
"cX c #F1C86E",
"vX c #FEE179",
"bX c #DCAF82",
"nX c #FADC83",
"mX c #F7D68F",
"MX c #FEE182",
"NX c #FEE18C",
"BX c #FEE594",
"VX c #F9E399",
"CX c #FDEAA7",
/* pixels */
"V V [ u.S u B V V } | B u B u V | +.v u B B B S 6.A u B V V | +.B u B B B / u./ u u B v [ | u u B V B / [ B u V V V } | u B V V ",
"S V } 7.V B S / S 0.s.V S [ / / x.v.B S { { [ x.R.{ G { o.{ v.F.G S { { [ x.f.{ S / [ i.f.f.X./ { { $.l.[ D.[ [ [ i.g.f.0.[ / V ",
"S r.G.9.H.7.7.8.j.A.l.j.7.8.8.j.A.A.l.7.8.8.j.A.X.H.7.o.o.l.A.A.g.o.7.o.x.A.8.H.7.7.S.F 8.g.l.S.N.S.h.9.g.g.h.XXH.6.e.h.N..Xg.t.",
"{ 7.o.8.f.8.XXC.F 8.f.l.H.l.S.| 8.f.l.H.l.S.e.7.8.e.g.XXG.| 8.g.l.H.V._.k.9.g.j.g.oX9.e.l.N.N.S.iXOXw.h.C.C.N..Xw.h.N.N.V.S.XXG ",
"M.6.M.N.N.Z.XXw.h.V.V.V.S.iXy.k.C.C.V.S.iXOXt.B.C.C.B.XXw.h.C.C.V.S.iXy.r.k.V.D.k.XXD.h.h.B.N.iXH.oXq.h.k.V.S.OXw.B.V.V.C.OXJ.y.",
"y.>.Z.Z.Z.S.XX9.h.B.B.V.iX.XB.y.Z.k.V.iX.XOXq.B.B.V.S.OXw.e.Z.V.V.iXXX.Xr.k.k.k.C.oXH.e.k.g.iXS.B.S.OXq.y.S..Xy..Xy.B.B.iX.Xr.y.",
"6.J.q.w.S.XXr.XXr.s.m.dX}.^.oXI.!.^.lXoX!.oXgXP.I.{.iXI.oXI.I.!.gX XQ.tXdXU.Y.{.hXY.Q.6XjXkX{.Q.'.`.`.fXxX{.T.`.`.{.fXkX[.~.I.U.",
">.| y.m.6.D >.| a.s.).1.1.1.K.P.'.4XP.3.K.P.K.'.1XI.5.K.u.K.!.!.1.5.1.K.3.,X1XY.2.U.U.3.=XT.2.1.1.U.1.T.1X2.2.3.U.U.T.I.2.1.1.1.",
"G G u.!.K.Y 5.1.,.d.I.P K K Y ,.I.T.$X+X$X$X$X-XqX-X$X$X%X%X0XqX%X+X$X$X@X-XwX0X$X$X%X$X0XqX$X$X%X#X#X=X0X*X*X*X*X%X0XqX$X#X#X1.",
">.G s.I.1.Y K.L.,.R.).P 6.d.a.P.[.hX&X:X=X7X;XcXcX0X-X7X7X<XcXcX&X<X;X,X;XcXeX<X-X0X0XrX9XrX7X-X=X=X<X9X-XcXwXqXqXrX9XeX7X;X:X1.",
">.s._.v.XXI.I.T.3X6X6X^.p.s.s.~./.}.4X,XW.>X4XyXQ.pXW.T.W.3X}.}.~.I.R.R.`.yX>XfX2XT.yXY.W.2X3XsX6X9X2X;XrXwXrXVXcX0X<XeXeXjXR.s.",
"0.t.a.x.x.R.gX6XY.W.'.G.oX/.XXu.R.^.6XfX6XpX3XT.'.'.{.gXtXP.^.~. XOX XiX~.2X3X3X4XkX,X'.{.{.6XtXMXvX,X8XcXrXrXBXqX8XeX9XeXsXdX,.",
"m.6.h.V.F.2XxX<X7X8X3X~./.dXd.k.V.F.F.H.dXiXr.k.C.C.k.XXw.h.Z.C.V._.lX^.s.^.[.[.~.pX'.'.3X3X3XvXdXgXQ.2XwXrXmXVXqXwXeXeX9XvX_.e.",
"y.>.h.h.F.9XvX<X2X2X{.~.fXoXF.s.v.F.F.iXXXoXq.k.k.V.S.oX9.y.B.B.D.fXoXXXd.^.^.^. XfXuXQ.'.Q.zXuX'.oXlX<XqXmXmXwXnXqXeX8XNXuXr.y.",
"| J.6.9.C.uXT.cX<X<X<XNXsX<XaX,X2X'.kXoXI.H.OXq.q.A.H.q.H.9.9.9.uX6X=X9XcX:XY.2X9XY.I.~.dXgX^.!.'.8X8XxXCXmXwX7X4X{.pXgX).v.w.| ",
"G G r.m.+.Y U.:X:X<XqX-X%X%X:X:X<X8XU.T P u.+.s.m.| D F [ | r.m.P 2.3.#X3.,X1XU.2.1.K.K.I.d.,.1.3.#X#X;XbX*X*X&X:XU.T.P.,.>.>.F ",
"G D 7.d.6.D K P P P.=X2.2.2.Y #X=X=X3.I 2.P K a.d.6.N D >.G r.q.D K ,.T 5.P.Q.K.<.Y 2.Y Y.T.<.$X*X%X%X-X;X@X2.,.P D 0.r.D D F V ",
"G G r.t.>.D 6.a.u.~.4X3.U.P.Y.Y.4XaX3.P.I.I.a.J._.r.6.e.h.9.H._.>.a.P.I.L.{.].I.P.T.T.2X X3X2X;X;X;X7X9X=XsX=XP.0.k.A.A.k.9.| D ",
"D t.S.j.OXT.I.I.]._.6X4X=XW.T.].}.}.`.I.E.W.`.oXx.XXe.e.g.G.H._.^.I.>X7XeXjX2XjX=X>XyXY.W.W.~.tX/._.D.r.v.k.B.XXH.6.e.h.l.H.8.7.",
"{ 9.9.x.R.^.iX}.K.R.2X3XpX|.oXP.W.~.].oX XoX~.I.k.V.V.OXH.q.F.~.).OX6XxXeX2X4X3X3XvXQ.'.`.].~.XXlXdXs.k.C.F.V.XXw.h.N.N.N.C.`.D ",
"6.G 8.v.~.R.tXu.v.D.^.~.XXkXI.'.[.[.[.oXvXNX,X4X[.[.).dXT.'.3X4X6XsXCXeX<X'.).).F.oXF.k.B.V.V.iX.XOXw.e.Z.Z.S.XXw.h.h.h.g.tXD.9.",
"6.V 8.p.R. XpXd.s.D.J.~.lXiX`.^.`.`.`.kXpXvX<X2X`.`. XgXQ.'.'.<X8XBXxXkX<X{.~.^.).OX_.y.k.k.iXS.Z.S.OXw.w.S..Xy..Xy.e.e.oXC.6.t.",
"( s.S / l.^.[ v.[ { o.{.S.y.S.y.y.h.OX.XB.XXgXP.!.3XsX<XcXwX0XwXBXaX=X5XuX,.6.y.J.6.e.V._.OXZ.e.e.Z.h.XXOXS.w.h.h.N.). Xy.( f , ",
"x b @.d.A B x x A | u.S D P 6.6.m.J.6.6.>.u.K.!.4XY.@X-X&X0XbXbX&X%X#X1.,.s.m.| D F | | r.7.D G F F G 7.y.N D F | G o.` D - ; , ",
"% $ 8 Y 3   $ % % i ) y u B D G 6.r.D D D D G u.P.K.I *X0X*XbXbX*X+X@X#XY L.d.| N B V B [ 6.u N D C B / | B u v x B ..m   # ; - ",
"$ ; n H : & , 6 4 :.a.u S { 6.6.F.J.>.6.9.9.0.~.oXP.Y.qXrXbXmXmX&X:X=X=X=X{.A.9.6.| | 8.f.l.8.{ { { i.j.{ v.[ [ [ X.f.&.O.s 9 # ",
"# J (.E 6Xh j h ;.b.b.#.k h { x.A.A.Z.9.f.g.F.H.j.XX=XbXbXbXcXsX8X=XE.R.^.G.8.G.o.{ l.S o.X.X.c.f.f.o./ { ] o.~.(.r b ' X. XW m ",
"3 d s E W W dX(.5 h ' %.}.z.n.G f.l.N..XS.H.C.t.l.c.4XCXmXbXrXeX9XfX XuXF.t.g.f.f.[.| 7.8.f.f.g.3X]./ o.8.8.o.~.l ` ..i.i.c.cX= ",
"H 5 ` i.i._ yXy ` ..i.i.c.BXC ` 8.f.g.C.uXOXy.Z.C.C.'.MX<X8X[.).F.J.uXe.7.9.g.z._ pX+.A } ..i.NXH.XX6.g.h. .x.jXc A } ..X.nXE.M ",
"R : ` [  .x.jXl ( } } i.NX|.+.( 8.8.g.tXH.XXw.h.B.C.|.mX<X,X`.^.D.iXH.G.6.7.8.{ x.jX/.Z A ) MX/.t.S.oXq.9.R.yXZ |.Z A ) MX/.y M ",
"8 ,Xt v v.5Xc  Xx b ( xXG.J G.x A ) [.l.7.V.oX6.9.S.XXr.XXt.e.9._.k.6.D.hX1 r @.W.r b a.aXxX| b b  ._ sXVXi.z ) _ i.aXxX$.( f , ",
"> > H 4.7 + , , 7 H 1.< - - , 8 T Y.S x C / S y.m.6.D u.,.u.r.s.G C V S < H 3.2 @ > 2 , m w & - ; , - w Y X = > 2 < m w & - ; > ",
"# % $ q I 3 . $ % % i p # X + + $ i i y a y v l S 6.( N C S B [ +.# . O $ # 8 I 3   + # + i i   O $ * # 0 p + X $ > # n m X $ - ",
"$ , ; n U : & 2 e 4 -.T.= 4 e 9 6 L.Q.v A [ [ [ x.v.{ S 9.8.{ x.J.: 9 w d d E.z.j 5 6 e O.=.&.~ 6 w k U z.f `.s e d O.%.&.O.4 # ",
"+ d ;.(.h tXb k h ;.b.b.#.j h g ;.n.b.#.g ` ] X.x.{ F.o.{ { f.n.b.#.g h E ;.(.W 5Xb h (.1 h ! =.}.*.b._ f Q W ' fX(.r b ' X.E.3 ",
"> %.` s ^ W ! dX(.5 h ' &.}.z.(.r Q ] z.}.f.l.0.[ o.o.8. Xc.S )  .z.tXc.pXa.b ] ....kXc ` X.X.i.c.BXxXx _ i.i.} pXy ) $.z.$.$.3.",
"Y 8Xz _ i.i._ yXl ( X.X.i.c.BXC ) X.i.0.c.BXnXx _ i.z.{ pXl _ i.i.i.c.VXL x } i.z.} pX@.( } ..X.NX5XjXy ` } } v.jXl A }  ...hXm ",
"e 2Xy _ _  .x.jXl ( }  ...NX|.+.A }  .X.NXoXjXy `  . .x.jXl ( } ..X.NX|.}.y _ }  .x.jX/.Z A ( MX/.+.G.vXy x c.yXC |.Z A ) MXz.= ",
"& _ kXr z s.5Xc ].c A A xX(.S (.x ( ( nXG.L c.zXa z v.5Xz `.l j b cXv.c ~.hX1 5 @.W.r ) p.aXnX+.b b  . .sXVXa.z _  .x.aXMX@.s ; ",
"$ , , R 4.3 = > 4 3 U 1.< * ; 4 s T Y.5 ; > 7 2 T 4.8 & < , 7 H 5.: * - > < H 2.2 @ > 4 , m w + - ; , - e T X # > , , m w & * ; ",
"+ ; i p * X # $ # 8 I 3   + ; $ i p #   O # + 3 I 2   O + + q i   O # $ # 0 i + X $ > + q n   @ $ $ # 0 3 # X O $ % $ q e * O + ",
"+ $ M U o - , 7 4 O.L.0 : 6 h 8 L.,X: 9 j f s L.&.f 4 6 e :.%.%.~ 9 9 6 M z.f '.s s d ~ %.&.O.9 w d U z.g '.t e e d :.z.j ].0 + ",
"O :.n.b.#.k h E -.(.h oXb g ^ ;.n.b.&.g h E ;.(.E 5Xh g (.1 h ! =.].*.b.O.s E W ! pX(.1 h ' %.}.z.|._ f ! W ! gXz.5X} z ' ' f R ",
"3 = h ! %.}.z.b._ f Q W ' gX(.5 E ' &.5Xz.yX@.j  .]  .kXl Q  .X.X.b.BXkXz _ X.i._ pXy ` ..X.X.c.BXL x _ z.i.} pXBX+.x _ z.i.z U ",
"X s  .i.X.c.BXxXz _ i.p._ pXy ) X.p.#.G.BX+.x _ z.p.} pX+.A } ....nX|.jXy _ } } v.jXy ( } ..X.NX|.}.l ` } } x.jX|.}.y _ _ } _ T ",
"= t } ....NX|.jXy _ } @.x.jXl ( } } X.NXoX}.y ` } } x.jX_.Z ( ) MX/.L G.zXy x R.yXZ |.Z A ) nXH.L 5XvXy z R.yXC L tXvXy z R.'.& ",
"e < b A xX(.S c.kXt z p.5Xx  Xx A ( xX/.L |.zXy l v.6Xc  .z.9XcX@.b b ` A 8XxX@.r b b #.aXnX+.b A _ _ sXVXi.z _ A _ } sXVXx.5 , ",
"> 2 H 5.< - : 2 , R 4.8 & , 4 8 T Y.5 ; < 4 2 T 4.8 & < 2 , m w + $ ; > * e R . # > 2 > M w & - > > - w e X = > ; < - w w X * > ",
"# - $ q I 3 . $ ; $ i p # X + O % i p + . O + + 7 I 3   # % % i p + . O $ # q I 3   @ # # q p   O $ $ # 0 n & o * > # n m X # ; ",
"# > > n U : # 2 e 4 -.T.- 4 s 8 6 L.Q.: 9 d j e L.'.s 4 j W w E.3X: 9 w w j E.*.f 5 6 e O.%.&.~ 6 s k J z.f '.t e d O.%.&.O.4 # ",
"# d -.(.h oXb h g ;.b.b.#.g h g #.b.b.#.k ^ E L.(.E |.j h h ;.n.b.#.h ^ E -./.Q oXb h (.4 h ' ] }.z.b._ f Q W ' gX(.5 b ' &.E.2 ",
"> %.` f ^ Q W dX(.5 h ' %.}.z.(.r b ] &.|.z.b.$.j `  . .jX Xt ( X.z.5Xc.pXa.b ......zXc ` ..i.i.b.BXxXx _ i.i. .pXy _ X.i.X.$.3.",
"Y 8Xz ) i.i._ pXy ) ..i.X.c.BXC ) $.p.i.c.BXzXx } i.z.} pXl ` 0.i.i.F.BXL x _ z.z._ pX+.A } ..X.NX5XjXy _ }  .x.jXl A } ..$.hXm ",
"n 2Xy _ } } x.jXl A } ..X.NX|.@.(  ...$.NX|.kXy _ }  .v.jXl (  .....NX|.}.y ` }  .x.jX/.Z A / MX/.+.G.zXy x R.yXZ oXZ ( ) MXz.= ",
"@ ' kXt z s.6Xc  Xx A A xXG.J G.x A ( MX/.L G.xXa c v.5Xz ].l z x cXv.c ~.hX1 5 @.T.r _ z.aXxX+.b A  . .aXVXa.z @._ p.aXMX@.s ; ",
"$ , > R 4.7 # < 2 7 m 3.< * ; 4 s T Y.4 ; < 2 2 T 4.7 & < , 7 m 5.< $ % < < H 2.3 @ > 2 , m w # - ; , * e T X # > , , M w & * ; ",
"# % p m $ X # $ # 8 I 3   # - $ i i #   O $ + 3 I 2   O + + q i   O # $ # 0 i + X $ > # q p   O $ $ # 0 3 # X O $ % $ q e * @ # ",
"+ $ m U o * , 9 , O.L.5 : e j 8 L.'.: 0 d d s L.#.f 4 e e :.%.%.~ 9 6 e M z.d '.s s e O.&.&.~ 6 d w U z.k `.t e e d :.z.j ].5 + ",
"+ ~ b.b.#.k h E -.(.b |.b h h ;.n.b.#.k h ^ ;.(.E |.b g (.1 g W ] }.*.b.O.d E W ! pX(.1 h ' =.}.z.|._ j ! W ' gXz.tX_ z ' ' d R ",
"3 = h ! ] }.z.b._ j Q W ' fX(.r b ] &.|.z.uX .b ] ]  .lXl Q  .i.X.b.NXxXz _ X.X._ pXl ` ..#.X.c.BXL c _ z.i._ pXBXL x _ i.p.f U ",
"X s  .i.$.c.BXzXz _ i.i._ pXl ` X.i.i.c.BX+.c } p.z.} pX@.( } ..$.NX5XjXy ) } } v.jXl ( } ..i.NX|.}.y ` }  .x.jX|.}.y _ }  ._ T ",
"= t }  .X.NX|.jXy _ } } v.jXy ( @...X.NX|.}.y ) _  .x.jX/.x ( _ MX/.+.G.zXy x v.tXC |.x A ) MX/.L 5XzXy c R.tXZ L tXzXy c R.W.& ",
"8 1 b A xXG.J c.kXr z x.5Xc ].x A ) xX/.L |.zXy l v.tXl  .p.9XcX+.z b _ Q 4XnX@.r h b a.aXxX@.b A _ _ sXVXa.z _ A _  .sXVXs.t > ",
"% 3 H 1.< - : 2 , T 4.7 & > 2 6 T Y.5 < < 2 2 T 4.9 & , 4 , m w + % ; > * e Y . # > 2 , m w & * < > - w w X # < ; > - w w o $ > "
};
