/* XPM */
static char *result[] = {
/* columns rows colors chars-per-pixel */
"64 64 198 2 ",
"   c #2B1B0F",
".  c #331E11",
"X  c #3D2515",
"o  c #3E2816",
"O  c #422715",
"+  c #422917",
"@  c #462B18",
"#  c #4B2D19",
"$  c #4F311B",
"%  c #54331C",
"&  c #59351E",
"*  c #5D391F",
"=  c #603A1F",
"-  c #5E3A20",
";  c #643D21",
":  c #693F22",
">  c #6D4124",
",  c #734525",
"<  c #784726",
"1  c #774827",
"2  c #7A4927",
"3  c #7D4B28",
"4  c #834E2A",
"5  c #894F2B",
"6  c #804B27",
"7  c #86502B",
"8  c #8B522C",
"9  c #92562D",
"0  c #98572E",
"q  c #9A5A2F",
"w  c #96592F",
"e  c #8F5630",
"r  c #955732",
"t  c #955A31",
"y  c #9C5D31",
"u  c #A15F32",
"i  c #A46134",
"p  c #AA6635",
"a  c #AD6836",
"s  c #AD6738",
"d  c #AE6838",
"f  c #B16A37",
"g  c #B06738",
"h  c #B36B39",
"j  c #BC753E",
"k  c #C97702",
"l  c #CB7B03",
"z  c #CC7D09",
"x  c #D27D06",
"c  c #D47F0B",
"v  c #CE8303",
"b  c #CF860B",
"n  c #CF8901",
"m  c #D38405",
"M  c #DB8504",
"N  c #D38C03",
"B  c #D98A06",
"V  c #D4850C",
"C  c #D8860C",
"Z  c #D38B0B",
"A  c #D9880D",
"S  c #D69405",
"D  c #D99504",
"F  c #DB9E04",
"G  c #D5930B",
"H  c #D99D0D",
"J  c #DA960B",
"K  c #CC8419",
"L  c #D58515",
"P  c #D48B13",
"I  c #D48C1C",
"U  c #D98C17",
"Y  c #D69414",
"T  c #D99817",
"R  c #E5940F",
"E  c #E79907",
"W  c #E79C15",
"Q  c #DDA403",
"!  c #DFA905",
"~  c #DDA309",
"^  c #DEA808",
"/  c #DDA519",
"(  c #E2A505",
")  c #E1AC05",
"_  c #E1A20C",
"`  c #ECA40D",
"'  c #E2AD0C",
"]  c #EAAF06",
"[  c #E2B203",
"{  c #E3B40C",
"}  c #EAB50C",
"|  c #F6B801",
" . c #E3AE12",
".. c #E0A51B",
"X. c #E0AE19",
"o. c #EAA318",
"O. c #E2B314",
"+. c #ECB912",
"@. c #E3B41A",
"#. c #E6BA1A",
"$. c #ECBB1A",
"%. c #D98D22",
"&. c #D78F2A",
"*. c #D9922D",
"=. c #D69B28",
"-. c #D29739",
";. c #E79F20",
":. c #DAA629",
">. c #DDAD32",
",. c #DFB63C",
"<. c #E6A52A",
"1. c #E2B523",
"2. c #E4BA24",
"3. c #E0B329",
"4. c #ECBE2D",
"5. c #E6B929",
"6. c #E2AF3C",
"7. c #E4BD33",
"8. c #E1B63F",
"9. c #E3BD3B",
"0. c #E7B937",
"q. c #F8C21C",
"w. c #EFC32D",
"e. c #F9C82C",
"r. c #FFD426",
"t. c #E6C13E",
"y. c #EAC135",
"u. c #F5C133",
"i. c #FFD737",
"p. c #FED73B",
"a. c #D39A49",
"s. c #D8AA5F",
"d. c #DEB956",
"f. c #D7A54C",
"g. c #E3BE43",
"h. c #E9BF44",
"j. c #E4B34B",
"k. c #E1B946",
"l. c #E5B757",
"z. c #D7AA67",
"x. c #DEBD65",
"c. c #DFBE72",
"v. c #E1B16F",
"b. c #E3B672",
"n. c #E5C143",
"m. c #EDC544",
"M. c #E5C44C",
"N. c #EBC34A",
"B. c #FED748",
"V. c #E5C554",
"C. c #EBC652",
"Z. c #E5C65C",
"A. c #E5C85C",
"S. c #E9C85A",
"D. c #F0CD59",
"F. c #FEDB53",
"G. c #FFDE59",
"H. c #E4C662",
"J. c #E9C364",
"K. c #E5CA64",
"L. c #E6CC6C",
"P. c #EBCC6C",
"I. c #E8C766",
"U. c #FCD860",
"Y. c #E5CC74",
"T. c #EBCC74",
"R. c #E5CE7B",
"E. c #E7CB77",
"W. c #E7D07E",
"Q. c #EBD17D",
"!. c #F0D178",
"~. c #FFE26C",
"^. c #FEE27F",
"/. c #DCBD8A",
"(. c #E4BD84",
"). c #DFC596",
"_. c #E5CF84",
"`. c #E3C286",
"'. c #E6D084",
"]. c #E5D18C",
"[. c #EDD38D",
"{. c #E6D392",
"}. c #ECD593",
"|. c #EDD895",
" X c #E5D59C",
".X c #EBD59B",
"XX c #FFE685",
"oX c #FEE689",
"OX c #EDD9A4",
"+X c #EDDAAA",
"@X c #EED7A2",
"#X c #EDDDB3",
"$X c #ECDDBB",
"%X c #FFEEA7",
"&X c #EFE0BC",
"*X c #ECDFC3",
"=X c #FFF4C9",
"-X c cornsilk",
/* pixels */
"+ + + @ + @ + + + + O o o + @ @ O O + + O + O + O O X + O O X X # % $ $ $ $ $ $ $ # # # @ O O + + + o + O @ O X X o o o o + X o ",
"$ $ & ; , 3 4 9 9 9 9 7 9 8 9 q u u q q 9 8 4 3 3 3 < < : : ; ; ; : : , < < < < < < , = : : < 3 4 8 7 1 2 6 3 4 4 < : > = > & + ",
"& > 7 7 7 8 9 i a a f f f a a a a a a a p p i u q 0 8 4 6 2 < < < < , , < : = = = = = , 6 4 5 9 9 y i p p p p i u 8 8 3 2 > : @ ",
"$ - : > , 2 2 7 7 9 w w q u q i p i i i p p p p p p a a f f g p u u u 0 5 8 < = = = & % % % % % % & ; > 2 2 2 2 2 2 6 , 2 * > + ",
"# $ ; ; ; > , 2 3 < > ; * = > , < , , < < , : , , < 2 < < 2 2 4 5 0 u u u p p p i i u u q q q u i y u u y q u u u 7 7 3 , 2 & + ",
"$ - ; $ ; ; 2 8 8 7 7 6 = = = = > 6 5 4 6 2 3 2 2 3 6 2 < : : : : : = : < 6 4 9 9 0 q u i i a i u y 0 9 0 9 8 3 3 4 7 7 > , & o ",
"% ; , & - & , q f a i q 9 < < < < < 4 9 9 8 5 6 6 5 5 5 9 4 6 , , : , < > = = = = > , , < , , < 6 9 8 < < < 2 < < 3 3 2 = > > + ",
"@ % ; > > > > > : , < , = ; , 3 5 5 8 9 0 9 0 9 y u u p a p g f h h p a a a f g p p i u u 9 4 < , 2 6 4 1 2 4 4 4 4 3 3 > > % o ",
"$ @ % > , > > > 2 4 8 9 9 0 0 0 q u p i i u 0 0 9 8 q q 9 7 4 2 < = : , : : > > > > , , , , 2 < , > ; ; - > , 3 6 2 1 : : ; = + ",
"$ % $ $ = 1 2 2 6 5 5 5 8 8 8 5 8 4 5 9 9 9 9 9 9 9 0 q q u u y 0 9 8 0 y t 9 3 6 2 4 6 7 7 9 9 7 7 4 7 8 8 7 e 6 2 : > > > > @ ",
"# $ $ $ % % $ % & & * * = ; ; : ; > > > , : , , , > > , 2 2 3 3 6 4 6 5 3 2 1 > > > , > > : = * = * & % = ; $ $ % % % $ $ @ + o ",
"o o X X   v b b Z G S G S J S D S n v v v v l k k l k l l l k k l l l k k k v k l l l l l v l v l v v v v v v v v v v o X X X X ",
"@ $ $ & . :.k.k.g.g.g.g.n.g.9.9.,.,.2.O.@.@./ T T H H H ~ F Q Q Q Q Q Q Q Q Q Q ! ! ! ! [ ! ! { { X.:.=.T G Z v n v m X # % # & ",
"$ $ # & X d._.R.R.R.].{.{.{.{.{.{.{.].'._.].].'.L.H.Z.H.V.#.[ ) [ [ O.@.2.2.w.,.7.7.9.y.t.n.V.K.K.L.E._.L.n.>.H N n m O @ % # & ",
"# % # & X :.9.n.n.t.M.L.L.L.Y.W.].'._.].].].'.{. X X X X'.t.{ O.@.t.M.H.R.W.Y.R.Y.Y.Y.Y.Y.W.W.'.'.W.Q.L.M.w.#.! S n N O # % $ % ",
"= , = > X N S H / :.3.7.t.n.M.M.n.t.g.A.V.A.L.].[.'.Y.L.K.M.t.M.K.Y.K.Z.V.A.K.K.K.L.Y.Y.Y.Y.Y.W.W.Q.Q.L.V.V.t.@.~ N B O = , = , ",
", 6 , 2 X l P -.z.)./.).`.c.x.d.,.3.1.V.Z.V.M.V.A.A.A.A.V.V.V.K.L.A.n.y.t.V.A.Z.Z.Z.A.Z.Z.Z.A.K.H.K.A.g.Z.Y.H.k.k.:.m * , 6 , 6 ",
", 6 > < O l K -.a.z.a.z.f.=.I Y H ^ ^ { X.O.{ O.5.y.,.y.7.2.2.2.@.O.{ { { #.2.w.2.2.2.1.1.@.@.X.O./ O./ b.Y.V.k.>.K x = > 6 , 3 ",
", 6 , < & v v z l z v P b n N N S Q Q ! Q ^ Q ! [ ^ ^ ! ^ ^ ~ ~ Q ~ F D S S S S G S G N N N N N N N N N G Y Z b z l l : > 4 , < ",
", 6 > 2 : s i i s s s h a s s s a i y y t t y y y y i y t p p e 2 8 t t e e t e t 9 y u i y y y u i y i y y y y t w y * , 4 > < ",
"< 4 , 1 : w w y y i y y y y y y y y q q t 9 e 7 7 7 7 7 7 3 3 > ; 1 3 1 1 1 , , , , , 1 1 1 1 1 1 1 1 1 1 3 3 3 3 3 < & , 4 1 < ",
"> 4 , , * 3 3 4 7 7 8 8 e e 8 8 7 7 7 7 7 7 7 7 7 7 7 7 7 3 1 > - - - > ; > ; ; ; ; ; > - > > > > > > > > > > > > > , % > 5 , 1 ",
", 8 , < & 1 1 < , 1 1 2 2 3 3 3 7 7 7 7 8 9 9 8 8 9 e 8 7 3 > * - - > > > > > > > > > > > > > > > > > ; > > > > > > > % , 5 , < ",
", 8 , , $ - > ; > > > > , , , > > > > , > > , , , , , > > > > * - > > > > , , > > , > > , , > > > > > > > > - ; ; ; ; # , 8 , , ",
", 9 < > $ ; ; ; ; ; ; > > > > > , , > , > > > > > > > > > > > , - > > > - - ; > ; > ; - ; ; ; ; : : : : ; : : > > , , & , 9 < > ",
"< 8 < > & 1 2 2 1 1 < 2 1 , > 1 , 1 , 1 1 1 1 , 1 1 , > , , , , > > ; > > > > ; ; ; > > > > : > : > > > > > , , > , > & , 8 < > ",
"< 9 < : # ; > ; ; ; ; > > ; ; > - > > ; ; ; ; ; > - > - > - - > - > > > > ; > > > > > > > > ; > > > : > > > : : > : > # 2 8 < > ",
"1 0 < : O & & & & & & & & & & * - * - & * - % * & & - & - & & * - - - - - % - $ % & & & % & & & - - - % & - & & & - - @ 2 9 < > ",
"< 0 1 > # - * * > , , , , & & - ; > > ; ; > ; = - & > > > > > - - - ; - - ; , > > > > > > ; ; - - - : , < , , * & - ; % < 9 1 > ",
"1 9 4 > & , > : > ; ; > > & & * - > > > > > 1 > > - * * , , 1 , > > > > : - > > > < 1 3 1 1 < > : ; : : > : : * & - ; # < 0 4 > ",
"1 9 4 , ; 7 4 4 1 , > > > & - ; ; ; > > > 1 1 3 7 3 , > > > 1 2 3 3 , , > > > > > ; > , 1 3 7 8 4 3 1 , > ; ; & ; ; ; # < 9 4 , ",
"< 9 8 > & < 4 7 9 8 7 3 2 & > , , > > - > > , 1 3 3 8 7 2 , , > 1 1 3 7 3 1 , > > , , , > > , 1 4 8 9 8 4 4 1 - : , , % 1 9 7 , ",
"2 9 7 , & , > < < 3 8 9 9 & ; > , 2 , , , > > > > 2 2 3 4 8 4 < , , , 3 3 7 8 7 7 1 , 2 2 2 , , > , 1 3 7 9 9 & ; > , & 2 9 7 , ",
"< 9 9 , & 3 2 2 , , , < 1 & ; : > 1 3 2 2 2 < , < > , , 1 3 4 8 8 3 , , 2 1 3 3 7 7 7 7 3 2 3 3 2 2 , < , , 2 & = > > & < 9 8 < ",
", 9 9 , > 3 6 6 3 4 1 1 < & ; ; > > , < 4 4 3 3 1 , < < < < 1 3 3 8 8 8 3 , , 2 2 3 3 7 7 7 8 7 4 4 3 3 2 1 , & ; ; > % , 9 9 , ",
", 9 9 , > 7 9 7 4 4 4 4 4 & ; : > = ; > > > , < 2 3 3 1 < < < 1 3 3 3 8 e 9 7 3 < , , 2 4 6 7 8 8 8 7 4 4 4 4 & = > > # > 9 9 < ",
"> 9 8 , * 3 4 9 0 0 8 8 4 & * : > > , > > ; > > > > > 1 3 3 1 < 1 , 2 3 7 7 8 9 8 7 2 1 , < 1 1 7 9 q 0 8 7 7 & & : > % , 9 8 , ",
"> 8 8 , & < , , 1 4 7 8 9 & & ; > > , 2 3 2 , > > > > > : , 1 1 2 < , , , 1 3 7 9 9 9 7 3 3 2 < , , 2 4 7 8 9 & & : : & > 8 7 , ",
", 8 7 , ; 4 3 2 < < < < 1 & & - > = ; ; > , 3 4 3 2 1 , , > : , , , 1 2 < < , < 2 3 7 0 9 8 7 3 3 2 2 , , 2 2 & % = > # , 8 9 > ",
", 7 7 , > 8 8 7 4 4 1 2 3 & % - ; > , 2 > ; ; ; > 1 2 2 3 , < , , < , , 1 2 3 3 3 3 2 2 7 8 r 8 7 7 4 4 6 2 2 & & * = $ > 8 7 > ",
"> 7 4 > = 7 8 9 9 8 8 6 3 - - - > > > , 3 3 , > - ; - ; : , , < , < , , < < 1 1 1 1 3 3 3 3 3 7 8 w 9 8 7 4 6 & * > > % > 8 7 > ",
"> 6 4 > & , < 3 3 5 9 y 9 % & ; > > , , 1 3 7 8 4 , : ; ; ; ; : > > , > > , > > , , , 1 , , , 1 < 2 6 7 9 w 9 & & & > $ > 3 7 > ",
"> 2 4 , & > > > : : : , < & - ; , , > , , > , 3 6 5 5 6 3 : , : > > > ; ; ; ; ; - > > ; > , > > > > > > > , < & * > > % > 2 7 , ",
"> , 7 2 # ; = = - ; ; - % - * ; > * * % - & & - - ; - - - - - - & - - ; ; ; ; ; ; ; - ; , > ; ; ; ; = = * & & * * * * + > , 7 1 ",
"= , 8 2 & , < , < : > > > > : , 3 > ; ; ; ; ; : : : , , , , , , > > > : > > > > ; > > > 3 3 > ; ; ; ; > > , , = > > : # : , 7 2 ",
"> , 8 3 = 7 8 8 8 8 8 8 8 8 8 y p y x x V L L L U *.*.*.I L V A A P V V L *.v.(.`.b.&.c i y 1 < < < 2 2 < 2 , , , , < * > > 7 2 ",
"= 2 8 2 = 4 7 7 7 4 4 4 4 3 3 4 t 8 c R <.j.l.J.[.+X@X}.P.h.0.4.4.C.I.P.'..X$X@XC.5.Z x 7 3 > : ; ; ; ; = , , , 2 2 7 > ; < 7 3 ",
"= 3 7 , = 3 2 2 < , < < 3 1 1 8 t 8 C } 5.y.y.m.'.|.|.[.T.C.h.C.I..X$X*X*X*X$X+XC.+.( J t 8 > > , > > > > > , , > > > % ; 2 8 < ",
"> , 7 , $ = > = , : : : : : : : 3 > Z ..Z.T.T.Q.[.OX$X#X|.P.I.P.P.}.$X+X#X$X@X!.D.w.+.] s p 5 5 5 4 4 4 6 6 4 6 < , < - ; < 5 , ",
"> , 4 < $ , , , , , : , < , < 4 8 3 B  .9.l.N.!.|.|.[.P.m.4.$.$.+.4.C.S.}.#X.XP.q.G.i.] 8 4 , , , < < < , < < < 3 , : - : , 4 < ",
"= , 8 < & < < < 2 , , < , , , 6 8 1 m D `  .u.G.h.5.$.' ( ( ( ~ _ ......6.l.j.E ~.-X%XF 4 4 : : ; : = : ; ; : : : : , % ; < 5 < ",
"= 2 8 < & 3 3 6 2 6 2 2 4 6 6 8 p p c B M o.oX%XR B B M M m M A U %.U C C C U W XX=XXXC r 4 , : : : ; ; ; ; ; ; ; ; : % ; < 8 < ",
"= 3 7 2 ; 7 8 8 8 8 8 8 r y u p j j h h M <.oXU.p i s g h s s s u u y y y y y M e.G.r.8 7 > : ; : ; ; ; ; ; ; ; : = ; # ; < 4 1 ",
"; 3 2 1 & 3 6 6 4 8 8 8 5 4 8 4 8 4 7 4 7 W G.4 7 7 7 e e e 7 4 8 4 4 4 4 4 3 1 ` i.> > ; = - * = * * * * * * * & * = @ ; < 1 < ",
"= 2 2 > = 4 4 6 3 < 1 , > > : : > > : > : ;.XX= : > > > : , < 3 3 1 1 1 3 < < , ` B.< , , > > : : > , > , , , , , > > # ; 2 3 > ",
"= 2 2 > & 3 < , , : : : : : : ; ; : : > : > XX, , , , 1 < < < 3 3 3 3 6 3 3 2 2 ` F., < < < < < 3 < , , : , , , , < < % - 1 1 , ",
"= > , > & > : > : : : > > > > > : 6 : < < : U.: , > , , , , : , > > > > : > > > W F.> , > , , , , < < 1 2 3 3 2 < < < & = > < ; ",
"* > , , & > , , , < , < < , , < < : < : < : e.: : : : : : : , , > , , , , > , > R B.> > > > : , > > , > > > > > > > > % = > < , ",
"& ; = > # $ $ % # # # # # @ @ @ + @ @ @ @ O O O O @ O @ @ @ @ @ # # # # # # # # # q.# # # # # # # # # # # # # # # # # # & ; ; ; ",
"& & & * & & & & & & & & & & & % & & & & - & & & % & & % & & & * & % & & & % % - & | & & & & * & % - & & & & & & & & & & & & & - ",
"$ $ & ; , 2 7 9 0 9 8 8 9 9 9 q u u u 0 0 0 4 5 6 6 3 , > : = = ; : > , , < , < < < , > ; : < 4 5 8 7 2 3 6 3 6 7 1 > > ; > - + ",
"# $ * ; = ; > 2 1 < > ; * ; : , 6 : : 6 : : : : , < 3 < < 2 3 4 7 0 q u u s p p i u u q y w q u i y y u y q i i q 7 7 3 , 1 & + ",
"@ % > > > > ; ; > , < > ; ; , 6 5 5 r 0 u 0 u 0 u u u p p a a f f f a a a a f a p p p i u 9 7 < , 1 3 4 3 2 3 7 7 4 4 3 ; > % + ",
"$ $ $ $ % & & & & & * = ; ; ; : : : : : : : : 6 : : : : < 3 4 3 4 4 4 4 6 3 2 > : > , ; > > ; * * - & & * = $ $ $ & $ # % # + X "
};
