/* XPM */
static char *result[] = {
/* columns rows colors chars-per-pixel */
"64 64 123 2 ",
"   c #975006",
".  c #9C5407",
"X  c #9D5408",
"o  c #A25607",
"O  c #A55807",
"+  c #AC5B07",
"@  c #A15608",
"#  c #A55B09",
"$  c #AB5D08",
"%  c #B25E07",
"&  c #B25E08",
"*  c #AD630B",
"=  c #B66007",
"-  c #B96207",
";  c #B56208",
":  c #BC6408",
">  c #B56A0D",
",  c #BC6B0B",
"<  c #BE740F",
"1  c #BC7311",
"2  c #B17019",
"3  c #B8761B",
"4  c #BE791A",
"5  c #C16608",
"6  c #C56A09",
"7  c #C96B08",
"8  c #C5740E",
"9  c #CD720B",
"0  c #C6780F",
"q  c #CE7A0E",
"w  c #D1750C",
"e  c #D57B0E",
"r  c #D87F0E",
"t  c #C27511",
"y  c #C37810",
"u  c #CC7D10",
"i  c #D07D10",
"p  c #D9810F",
"a  c #CC8111",
"s  c #C5801D",
"d  c #D38312",
"f  c #DC8411",
"g  c #D58914",
"h  c #DF8912",
"j  c #DA8E18",
"k  c #DE9016",
"l  c #E18B13",
"z  c #E59216",
"x  c #E89415",
"c  c #E79917",
"v  c #EE9B17",
"b  c #E6951C",
"n  c #E89619",
"m  c #EB9B19",
"M  c #F09E18",
"N  c #EEA21E",
"B  c #F3A31B",
"V  c #F7A81D",
"C  c #F9AB1D",
"Z  c #D9942A",
"A  c #DF9B29",
"S  c #DD9D34",
"D  c #E69A22",
"F  c #EC9F20",
"G  c #E59C2C",
"H  c #E99E2A",
"J  c #E69D31",
"K  c #E9A12D",
"L  c #F2A420",
"P  c #F6AB22",
"I  c #FAAE23",
"U  c #F2AC2C",
"Y  c #F8AF2B",
"T  c #F9B026",
"R  c #FBB32A",
"E  c #EBAC36",
"W  c #E2A63B",
"Q  c #F1AE35",
"!  c #F3B234",
"~  c #FAB632",
"^  c #FAB834",
"/  c #F2B43C",
"(  c #F7B83D",
")  c #FBBC3C",
"_  c #EDAD45",
"`  c #F5BA43",
"'  c #FABF41",
"]  c #F3BD49",
"[  c #FCC244",
"{  c #F7C14B",
"}  c #FCC54C",
"|  c #FCC84E",
" . c #F5C555",
".. c #FCC453",
"X. c #FDCB54",
"o. c #F8C25A",
"O. c #FDCD5A",
"+. c #FDD15E",
"@. c #FCCC64",
"#. c #FDD464",
"$. c #FED56A",
"%. c #FED96C",
"&. c #FDD474",
"*. c #FEDC73",
"=. c #FCD47F",
"-. c #FDDB7B",
";. c #FFE07A",
":. c #FDD280",
">. c #FEDC83",
",. c #FDDF8C",
"<. c #FEE183",
"1. c #FEE38C",
"2. c #FEE494",
"3. c #FFE897",
"4. c #FEE59A",
"5. c #FFE99F",
"6. c #FEE4A1",
"7. c #FFEBA3",
"8. c #FEECAC",
"9. c #FFEEB6",
"0. c #FEF0BD",
"q. c #FFF3CC",
"w. c #FFF6D4",
/* pixels */
"f r w e B R O.) ^ . ; 7 7 7 w w p r w 7 9 ~ %.+.~ [ U X : 6 w e l e w e B ~ +.) ^ . = 6 7 7 w w f r w 7 w ~ #.+.~ } U . : 6 w e ",
"w 9 e z X.X.L B ^ ! O ; 6 6 7 7 r e 7 7 { #.R e e V ~ { @ 5 6 7 9 w e z X...V B ^ Q O % 6 7 7 7 r r 7 7 ] #.R i e C ~ [ X 5 7 7 ",
"7 7 b X.^ z + 6 x ^ / o + 5 7 7 7 7 7 O.| V + % 6 p x T / O & 6 7 7 x X.) z + 5 z ) / o + 5 7 7 7 7 7 X.| V + & 7 e x R / O = 7 ",
"= H ) C < + 7 w f i ` ! - + & 5 6 e { T v $ : 7 q p f p ' ) i + & H ) C , + 7 w f e ` ^ : O & 5 6 e [ R m + : 7 w r p f ' ( d + ",
"Q R C $ 5 w e w f l f Q ~ M 7 6 U @.R z + 5 7 e r h l h f R $.( Q T C + : e e 9 p l f Q ^ v 6 8 U @.T k $ 5 7 e r l l l f ~ $.) ",
"I B O % 9 9 9 w f r f r ( ' C T *.T > $ 5 7 e r h h l z f l ^ -.T B $ & 9 9 9 e f p p p ( [ V T *.T , $ 6 6 r r l l l l f f ~ >.",
"c . % : 9 7 7 w w r r q e ) ,.-.X.n = % 7 9 r r p h l h w e ) 8.c . % = w 7 7 9 e r r w e ) 1.*.O.z ; + 7 7 r r r f l f w e ) 8.",
"> X + : 6 6 7 9 7 w w u h } 0.3.} m d + 7 w e e e p e w 9 U ;.q.> . + : 7 7 7 7 9 9 w q l { 0.3.| m g $ 6 w r e w l q e 7 U *.q.",
"B X O : 6 7 7 7 w 9 8 , I #.*.1.6.&.c X = 7 w w 7 w 9 , D ;.#.@.B X O : 7 7 7 7 w 9 7 , T #.*.1.6.&.c o & 6 w w 7 w 8 5 D ;.$.@.",
") ) X O : 7 7 7 7 7 6 Y $.[ C E X.&.%.4 . % 6 6 : : : N ;.$.R C ) ( X + : 6 7 7 7 7 8 Y $.[ C E X.*.#.4 o % 6 5 5 : : L ;.%.T C ",
"6 U ] X & 5 6 6 , , ^ *.) C - , w ) #.$.3 . X = : 6 B *.%.I B O , U { . & 5 6 6 , , ^ *.) C ; 5 q ( @.$.3 . o : : 5 L *.%.T B O ",
"6 f I  .s O # ; i | *.^ B O O 7 e w h [ %.[ ! I B ^ *.X.C z + - 7 p I  .s @ $ ; q } *.~ B O O 6 e w l } %.' ! C B ^ *.X.C z O : ",
"6 7 l V X.[ ^ C X.#.I z o + 7 7 7 e r f ^ X.X.O.-.4.| C g + 6 9 9 9 p C X.[ ~ C X.#.T z o + 7 7 7 e r p ^ X.X.O.-.3.} C g + 5 7 ",
"7 l w f V +.-.-.X.I d O = 7 7 9 r f p e p ) | 5.0.%.T > + 7 w p l l e p C +.-.-.X.T d O = 7 9 9 e f p e f ) X.5.9.%.T > + 6 7 7 ",
"e z e w e &.w.X.I u O & 7 7 e p f r f w w m $.w.<.^ < . - 7 f l l x p 9 e &.q.O.I a O & 7 7 e p f r p w w m #.w.<.^ < . - 7 6 7 ",
"w l h 9 z ..6.&.V ; O 5 7 9 p l l p f e e { -.#.T C a X & 7 f l l x h w z ..6.*.V + O 5 7 7 p l l r l e e { -.#.R C q O & 7 6 7 ",
"7 e 7 r o.O.) 1.O.k o = 7 7 e f l f w e J #.[ C } ^ C u X 6 w f f r 9 e o.O.( 1.O.k o ; 7 9 r p l f w e S #.[ C } ~ C q . : 6 7 ",
"7 6 w J @.C v Y +.$.D * 6 7 7 9 e 7 e S $.^ C q e ) O.R 0 O 7 9 7 7 w J O.C v I #.$.D & 6 7 7 7 w w e S $.^ C q r ) +.^ 0 + 6 7 ",
"7 7 G ..P & & w C [ +.A q 7 6 6 7 8 W #.R B O - 9 e m %.+.t % 6 7 7 G ..P $ & e C [ +.A 9 7 7 7 6 9 W #.R B O : 9 r b %.+.8 = 6 ",
"6 H ] m X - 7 7 r x [ | E f 6 : : ` #.[ c O : 9 w 9 h p O.;.Z , 6 H o.m X : 7 7 r z ' } E f 8 = , ` +.[ z o : w w 9 h p X.;.Z : ",
"R ( j . 6 7 e f f h z ) [ I m v T X.[ g O : 7 w p e r h p ) ;.#.~ ) j   6 7 e p p l z ) } T v v I O.[ g $ : 7 w p e e h d ) ;.#.",
"T < . 6 9 e f f l p l f R O.+.+.4.} , O = 6 r h h l l w h l R <.R 8 . 6 9 e p h l p l f R O.O.+.4.{ , O & 6 p f h l l e h l R <.",
"* o $ 7 w r p f r f f l N =.3.9.-.< . + 5 9 p p h l h l w l | ;.* o + 7 e e p h r l p l m :.3.9.-.t . + 6 7 f f h l h z 9 l | ;.",
"o X ; 7 9 e e f p e e f P &.8.5.} a O $ 5 9 e p p h l r p V ;.;.. . % 7 9 e p p e e p p P -.8.6.} u O O 5 9 e r p p h e p I %.;.",
"y o $ : 7 9 e e 9 w e b 1.X.) *.$.~ < X ; 7 7 9 7 w w e x ) $.[ 0 o + 5 7 9 w e 9 w e b 1.O.) *.$.^ < . = 7 7 9 w w w e x ) $.[ ",
"R u + & 5 7 7 6 7 r H 1.+.C ) T #.;.O.< o 6 7 7 7 7 7 m X.X.| C R u & + 5 7 7 7 7 p H 1.O.C ) I #.;.O.< o 6 7 7 7 7 7 m X.X.X.C ",
"I ) 8 ; + 5 6 6 6 _ <.+.C C < 8 V ' ;.;.2   + + O X D | [ ' * = I ( 8 ; & : 6 6 6 _ <.+.I C < 8 V ' -.;.2 . + + O . m | [ ' * - ",
"9 M } b 9 , : 6 / ;.| C B . + 6 7 z I -.*.' B V B ( >.%.^ $ O 6 9 M | n 9 : : 6 / ;.| C V . + 6 6 x I -.*.' N V B ( >.$.^ # $ 6 ",
"e l m @.' C T } -.) C k X 5 6 9 p p p Y =.1.X.$.>.2.X.I X * 7 w e l m @.' V I } *.' C z X 5 6 9 p p p T =.1.X.%.>.2.X.C O * 6 w ",
"f r l n >.@.;.1...C g = 7 7 9 r h p r p C #.5.7.6.| c . = 6 r f p r z n >.@.;.1.| C g = 7 7 7 r h p r p C #.5.7.7.| m . = 6 r p ",
"f l f l M >.4.) C * ; 7 7 9 r h p l p r l I O.8.[ V   = : 9 p f l l f l m -.5.) C * % 7 7 9 e h f l f e l C O.8.[ V   = : 9 p p ",
"f l f p l ..} C 0 . = 7 7 7 e e p p e 7 7 C ^ *.C C X ; 5 7 r f l f f p z ..} C 8   - 7 7 9 e e p r e 7 7 C ) *.C V X & 5 7 r h ",
"l e w r B ^ O.) ~ . & 7 7 7 w w l r w 6 w ~ $.+.~ { Q   - 6 w e r r w r B ~ O.) ~ . = 6 7 7 w w p r w 7 w ~ #.+.~ } U . : 6 w e ",
"9 w i z X.X.B B ^ ! O & 7 7 7 7 e i 7 7 { #.R e e C ~ ' o 5 7 7 w 9 r l X.| V B ) Q O % 6 7 7 7 p r 7 7 ] #.R i e C ~ [ o : 7 7 ",
"7 7 n X.^ z $ 6 x ^ / o + 5 7 7 7 7 9 X.} V % & 7 r x T / O : 6 7 7 b X.) l + 5 x ^ / o + 5 7 7 7 7 9 X.| V % & 7 e x T / O = 7 ",
"& H ) C > $ 7 w f r ` ! : O & , 7 w [ T c $ - 7 e r f f ' ( i + & H ) C > $ 9 w f r ` ! = + & 5 7 w [ T v + = 7 e e p f ' ( d + ",
"Q R C % : w e w f l f Q ~ M 6 6 U @.R k O 5 7 e e l l l f ~ $.) Q T C + 5 w e e p l l Q ^ v 6 8 E @.R z $ : 7 e e l l l f ^ $.) ",
"I M O % 7 w 9 e f r f r ( [ C T *.T > $ 7 7 e p h l l l f f ~ >.T B $ % 9 9 9 w p f p r ( [ V T *.R , O 6 7 e f l l l z f f ~ >.",
"x . % : w 7 7 w w r r q e ( 1.*.O.n : & 7 7 r r r f l l w e ) 8.c . % - 9 7 7 w e e p 9 e ) 1.*.X.x > % 7 7 r r r f l f w e ( 8.",
"> . + : 7 7 7 7 9 q w w l { 0.3.} b g $ 7 w e e e l w w 8 P ;.q.> . + : 7 7 7 7 9 w w q l { 0.3.} m g O 6 w e e w l w q 9 U *.q.",
"B X O : 6 7 7 7 w 9 7 , I #.*.1.5.&.m X = 7 w w 7 w 9 6 D ;.#.@.B X O : 7 7 7 7 w 7 9 , T #.*.1.6.&.m X & 6 w w 7 w 9 6 D ;.#.@.",
") ( o O : 7 7 7 7 6 8 Y $.[ C ! X.&.$.4 X % 6 6 : : : F ;.%.R C ) ( X $ : 6 7 7 7 7 8 Y $.[ C E X.*.$.y o % 6 6 5 : : F ;.%.R V ",
"6 E ' X % 5 7 6 , , ^ *.) C - : q ) #.$.3 . o - : , L %.%.T B O , U ] X & 5 6 6 : , ^ *.) C - 5 q ( @.$.3 . o : : 5 L *.%.T B @ ",
"7 f U  .s O O ; u } *.^ N O $ 5 e w f [ %.' ! V V ~ *.X.C k O : 7 f I  .s @ $ ; u } *.~ B O O 6 e w l { %.' ! V B ^ *.X.C k $ : ",
"7 7 h V X.[ ^ C X.#.T z o & 6 7 7 e e f ^ X.X.O.-.4.| C g + 6 7 7 7 l V X.[ ~ C X.#.T z . % 7 7 7 e r p ^ X.X.O.-.3.} C g + 5 7 ",
"7 l w f V +.-.-.X.T g o ; 7 7 9 r f r e f ) X.6.0.%.I > + 6 e e e l w p V +.-.-.X.T d O & 7 9 9 e f p e f ) X.5.9.%.T > + 6 7 7 ",
"e l e w e &.q.O.I q O & 7 7 e f f r f w w m #.w.<.^ < . : 7 r p f x r w e &.q.O.I a O & 7 7 e p f r f w w m #.w.<.~ <   - 7 7 6 ",
"w z h 9 z ..6.*.C & O 5 7 7 f f f f f e e { ;.#.T C a O = 7 p f f z p w z ..6.*.V + O 6 7 7 p l l p f e e { -.$.T C p o % 7 7 7 ",
"7 e 9 e o.X.) 1.O.j O ; 6 9 e p l f e e S #.[ C } ~ C q o 6 e p r f 9 e o.O.( 1.O.z O & 7 7 e p l f e e S #.[ C [ ~ C q . 6 6 7 ",
"7 7 w G @.C m I +.$.D + 6 6 7 9 e w e S #.^ C 8 e ) +.~ 0 O 6 9 w 7 w J @.C M I #.$.D * 6 7 7 9 w 9 e S $.^ C q e ) O.~ 0 O 6 7 ",
"7 7 G ] I $ & w C [ +.G q 7 7 7 6 8 W #.T B O : 7 r D %.+.t % 6 7 7 G ..P + % w V [ O.A q 7 7 7 7 8 W #.T B @ : 9 e D $.+.t % 6 ",
"7 K o.m X : 7 7 r x [ } E h 7 & : ` +.[ n o : q w w h p X.;.Z , 6 K ..m X : 7 7 r z ' } E h 6 : : ` +.[ c o : w w q l f O.;.Z : ",
"~ ) j . 6 7 e f f l z ) { I m M I X.[ g O : 7 w p e r h p ) ;.#.~ ) j   6 7 e p f l z ) } T v m T X.[ g $ : 7 w p e p p r ) ;.#.",
"I 0   6 w w r f h r l f T O.O.O.4.} > O = 6 p f h h l e h l R <.I y . 6 9 e r l l r l f R O.X.+.4.| , O & 6 p f l l l e h l R <.",
"$ @ $ 7 w e p l r f f l M =.4.9.-.y . + 6 9 p f h l l l w l | ;.* o + 7 w r p f p f f l m :.3.9.-.t . + 5 7 f f f l h z 9 l | ;.",
"@ X & 7 w e r p f i r r P -.8.5.} q O O 6 9 e p p f l r p V *.*.. . % 7 w e p p d e e f P -.8.6.} u O O 6 9 e r p f l e p V *.;.",
"0 o + 5 7 9 w w 9 w e b 1.O.) *.%.~ < X - 6 7 9 9 w q e x ) $.[ y o + 5 7 9 w w 9 w e b 1.O.) *.%.~ < . = 7 7 9 w w q e z ) #.[ ",
"R 0 % + 6 7 7 7 7 r H 1.O.C ' T $.*.X.< O 6 7 7 7 6 7 c X.X.| I R u + & 6 7 7 7 7 p H 1.O.C ) I #.;.O.1 O 6 7 7 7 7 7 m X.X.| I ",
"I ) 0 & % 5 6 6 7 _ <.+.C C 8 0 C [ -.*.2   + + $ . m | [ [ ; ; I ) 8 & $ 5 6 6 7 _ <.+.I C < 0 V ' -.;.2 . + + O . m | } ) ; ; ",
"9 B } n 8 : , 6 / -.X.C V X O 6 7 z T -.*.[ N B M ( >.$.^ $ O 6 7 B | n 9 : : 6 / ;.| C B X + 6 7 x I -.*.' N V B ( >.$.~ * O 6 ",
"e l m @.' V P | *.) C k . 5 6 7 p f p Y :.1.X.%.>.2.O.P o $ 6 w e l m @.' C I | *.' C k X 5 7 9 p p p T =.1.X.%.>.2.X.P X + 6 e ",
"r r l n >.@.-.1...C g = 7 7 9 p f f e f C $.5.7.7.| m X ; 7 r f f f l n >.@.-.1.} V g = 7 7 7 p h p e p C #.5.6.7.| m . : 6 e p ",
"f h l l M -.4.) C > % 7 7 9 r l p h f e l C X.8.) V   & : 9 f f f l f l M -.3.' C > % 7 7 9 e l p h f e h C O.8.' V . = : 9 p h ",
"h l r f z | } C 0   = 7 7 9 e w p r e 7 9 C ) *.C C X & 5 7 r f f f f f l ..} C 8   - 7 6 9 e e p p w 9 9 C ) *.C V X & 5 7 r p "
};
