/* XPM */
static char *_ee5b5b7440d4879d520402e3de11826sblN6KYkxYjCY6mc[] = {
/* columns rows colors chars-per-pixel */
"16 16 11 1 ",
"  c #525D39",
". c gray32",
"X c #5A6D41",
"o c #627941",
"O c gray38",
"+ c #6E6D6D",
"@ c #738552",
"# c #7A8F55",
"$ c #888788",
"% c gray61",
"& c gray71",
/* pixels */
"o %%X  X#@oO$&%@",
" %&$$ X#@o$ O$+$",
"O%$$+ @ooX+   $+",
"OO$+X $X$+ o@o  ",
".+O  OOXOO&@@@oX",
"& #@&%+O.$$o%oX$",
"%$ o$$$+X  %$+ &",
"$$   O. @@o +$O$",
"O  #@o o%o@oXO.+",
" X@Xoo+O$$Xo Xo ",
"$OooX    ++X o@&",
"$  X Xo#@ O $&&$",
" X#@+ #@o@+O$$+$",
"o#o$$ @o$$$+  $+",
"%@$$$+ +$$+O $o ",
" $OO+X   O.$&%$o"
};
